<svg width="21" height="21" viewBox="0 0 21 21" fill="none" xmlns="http://www.w3.org/2000/svg">
<g filter="url(#filter0_d_51_1347)">
<rect x="1" width="20" height="20" fill="#3B82F6"/>
<rect x="1.5" y="0.5" width="19" height="19" stroke="black"/>
</g>
<path d="M17.7443 9.51426L13.3737 6.03583C12.9219 5.68573 12.2443 6.00195 12.2443 6.57793V7.74117C12.2443 8.11385 11.9959 8.44137 11.6232 8.44137H4.67762C4.30493 8.44137 4 8.71242 4 9.0964V10.926C4 11.2874 4.30493 11.6036 4.67762 11.6036H11.6232C11.9959 11.6036 12.2443 11.8973 12.2443 12.2699V13.4331C12.2443 13.9978 12.9219 14.314 13.3624 13.9639L17.7217 10.5759C18.0831 10.3161 18.0944 9.78531 17.7443 9.51426Z" fill="white"/>
<defs>
<filter id="filter0_d_51_1347" x="0" y="0" width="21" height="21" filterUnits="userSpaceOnUse" color-interpolation-filters="sRGB">
<feFlood flood-opacity="0" result="BackgroundImageFix"/>
<feColorMatrix in="SourceAlpha" type="matrix" values="0 0 0 0 0 0 0 0 0 0 0 0 0 0 0 0 0 0 127 0" result="hardAlpha"/>
<feOffset dx="-1" dy="1"/>
<feComposite in2="hardAlpha" operator="out"/>
<feColorMatrix type="matrix" values="0 0 0 0 0 0 0 0 0 0 0 0 0 0 0 0 0 0 1 0"/>
<feBlend mode="normal" in2="BackgroundImageFix" result="effect1_dropShadow_51_1347"/>
<feBlend mode="normal" in="SourceGraphic" in2="effect1_dropShadow_51_1347" result="shape"/>
</filter>
</defs>
</svg>
