<svg width="26" height="25" viewBox="0 0 26 25" fill="none" xmlns="http://www.w3.org/2000/svg">
<path d="M17.9271 3.90144V2.31213C17.9271 1.89442 17.5687 1.54803 17.1366 1.54803C16.7045 1.54803 16.3462 1.89442 16.3462 2.31213V3.84031H9.49568V2.31213C9.49568 1.89442 9.13735 1.54803 8.70524 1.54803C8.27314 1.54803 7.9148 1.89442 7.9148 2.31213V3.90144C5.06921 4.15614 3.68858 5.79639 3.47779 8.2313C3.45671 8.52675 3.70965 8.77126 4.00475 8.77126H21.8371C22.1427 8.77126 22.3957 8.51656 22.3641 8.2313C22.1533 5.79639 20.7726 4.15614 17.9271 3.90144Z" fill="#EA580C"/>
<path opacity="0.4" d="M21.3522 10.2994C21.9319 10.2994 22.4061 10.7579 22.4061 11.3182V17.594C22.4061 20.6504 20.8252 22.6879 17.1365 22.6879H8.70515C5.01643 22.6879 3.43555 20.6504 3.43555 17.594V11.3182C3.43555 10.7579 3.90981 10.2994 4.48947 10.2994H21.3522Z" fill="#EA580C"/>
<path d="M9.23166 15.5564C8.95764 15.5564 8.68362 15.4443 8.48337 15.2609C8.29367 15.0674 8.17773 14.8025 8.17773 14.5376C8.17773 14.2727 8.29367 14.0078 8.48337 13.8143C8.77847 13.529 9.2422 13.4373 9.63215 13.6003C9.76916 13.6512 9.88509 13.7226 9.97994 13.8143C10.1696 14.0078 10.2856 14.2727 10.2856 14.5376C10.2856 14.8025 10.1696 15.0674 9.97994 15.2609C9.77969 15.4443 9.50568 15.5564 9.23166 15.5564Z" fill="#EA580C"/>
<path d="M12.9201 15.5564C12.6461 15.5564 12.3721 15.4443 12.1718 15.2609C11.9821 15.0674 11.8662 14.8025 11.8662 14.5376C11.8662 14.2727 11.9821 14.0078 12.1718 13.8143C12.2667 13.7226 12.3826 13.6512 12.5196 13.6003C12.9096 13.4373 13.3733 13.529 13.6684 13.8143C13.8581 14.0078 13.9741 14.2727 13.9741 14.5376C13.9741 14.8025 13.8581 15.0674 13.6684 15.2609C13.6157 15.3017 13.563 15.3424 13.5103 15.3832C13.4471 15.4239 13.3839 15.4545 13.3206 15.4749C13.2574 15.5055 13.1942 15.5258 13.1309 15.536C13.0571 15.5462 12.9939 15.5564 12.9201 15.5564Z" fill="#EA580C"/>
<path d="M16.6096 15.5564C16.3356 15.5564 16.0615 15.4443 15.8613 15.2609C15.6716 15.0674 15.5557 14.8025 15.5557 14.5376C15.5557 14.2727 15.6716 14.0078 15.8613 13.8143C15.9667 13.7226 16.0721 13.6512 16.2091 13.6003C16.3988 13.5188 16.6096 13.4984 16.8204 13.5392C16.8836 13.5494 16.9468 13.5697 17.0101 13.6003C17.0733 13.6207 17.1365 13.6513 17.1998 13.692C17.2525 13.7328 17.3052 13.7735 17.3579 13.8143C17.5476 14.0078 17.6635 14.2727 17.6635 14.5376C17.6635 14.8025 17.5476 15.0674 17.3579 15.2609C17.3052 15.3017 17.2525 15.3424 17.1998 15.3832C17.1365 15.4239 17.0733 15.4545 17.0101 15.4749C16.9468 15.5055 16.8836 15.5258 16.8204 15.536C16.7466 15.5462 16.6728 15.5564 16.6096 15.5564Z" fill="#EA580C"/>
<path d="M9.23166 19.1222C9.09465 19.1222 8.95764 19.0916 8.83116 19.0407C8.69415 18.9898 8.58876 18.9184 8.48337 18.8267C8.29367 18.6332 8.17773 18.3683 8.17773 18.1034C8.17773 17.8385 8.29367 17.5736 8.48337 17.3801C8.58876 17.2884 8.69415 17.217 8.83116 17.1661C9.02087 17.0846 9.23166 17.0642 9.44244 17.105C9.50568 17.1152 9.56891 17.1355 9.63215 17.1661C9.69538 17.1865 9.75862 17.2171 9.82185 17.2578C9.87455 17.2986 9.92724 17.3393 9.97994 17.3801C10.1696 17.5736 10.2856 17.8385 10.2856 18.1034C10.2856 18.3683 10.1696 18.6332 9.97994 18.8267C9.92724 18.8675 9.87455 18.9184 9.82185 18.949C9.75862 18.9897 9.69538 19.0203 9.63215 19.0407C9.56891 19.0713 9.50568 19.0916 9.44244 19.1018C9.36867 19.112 9.30543 19.1222 9.23166 19.1222Z" fill="#EA580C"/>
<path d="M12.9201 19.1222C12.6461 19.1222 12.3721 19.0101 12.1718 18.8267C11.9821 18.6332 11.8662 18.3683 11.8662 18.1034C11.8662 17.8385 11.9821 17.5736 12.1718 17.3801C12.5618 17.0031 13.2785 17.0031 13.6684 17.3801C13.8581 17.5736 13.9741 17.8385 13.9741 18.1034C13.9741 18.3683 13.8581 18.6332 13.6684 18.8267C13.4682 19.0101 13.1942 19.1222 12.9201 19.1222Z" fill="#EA580C"/>
<path d="M16.6096 19.1222C16.3356 19.1222 16.0615 19.0101 15.8613 18.8267C15.6716 18.6332 15.5557 18.3683 15.5557 18.1034C15.5557 17.8385 15.6716 17.5736 15.8613 17.3801C16.2513 17.0031 16.9679 17.0031 17.3579 17.3801C17.5476 17.5736 17.6635 17.8385 17.6635 18.1034C17.6635 18.3683 17.5476 18.6332 17.3579 18.8267C17.1576 19.0101 16.8836 19.1222 16.6096 19.1222Z" fill="#EA580C"/>
</svg>
