<svg width="122" height="122" viewBox="0 0 122 122" fill="none" xmlns="http://www.w3.org/2000/svg">
<circle cx="61" cy="61" r="61" fill="#1E1E1E"/>
<path d="M61.1182 41.4V80.9467" stroke="white" stroke-width="2.38263" stroke-linecap="round"/>
<path d="M45.1504 66.3461C45.1504 66.3461 55.6578 70.4655 61.1216 82" stroke="white" stroke-width="2.38263" stroke-linecap="round"/>
<path d="M77.1294 66.3459C77.1294 66.3459 66.622 70.4654 61.1582 81.9998" stroke="white" stroke-width="2.38263" stroke-linecap="round"/>
<path d="M43.5533 9.42745C43.9914 9.27298 44.4266 9.19096 44.8587 9.1814C45.2908 9.17184 45.6906 9.26292 46.058 9.45465C46.4255 9.64637 46.7365 9.96152 46.9911 10.4001L45.9528 10.7661C45.7762 10.5285 45.569 10.366 45.3311 10.2785C45.0955 10.1974 44.847 10.1708 44.5855 10.1987C44.3177 10.2288 44.06 10.2876 43.8123 10.3749C43.5774 10.4577 43.3695 10.5667 43.1887 10.7018C43.0015 10.8392 42.867 11.0044 42.7851 11.1975C42.7033 11.3906 42.7038 11.6046 42.7866 11.8395C42.8493 12.0173 42.9357 12.1511 43.0459 12.2407C43.156 12.3304 43.2869 12.3878 43.4385 12.4129C43.586 12.4465 43.7533 12.4554 43.9405 12.4394C44.1597 12.4335 44.3915 12.4124 44.6357 12.3763C44.8737 12.3424 45.1138 12.3148 45.3562 12.2936C45.5923 12.2747 45.8212 12.2761 46.0431 12.2978C46.2242 12.3053 46.4066 12.3267 46.5904 12.3619C46.77 12.4056 46.9362 12.472 47.0889 12.5609C47.2439 12.6562 47.3876 12.7804 47.5201 12.9336C47.6463 13.089 47.7497 13.281 47.8303 13.5096C47.9378 13.8144 47.9819 14.0916 47.9628 14.3411C47.9373 14.5928 47.8709 14.8196 47.7637 15.0217C47.6501 15.2259 47.503 15.4063 47.3226 15.5627C47.138 15.7277 46.935 15.8707 46.7135 15.9916C46.492 16.1125 46.2701 16.2122 46.0478 16.2905C45.6414 16.4338 45.2444 16.5024 44.8567 16.4963C44.469 16.4902 44.1148 16.3866 43.7941 16.1856C43.4692 15.9931 43.2178 15.6748 43.0398 15.2307L44.0209 14.8848C44.1313 15.1171 44.281 15.2785 44.47 15.369C44.6548 15.468 44.8589 15.5103 45.0823 15.4958C45.3079 15.4877 45.535 15.4433 45.7636 15.3627C45.9287 15.3045 46.0882 15.2304 46.2421 15.1405C46.3982 15.0569 46.5327 14.9523 46.6455 14.8269C46.7543 14.71 46.8286 14.5767 46.8686 14.4269C46.9023 14.2794 46.8878 14.1168 46.8251 13.939C46.7714 13.7866 46.6915 13.6612 46.5855 13.563C46.4817 13.4711 46.3581 13.404 46.2147 13.3617C46.0672 13.3281 45.9103 13.3084 45.7441 13.3027C45.4416 13.2952 45.1215 13.3188 44.7838 13.3736C44.4484 13.4347 44.1242 13.4669 43.8113 13.4701C43.5857 13.4783 43.3672 13.4661 43.1558 13.4335C42.9467 13.4073 42.7551 13.3499 42.5811 13.2613C42.4093 13.1791 42.2571 13.0614 42.1246 12.9082C41.9943 12.7614 41.8889 12.5737 41.8083 12.3451C41.6762 11.9704 41.6298 11.6262 41.6691 11.3125C41.7107 11.0052 41.8178 10.7318 41.9904 10.4925C42.1631 10.2531 42.3852 10.0427 42.6568 9.86131C42.9306 9.68624 43.2294 9.54162 43.5533 9.42745Z" fill="white"/>
<path d="M34.9914 13.1592C35.6342 12.805 36.2485 12.6433 36.8343 12.6741C37.4143 12.7081 37.945 12.9038 38.4264 13.2613C38.9078 13.6187 39.3207 14.1099 39.6652 14.735C40.0096 15.3601 40.206 15.9745 40.2543 16.5783C40.2967 17.1854 40.1773 17.7431 39.8963 18.2516C39.6127 18.7692 39.1495 19.2052 38.5067 19.5594C38.0408 19.8161 37.5917 19.9636 37.1593 20.002C36.7301 20.0463 36.333 19.9884 35.968 19.8282C35.6003 19.6772 35.2771 19.4325 34.9984 19.0941L35.9183 18.5871C36.1725 18.8391 36.484 18.9788 36.8527 19.0063C37.2215 19.0337 37.6181 18.9304 38.0427 18.6965C38.5145 18.4365 38.8347 18.1178 39.0035 17.7404C39.1663 17.3662 39.2151 16.9665 39.1498 16.5412C39.0878 16.1218 38.9447 15.7086 38.7205 15.3017C38.4898 14.883 38.2075 14.5312 37.8737 14.2462C37.5398 13.9612 37.1653 13.7909 36.7502 13.7352C36.3352 13.6795 35.8976 13.7783 35.4377 14.0318C35.1546 14.1878 34.9251 14.3642 34.7492 14.5611C34.5765 14.7639 34.457 14.9796 34.3908 15.2083C34.3279 15.4429 34.3251 15.675 34.3826 15.9048L33.4007 16.4458C33.2661 16.0203 33.2404 15.6039 33.3236 15.1968C33.4067 14.7896 33.5876 14.4132 33.866 14.0676C34.1445 13.7219 34.5196 13.4191 34.9914 13.1592Z" fill="white"/>
<path d="M29.8026 16.3343L34.2334 21.9338L32.0792 23.6384C31.7782 23.8766 31.4786 24.0622 31.1803 24.1952C30.8861 24.3335 30.5924 24.4071 30.2989 24.416C30.0097 24.4303 29.7251 24.3635 29.4451 24.2159C29.1651 24.0682 28.8935 23.8281 28.6303 23.4954C28.3922 23.1945 28.2402 22.894 28.1745 22.5939C28.1088 22.2939 28.112 21.9995 28.184 21.7107C28.256 21.4219 28.3789 21.1486 28.5527 20.8909L25.6208 19.6434L26.5475 18.9101L29.2857 20.0919L30.5925 19.0579L28.9631 16.9986L29.8026 16.3343ZM31.1879 19.8103L30.0474 20.7127C29.8573 20.8631 29.6909 21.0163 29.5481 21.1722C29.4042 21.3376 29.2981 21.5074 29.2299 21.6816C29.1659 21.861 29.1517 22.0439 29.1875 22.2302C29.2223 22.426 29.3232 22.6295 29.4903 22.8407C29.6772 23.0878 29.8772 23.2429 30.0903 23.3061C30.3024 23.3787 30.5264 23.3688 30.7624 23.2765C31.0027 23.1895 31.2574 23.0394 31.5267 22.8263L32.786 21.8299L31.1879 19.8103Z" fill="white"/>
<path d="M20.7446 24.2862C21.2327 23.7381 21.7626 23.3761 22.3343 23.1999C22.9064 23.0333 23.486 23.0356 24.0729 23.2068C24.6599 23.3779 25.2148 23.6963 25.7377 24.1621C26.2656 24.6323 26.6484 25.1491 26.886 25.7124C27.1236 26.2757 27.1879 26.8514 27.0788 27.4396C26.9748 28.0321 26.6787 28.6025 26.1905 29.1505C25.6979 29.7036 25.168 30.0656 24.6009 30.2367C24.0337 30.4078 23.4566 30.4077 22.8697 30.2366C22.2828 30.0655 21.7254 29.7448 21.1974 29.2745C20.6745 28.8088 20.2943 28.2943 20.0567 27.731C19.819 27.1676 19.7523 26.5897 19.8563 25.9971C19.9559 25.4095 20.252 24.8392 20.7446 24.2862ZM21.4694 24.9453C21.1111 25.3475 20.9108 25.7597 20.8685 26.1818C20.8261 26.6039 20.902 27.0097 21.0962 27.399C21.2904 27.7884 21.5634 28.1398 21.9154 28.4533C22.1819 28.6907 22.4671 28.8816 22.7711 29.0262C23.0707 29.1758 23.3762 29.2631 23.6876 29.288C23.999 29.3129 24.3061 29.2618 24.6087 29.1346C24.9113 29.0074 25.1948 28.7955 25.459 28.4989C25.8128 28.1017 26.0131 27.6895 26.0599 27.2624C26.1023 26.8403 26.0286 26.432 25.8389 26.0376C25.6492 25.6432 25.3759 25.287 25.0189 24.9691C24.667 24.6556 24.2864 24.4248 23.8773 24.2768C23.4636 24.1338 23.0496 24.1076 22.6352 24.1983C22.2163 24.2941 21.8277 24.5431 21.4694 24.9453Z" fill="white"/>
<path d="M16.4701 29.5951L22.5063 33.4095L21.9344 34.3145L16.7264 31.0234L14.687 34.2507L13.8588 33.7273L16.4701 29.5951Z" fill="white"/>
<path d="M12.3078 36.486L18.833 39.3856L18.3983 40.3639L12.7683 37.8622L11.2181 41.3509L10.3228 40.9531L12.3078 36.486Z" fill="white"/>
<path d="M8.10099 47.4042L15.1123 48.7561L14.6228 51.2948C14.4813 52.0287 14.2173 52.6155 13.8308 53.0553C13.4497 53.5029 12.9704 53.8014 12.393 53.9506C11.821 54.1078 11.178 54.1175 10.464 53.9798C9.74998 53.8422 9.15604 53.5974 8.68218 53.2454C8.20833 52.8935 7.87439 52.4382 7.68037 51.8797C7.49169 51.329 7.46809 50.6868 7.60958 49.9529L8.10099 47.4042ZM8.86026 48.6409L8.58109 50.0888C8.47657 50.6309 8.49694 51.0943 8.64222 51.4789C8.79411 51.8647 9.04254 52.1766 9.38752 52.4146C9.73911 52.6538 10.1661 52.8218 10.6686 52.9187C11.1578 53.013 11.6101 53.0145 12.0254 52.9232C12.4395 52.8384 12.7887 52.6452 13.0732 52.3435C13.363 52.0496 13.5595 51.635 13.6628 51.0994L13.9477 49.6218L8.86026 48.6409Z" fill="white"/>
<path d="M6.35517 60.1794C6.36004 59.4455 6.51902 58.8238 6.83213 58.3141C7.15193 57.8112 7.58875 57.4303 8.14259 57.1714C8.69644 56.9125 9.32347 56.7854 10.0237 56.79C10.7307 56.7947 11.3593 56.9302 11.9097 57.1964C12.46 57.4626 12.8884 57.8526 13.1947 58.3664C13.5078 58.8802 13.6619 59.5041 13.657 60.2379C13.6521 60.9786 13.4931 61.6003 13.18 62.1033C12.867 62.6062 12.4335 62.9871 11.8797 63.246C11.3258 63.5049 10.6954 63.6321 9.98846 63.6274C9.28823 63.6227 8.66294 63.4873 8.11258 63.221C7.56222 62.9548 7.13051 62.5648 6.81745 62.051C6.50435 61.5439 6.35026 60.92 6.35517 60.1794ZM7.33475 60.196C7.33118 60.7347 7.45281 61.1765 7.69965 61.5215C7.94649 61.8666 8.27137 62.1212 8.67427 62.2855C9.07718 62.4497 9.51428 62.5334 9.98559 62.5366C10.3424 62.5389 10.6828 62.4941 11.0066 62.4019C11.3303 62.3166 11.6174 62.1804 11.8678 61.9936C12.1181 61.8067 12.315 61.5656 12.4584 61.2703C12.6017 60.975 12.6747 60.6287 12.6773 60.2314C12.6809 59.6995 12.5592 59.2577 12.3124 58.9059C12.0656 58.5609 11.7407 58.3029 11.3379 58.1319C10.935 57.9609 10.4946 57.8738 10.0165 57.8706C9.54523 57.8675 9.10705 57.9454 8.702 58.1043C8.29691 58.27 7.96866 58.5236 7.71727 58.8654C7.46582 59.2138 7.33832 59.6574 7.33475 60.196Z" fill="white"/>
<path d="M6.77703 68.2159L13.439 65.0326L13.6642 66.2132L7.94224 68.8264L14.2187 69.1199L14.5045 70.618L8.77498 73.1916L15.0571 73.5148L15.271 74.6359L7.9069 74.1386L7.61544 72.6108L13.2457 70.0561L7.07038 69.7536L6.77703 68.2159Z" fill="white"/>
<path d="M9.12826 78.62L15.7354 75.9122L16.2064 77.0617L12.4075 82.4934L17.5661 80.3792L17.9683 81.3605L11.3612 84.0683L10.9016 82.9469L14.6648 77.5079L9.53424 79.6106L9.12826 78.62Z" fill="white"/>
<path d="M17.5086 89.9438C17.393 89.77 17.3194 89.5804 17.2879 89.3749C17.2601 89.1751 17.2874 88.979 17.3697 88.7868C17.4521 88.5945 17.5998 88.4275 17.8129 88.2858C18.1212 88.0807 18.4257 88.0157 18.7262 88.0907C19.0362 88.1676 19.2862 88.349 19.4764 88.635C19.5994 88.82 19.6674 89.0133 19.6802 89.215C19.7024 89.4186 19.6686 89.6109 19.5788 89.7919C19.4927 89.9786 19.3459 90.1409 19.1385 90.2789C18.8413 90.4765 18.5397 90.5397 18.2335 90.4684C17.9329 90.3933 17.6913 90.2185 17.5086 89.9438Z" fill="white"/>
<path d="M21.5145 99.1141C21.1888 98.7828 20.93 98.4235 20.738 98.0363C20.5461 97.649 20.459 97.2483 20.4768 96.8342C20.4946 96.4202 20.648 96.0049 20.9372 95.5883L21.7091 96.3733C21.5688 96.634 21.5095 96.8906 21.5312 97.1431C21.5576 97.3909 21.639 97.6273 21.7751 97.8522C21.916 98.0819 22.0785 98.2904 22.2626 98.4776C22.4373 98.6553 22.6242 98.7973 22.8233 98.9037C23.027 99.0149 23.2337 99.0667 23.4433 99.0589C23.6528 99.0512 23.8464 98.96 24.0241 98.7853C24.1585 98.6531 24.243 98.5181 24.2774 98.3804C24.3119 98.2426 24.3084 98.0997 24.2668 97.9518C24.2347 97.8039 24.1717 97.6486 24.0779 97.4859C23.9795 97.2899 23.8622 97.089 23.7259 96.8831C23.5943 96.682 23.4674 96.4762 23.3454 96.2657C23.2281 96.0599 23.1323 95.852 23.0579 95.6419C22.9879 95.4747 22.9298 95.3004 22.8837 95.1191C22.8472 94.9379 22.8368 94.7592 22.8526 94.5832C22.8731 94.4024 22.9247 94.2196 23.0072 94.0346C23.0944 93.8544 23.2244 93.6793 23.3972 93.5094C23.6277 93.2828 23.8599 93.1252 24.094 93.0368C24.3328 92.9531 24.5664 92.9169 24.7948 92.9284C25.028 92.9446 25.2536 93.0013 25.4718 93.0984C25.6995 93.1955 25.9151 93.3187 26.1186 93.4681C26.3221 93.6174 26.5064 93.776 26.6717 93.9441C26.9738 94.2513 27.2043 94.5818 27.3632 94.9355C27.5221 95.2891 27.5785 95.6539 27.5325 96.0296C27.496 96.4054 27.3144 96.7681 26.9877 97.1177L26.2583 96.3759C26.4219 96.1774 26.5046 95.9733 26.5063 95.7638C26.5176 95.5544 26.4693 95.3517 26.3615 95.1556C26.2584 94.9547 26.1219 94.7679 25.952 94.5951C25.8292 94.4702 25.6945 94.3572 25.5478 94.256C25.4058 94.15 25.2541 94.0726 25.0927 94.0236C24.9407 93.9747 24.7884 93.9639 24.6359 93.9912C24.488 94.0233 24.3468 94.1054 24.2124 94.2376C24.0972 94.3509 24.0176 94.4764 23.9736 94.6141C23.9343 94.7471 23.926 94.8874 23.9486 95.0352C23.9807 95.1831 24.0294 95.3335 24.0947 95.4864C24.2162 95.7636 24.3733 96.0434 24.5662 96.326C24.7638 96.6038 24.9305 96.8837 25.0661 97.1658C25.1692 97.3666 25.2508 97.5696 25.311 97.7749C25.3759 97.9754 25.4052 98.1732 25.3988 98.3684C25.3972 98.5588 25.3551 98.7465 25.2726 98.9315C25.1949 99.1118 25.0697 99.2869 24.8968 99.4568C24.6136 99.7354 24.3216 99.9234 24.0208 100.021C23.7248 100.114 23.4318 100.132 23.1419 100.078C22.8519 100.023 22.5672 99.9109 22.2877 99.7419C22.013 99.5682 21.7553 99.3589 21.5145 99.1141Z" fill="white"/>
<path d="M28.452 105.227C27.8601 104.793 27.4549 104.304 27.2362 103.76C27.023 103.219 26.9772 102.656 27.0987 102.068C27.2203 101.481 27.4921 100.9 27.9142 100.324C28.3362 99.7489 28.8109 99.3121 29.3383 99.0142C29.8711 98.7202 30.4272 98.5937 31.0068 98.6346C31.5957 98.674 32.1861 98.9107 32.7779 99.3446C33.2069 99.6592 33.5298 100.004 33.7466 100.381C33.9675 100.751 34.0821 101.136 34.0904 101.534C34.1082 101.931 34.0222 102.328 33.8326 102.723L32.9855 102.102C33.1071 101.765 33.1028 101.424 32.9724 101.078C32.8421 100.732 32.5815 100.415 32.1905 100.129C31.7561 99.8102 31.3322 99.6539 30.9189 99.6597C30.5109 99.6695 30.1278 99.7935 29.7694 100.032C29.4151 100.264 29.1005 100.568 28.8258 100.943C28.5432 101.328 28.3428 101.732 28.2248 102.155C28.1069 102.578 28.11 102.989 28.2341 103.389C28.3583 103.789 28.6322 104.145 29.0557 104.455C29.3163 104.646 29.573 104.78 29.8257 104.857C30.0823 104.928 30.3283 104.946 30.5635 104.91C30.8028 104.868 31.0145 104.773 31.1988 104.624L32.1029 105.287C31.7735 105.588 31.4066 105.787 31.0023 105.883C30.598 105.978 30.1805 105.973 29.7497 105.866C29.3189 105.759 28.8864 105.546 28.452 105.227Z" fill="white"/>
<path d="M33.4693 108.561L36.6973 102.192L39.1476 103.434C39.49 103.608 39.784 103.802 40.0297 104.017C40.2785 104.226 40.4685 104.462 40.5995 104.725C40.7336 104.981 40.7923 105.268 40.7755 105.584C40.7587 105.9 40.6545 106.247 40.4627 106.626C40.2892 106.968 40.08 107.232 39.8351 107.417C39.5902 107.602 39.3215 107.723 39.0291 107.779C38.7368 107.834 38.4371 107.837 38.1303 107.787L38.2258 110.972L37.1718 110.438L37.0977 107.456L35.6113 106.703L34.4242 109.045L33.4693 108.561ZM36.045 105.847L37.3423 106.505C37.5585 106.614 37.7673 106.701 37.9687 106.766C38.1791 106.827 38.3777 106.852 38.5645 106.841C38.7543 106.824 38.9263 106.76 39.0804 106.65C39.2437 106.536 39.3862 106.359 39.5079 106.119C39.6539 105.846 39.711 105.599 39.6791 105.379C39.6562 105.156 39.5534 104.957 39.3707 104.781C39.191 104.6 38.948 104.431 38.6417 104.276L37.2093 103.55L36.045 105.847Z" fill="white"/>
<path d="M44.4171 113.434C43.7154 113.219 43.1653 112.888 42.7669 112.442C42.3769 111.992 42.1373 111.464 42.0481 110.859C41.9589 110.254 42.0169 109.617 42.2222 108.948C42.4294 108.272 42.7395 107.708 43.1524 107.257C43.5653 106.806 44.0618 106.508 44.6418 106.362C45.2238 106.209 45.8656 106.241 46.5673 106.456C47.2754 106.673 47.8255 107.004 48.2175 107.448C48.6095 107.892 48.8501 108.416 48.9393 109.021C49.0285 109.626 48.9694 110.266 48.7622 110.942C48.5569 111.612 48.2478 112.172 47.8349 112.623C47.422 113.074 46.9246 113.375 46.3426 113.528C45.767 113.682 45.1252 113.651 44.4171 113.434ZM44.7139 112.5C45.2289 112.658 45.687 112.668 46.0884 112.531C46.4897 112.393 46.8268 112.155 47.0998 111.816C47.3727 111.478 47.5782 111.083 47.7164 110.632C47.821 110.291 47.8756 109.952 47.8802 109.615C47.8913 109.281 47.8432 108.967 47.736 108.673C47.6288 108.38 47.4543 108.122 47.2125 107.9C46.9707 107.678 46.6599 107.509 46.2801 107.392C45.7716 107.236 45.3134 107.226 44.9056 107.362C44.5043 107.499 44.164 107.737 43.8846 108.073C43.6052 108.41 43.3955 108.807 43.2554 109.264C43.1172 109.715 43.0661 110.157 43.1022 110.591C43.1447 111.026 43.2936 111.413 43.5489 111.752C43.8106 112.093 44.1989 112.342 44.7139 112.5Z" fill="white"/>
<path d="M51.0613 115.11L51.9932 108.031L53.0546 108.171L52.2506 114.279L56.0356 114.777L55.9078 115.748L51.0613 115.11Z" fill="white"/>
<path d="M59.0147 116L58.8994 108.86L59.9698 108.843L60.0693 115.003L63.8865 114.942L63.9023 115.921L59.0147 116Z" fill="white"/>
<path d="M70.7345 115.227L68.9932 108.302L71.5006 107.672C72.2254 107.489 72.8688 107.48 73.4308 107.644C73.9977 107.8 74.4709 108.108 74.8503 108.568C75.2347 109.02 75.5156 109.599 75.6929 110.304C75.8703 111.009 75.8997 111.651 75.7813 112.229C75.6629 112.807 75.3917 113.303 74.9677 113.715C74.5486 114.119 73.9766 114.412 73.2518 114.594L70.7345 115.227ZM71.5339 114.016L72.9639 113.656C73.4993 113.521 73.9106 113.307 74.1976 113.013C74.4829 112.712 74.6604 112.355 74.7301 111.941C74.7981 111.522 74.7697 111.064 74.6449 110.567C74.5234 110.084 74.3334 109.674 74.0749 109.336C73.823 108.997 73.5001 108.762 73.1064 108.632C72.7175 108.494 72.2586 108.491 71.7297 108.624L70.2703 108.991L71.5339 114.016Z" fill="white"/>
<path d="M83.1222 111.418C82.4542 111.723 81.8233 111.84 81.2292 111.77C80.6385 111.691 80.1092 111.455 79.6414 111.061C79.1736 110.668 78.7946 110.152 78.5044 109.515C78.2114 108.872 78.07 108.244 78.0802 107.633C78.0904 107.022 78.2641 106.469 78.6015 105.975C78.936 105.475 79.4373 105.073 80.1052 104.769C80.7792 104.462 81.4102 104.345 81.9981 104.417C82.5861 104.49 83.1139 104.723 83.5817 105.117C84.0495 105.51 84.4299 106.029 84.7229 106.672C85.0131 107.31 85.1531 107.934 85.143 108.545C85.1328 109.156 84.9604 109.712 84.6259 110.212C84.2974 110.709 83.7962 111.112 83.1222 111.418ZM82.7254 110.523C83.2156 110.299 83.5653 110.003 83.7746 109.634C83.9838 109.265 84.0783 108.863 84.0579 108.429C84.0376 107.994 83.9297 107.562 83.7344 107.133C83.5865 106.809 83.4027 106.519 83.183 106.264C82.9694 106.006 82.7252 105.803 82.4504 105.654C82.1755 105.505 81.874 105.428 81.5458 105.422C81.2176 105.416 80.8727 105.496 80.5112 105.66C80.0271 105.881 79.6774 106.177 79.462 106.549C79.2527 106.918 79.1552 107.321 79.1694 107.758C79.1836 108.196 79.2898 108.632 79.4879 109.067C79.6833 109.496 79.9382 109.861 80.2527 110.162C80.5733 110.46 80.9415 110.651 81.3572 110.735C81.7791 110.817 82.2351 110.746 82.7254 110.523Z" fill="white"/>
<path d="M90.1844 107.722L84.4854 103.028L85.4604 102.325L90.2457 106.408L87.861 100.595L89.0982 99.703L93.8507 103.81L91.4906 97.9786L92.4165 97.3113L95.0758 104.196L93.814 105.106L89.1205 101.081L91.4543 106.807L90.1844 107.722Z" fill="white"/>
<path d="M98.6322 101.224L93.3882 96.3776L94.2313 95.4653L100.759 96.616L96.6648 92.8322L97.3845 92.0534L102.628 96.8997L101.806 97.7897L95.2867 96.6744L99.3588 100.438L98.6322 101.224Z" fill="white"/>
<path d="M105.255 89.0551C105.146 89.2327 105.004 89.3788 104.831 89.4933C104.661 89.6021 104.471 89.6592 104.262 89.6648C104.053 89.6703 103.84 89.6059 103.622 89.4716C103.307 89.2772 103.12 89.0278 103.063 88.7233C103.003 88.4097 103.063 88.1067 103.244 87.8144C103.36 87.6253 103.508 87.4828 103.685 87.3868C103.861 87.2815 104.05 87.2319 104.252 87.2378C104.457 87.238 104.666 87.3035 104.878 87.4343C105.182 87.6216 105.366 87.8693 105.429 88.1772C105.486 88.4816 105.428 88.7743 105.255 89.0551Z" fill="white"/>
<path d="M111.997 81.4709C111.832 81.9052 111.614 82.2903 111.342 82.6263C111.07 82.9623 110.742 83.2087 110.359 83.3653C109.975 83.5219 109.533 83.5557 109.034 83.4666L109.425 82.4377C109.721 82.4564 109.979 82.4032 110.199 82.2782C110.413 82.1507 110.594 81.9782 110.742 81.7606C110.892 81.5367 111.014 81.302 111.107 81.0566C111.195 80.8237 111.247 80.5947 111.26 80.3693C111.276 80.1377 111.237 79.9283 111.143 79.7411C111.048 79.5539 110.884 79.416 110.652 79.3274C110.475 79.2604 110.317 79.24 110.178 79.2661C110.038 79.2923 109.91 79.3551 109.793 79.4546C109.672 79.5455 109.557 79.6675 109.448 79.8207C109.311 79.9918 109.177 80.1823 109.047 80.3921C108.919 80.5956 108.785 80.7967 108.645 80.9954C108.507 81.1879 108.358 81.3617 108.198 81.517C108.075 81.6504 107.941 81.7759 107.796 81.8934C107.646 82.0023 107.488 82.0862 107.322 82.1453C107.149 82.2021 106.961 82.2315 106.758 82.2337C106.558 82.2297 106.345 82.1845 106.118 82.0984C105.816 81.9835 105.576 81.8381 105.398 81.6623C105.222 81.4803 105.092 81.283 105.007 81.0707C104.925 80.852 104.882 80.6232 104.879 80.3845C104.873 80.137 104.895 79.8896 104.945 79.6424C104.996 79.3952 105.063 79.1615 105.147 78.9412C105.3 78.5384 105.505 78.1911 105.76 77.8991C106.015 77.6071 106.323 77.4037 106.683 77.2887C107.04 77.1651 107.446 77.1788 107.9 77.3299L107.53 78.3022C107.281 78.2364 107.061 78.2464 106.87 78.3322C106.675 78.4093 106.511 78.5378 106.378 78.7176C106.238 78.8951 106.125 79.0971 106.039 79.3236C105.977 79.4873 105.93 79.6569 105.9 79.8325C105.863 80.0057 105.855 80.1758 105.878 80.343C105.897 80.5015 105.951 80.6444 106.039 80.7717C106.13 80.8927 106.264 80.9867 106.44 81.0537C106.591 81.1112 106.738 81.1312 106.882 81.1137C107.019 81.0938 107.15 81.0428 107.275 80.9607C107.396 80.8698 107.512 80.7628 107.624 80.6396C107.825 80.4136 108.014 80.154 108.19 79.8609C108.36 79.5654 108.545 79.2971 108.745 79.0561C108.885 78.8787 109.035 78.7198 109.196 78.5795C109.352 78.4368 109.519 78.3276 109.699 78.252C109.873 78.174 110.061 78.1339 110.264 78.1317C110.46 78.1271 110.671 78.1679 110.898 78.2541C111.269 78.3953 111.562 78.5822 111.776 78.8149C111.984 79.0452 112.123 79.3036 112.194 79.59C112.265 79.8764 112.282 80.1818 112.245 80.5063C112.202 80.8284 112.12 81.15 111.997 81.4709Z" fill="white"/>
<path d="M114.636 72.7955C114.489 73.5146 114.214 74.0872 113.811 74.5133C113.409 74.9329 112.916 75.2101 112.332 75.3449C111.747 75.4798 111.106 75.4758 110.406 75.3329C109.707 75.19 109.112 74.9412 108.621 74.5866C108.131 74.2253 107.784 73.7729 107.579 73.2293C107.369 72.6778 107.337 72.0425 107.484 71.3235C107.59 70.8024 107.769 70.3647 108.02 70.0105C108.265 69.655 108.566 69.3902 108.925 69.2161C109.278 69.0341 109.674 68.9466 110.112 68.9537L109.902 69.9828C109.545 70.013 109.237 70.1596 108.977 70.4226C108.717 70.6856 108.539 71.0546 108.442 71.5296C108.334 72.0573 108.369 72.5077 108.547 72.8808C108.726 73.2474 108.999 73.5436 109.365 73.7697C109.725 73.9943 110.132 74.1532 110.587 74.2462C111.056 74.3419 111.506 74.3551 111.94 74.2856C112.373 74.2161 112.746 74.0414 113.057 73.7614C113.369 73.4815 113.577 73.0842 113.682 72.5697C113.747 72.253 113.761 71.9639 113.725 71.7023C113.683 71.4394 113.596 71.2086 113.465 71.0099C113.327 70.81 113.152 70.6574 112.94 70.5522L113.164 69.4538C113.576 69.6272 113.909 69.8775 114.166 70.2048C114.422 70.532 114.591 70.9137 114.674 71.3498C114.756 71.7859 114.744 72.2678 114.636 72.7955Z" fill="white"/>
<path d="M115.635 66.4918L108.499 66.2552L108.59 63.5096C108.602 63.1261 108.654 62.7775 108.745 62.4639C108.83 62.15 108.964 61.8783 109.146 61.6485C109.322 61.4186 109.557 61.2445 109.851 61.1262C110.144 61.0079 110.503 60.9558 110.927 60.9699C111.311 60.9826 111.638 61.0608 111.91 61.2045C112.181 61.3483 112.404 61.5409 112.578 61.7825C112.752 62.024 112.881 62.2944 112.965 62.5936L115.812 61.1621L115.773 62.3431L113.101 63.6693L113.046 65.3348L115.671 65.4218L115.635 66.4918ZM112.087 65.303L112.135 63.8495C112.143 63.6072 112.134 63.3812 112.107 63.1715C112.074 62.9548 112.013 62.7642 111.924 62.5995C111.829 62.4347 111.698 62.3057 111.533 62.2127C111.361 62.1127 111.14 62.0582 110.871 62.0493C110.562 62.0323 110.314 62.0847 110.128 62.2065C109.936 62.3214 109.799 62.4988 109.717 62.7386C109.628 62.9782 109.578 63.2696 109.566 63.6128L109.513 65.2177L112.087 65.303Z" fill="white"/>
<path d="M115.452 54.6344C115.554 55.3613 115.486 55.9995 115.25 56.5491C115.006 57.0929 114.629 57.533 114.119 57.8693C113.608 58.2056 113.006 58.422 112.312 58.5187C111.612 58.6163 110.971 58.5731 110.388 58.3893C109.804 58.2054 109.324 57.8815 108.947 57.4174C108.563 56.9543 108.32 56.3593 108.219 55.6324C108.117 54.8988 108.184 54.2606 108.421 53.7177C108.658 53.1748 109.032 52.7352 109.542 52.3989C110.053 52.0626 110.658 51.8457 111.359 51.7481C112.052 51.6514 112.69 51.695 113.274 51.8789C113.857 52.0627 114.34 52.3862 114.724 52.8494C115.107 53.3058 115.35 53.9008 115.452 54.6344ZM114.481 54.7596C114.406 54.2261 114.222 53.8065 113.928 53.5008C113.634 53.1951 113.275 52.9901 112.853 52.8858C112.431 52.7816 111.986 52.7619 111.519 52.827C111.166 52.8763 110.836 52.9699 110.528 53.1079C110.22 53.2392 109.956 53.4154 109.735 53.6365C109.515 53.8576 109.355 54.1246 109.256 54.4376C109.156 54.7505 109.134 55.1037 109.189 55.4971C109.262 56.024 109.447 56.4436 109.742 56.7559C110.036 57.0617 110.395 57.27 110.818 57.3809C111.241 57.4919 111.69 57.5144 112.163 57.4484C112.63 57.3833 113.052 57.2429 113.43 57.0271C113.807 56.8046 114.095 56.5061 114.295 56.1316C114.493 55.7504 114.555 55.2931 114.481 54.7596Z" fill="white"/>
<path d="M114.151 47.7682L107.339 49.9073L107.018 48.886L112.896 47.0403L111.752 43.398L112.687 43.1045L114.151 47.7682Z" fill="white"/>
<path d="M111.644 40.2223L105.215 43.3299L104.749 42.366L110.296 39.6848L108.634 36.2476L109.516 35.8213L111.644 40.2223Z" fill="white"/>
<path d="M106.105 29.982L100.556 34.4752L98.9287 32.4657C98.4584 31.8849 98.1795 31.305 98.092 30.7261C97.995 30.1462 98.0754 29.5874 98.333 29.0496C98.5812 28.5108 98.9878 28.0126 99.553 27.555C100.118 27.0974 100.688 26.8007 101.262 26.6649C101.837 26.529 102.4 26.5667 102.952 26.778C103.495 26.9883 104.002 27.3839 104.472 27.9647L106.105 29.982ZM104.67 29.7664L103.742 28.6204C103.395 28.1913 103.027 27.9085 102.639 27.772C102.246 27.6397 101.848 27.6289 101.444 27.7395C101.034 27.8545 100.631 28.0729 100.233 28.3949C99.8457 28.7084 99.5533 29.0535 99.3557 29.43C99.1539 29.8014 99.0768 30.193 99.1244 30.6049C99.1626 31.0159 99.3533 31.4333 99.6965 31.8571L100.643 33.0267L104.67 29.7664Z" fill="white"/>
<path d="M97.4916 20.3718C98.0485 20.8498 98.4202 21.373 98.6067 21.9413C98.7838 22.5104 98.7921 23.0899 98.6317 23.6798C98.4714 24.2698 98.1631 24.8305 97.707 25.3618C97.2466 25.8982 96.7369 26.2904 96.178 26.5383C95.6192 26.7862 95.0447 26.861 94.4547 26.7627C93.8603 26.6695 93.2847 26.3839 92.7278 25.9059C92.1658 25.4235 91.7941 24.9003 91.6126 24.3364C91.4312 23.7725 91.4207 23.1955 91.581 22.6055C91.7414 22.0156 92.0518 21.4524 92.5123 20.9159C92.9684 20.3846 93.4759 19.995 94.0348 19.7471C94.5936 19.4992 95.1703 19.4218 95.7647 19.515C96.3539 19.6038 96.9296 19.8894 97.4916 20.3718ZM96.8458 21.1086C96.4371 20.7577 96.0213 20.565 95.5985 20.5304C95.1757 20.4957 94.7714 20.5791 94.3856 20.7803C93.9999 20.9816 93.6535 21.2611 93.3465 21.6187C93.1141 21.8895 92.9284 22.1782 92.7894 22.4848C92.6453 22.7871 92.5637 23.0941 92.5445 23.4059C92.5252 23.7178 92.582 24.0238 92.7147 24.324C92.8474 24.6243 93.0644 24.9038 93.3659 25.1625C93.7695 25.509 94.1853 25.7017 94.6132 25.7408C95.036 25.7754 95.4428 25.6943 95.8337 25.4974C96.2246 25.3005 96.5757 25.0206 96.8871 24.6579C97.194 24.3003 97.4178 23.9156 97.5583 23.5038C97.6937 23.0876 97.7123 22.6732 97.614 22.2605C97.5106 21.8434 97.2545 21.4594 96.8458 21.1086Z" fill="white"/>
<path d="M91.0267 15.4048L89.1611 22.5487L88.1138 21.9591L89.8085 15.9012L85.5351 20.5075L84.2061 19.7595L85.9361 13.7214L81.6362 18.3128L80.6417 17.753L85.7725 12.4472L87.1279 13.2101L85.4475 19.1602L89.6626 14.6369L91.0267 15.4048Z" fill="white"/>
<path d="M81.6854 10.5009L79.4673 17.2881L78.2865 16.9022L76.6103 10.4892L74.8785 15.7884L73.8705 15.459L76.0886 8.67179L77.2406 9.04827L78.9454 15.4387L80.6678 10.1683L81.6854 10.5009Z" fill="white"/>
</svg>
