<svg width="1440" height="151" viewBox="0 0 1440 151" fill="none" xmlns="http://www.w3.org/2000/svg">
<rect x="-17.8018" y="3.2337" width="1469.93" height="67" transform="rotate(1.95067 -17.8018 3.2337)" fill="#1E1E1E"/>
<path d="M-112.116 44.047L-111.393 22.8193L-106.536 22.9847L-106.826 31.4998L-98.3704 31.7878L-98.0804 23.2727L-93.2232 23.4381L-93.9462 44.6658L-98.8034 44.5004L-98.5226 36.2552L-106.978 35.9672L-107.259 44.2124L-112.116 44.047ZM-80.6707 45.3581C-82.7695 45.2866 -84.4855 44.848 -85.8189 44.0421C-87.1522 43.2363 -88.1235 42.0825 -88.7328 40.5809C-89.322 39.08 -89.5805 37.2701 -89.5084 35.1514L-89.1142 23.5781L-84.257 23.7435L-84.6604 35.5866C-84.6897 36.4461 -84.5877 37.2701 -84.3544 38.0585C-84.1211 38.8469 -83.6931 39.5018 -83.0705 40.0233C-82.4472 40.5248 -81.5759 40.7947 -80.4565 40.8328C-79.3172 40.8716 -78.4492 40.651 -77.8525 40.171C-77.2358 39.6918 -76.8043 39.0661 -76.5578 38.294C-76.2914 37.5226 -76.1439 36.7172 -76.1153 35.8777L-75.712 24.0345L-70.8548 24.2L-71.249 35.7733C-71.3205 37.8721 -71.7012 39.6501 -72.3912 41.1075C-73.0812 42.5648 -74.1091 43.6605 -75.4749 44.3944C-76.84 45.1084 -78.5719 45.4296 -80.6707 45.3581ZM-59.3467 46.0844C-60.8658 46.0326 -62.2669 45.7448 -63.5498 45.2208C-64.832 44.6769 -65.8852 43.8705 -66.7093 42.8019C-67.5127 41.7139 -67.9864 40.347 -68.1305 38.7011L-63.2133 38.8686C-63.0745 39.4937 -62.8017 40.0033 -62.3949 40.3973C-61.9681 40.7921 -61.4479 41.09 -60.8344 41.291C-60.2202 41.472 -59.5633 41.5744 -58.8637 41.5982C-58.384 41.6146 -57.9026 41.5809 -57.4195 41.4973C-56.9357 41.3937 -56.5291 41.2075 -56.1997 40.9385C-55.8704 40.6696 -55.6972 40.2852 -55.6802 39.7855C-55.6673 39.4058 -55.747 39.1029 -55.9194 38.8769C-56.0911 38.6309 -56.3445 38.4321 -56.6795 38.2806C-56.9939 38.1098 -57.3889 37.9563 -57.8646 37.82C-58.1617 37.7299 -58.4691 37.6494 -58.7869 37.5785C-59.1046 37.5077 -59.4121 37.4271 -59.7092 37.337C-60.0063 37.2468 -60.303 37.1467 -60.5995 37.0365C-61.4915 36.786 -62.3425 36.5069 -63.1524 36.1991C-63.9618 35.8714 -64.6784 35.4667 -65.3024 34.9852C-65.9064 34.5044 -66.3756 33.8881 -66.7103 33.1362C-67.0449 32.3844 -67.1934 31.4588 -67.156 30.3595C-67.1199 29.3001 -66.9094 28.4067 -66.5244 27.6794C-66.1187 26.9328 -65.5983 26.3401 -64.963 25.9015C-64.307 25.4436 -63.6052 25.1073 -62.8574 24.8926C-62.089 24.6586 -61.3333 24.5043 -60.5903 24.4295C-59.8274 24.3554 -59.1261 24.3293 -58.4864 24.3511C-57.0673 24.3994 -55.8168 24.7021 -54.7352 25.2593C-53.6335 25.8171 -52.7603 26.6173 -52.1154 27.6599C-51.4498 28.6831 -51.0723 29.9367 -50.9827 31.4206L-55.69 31.2603C-55.7523 30.7378 -55.9475 30.3009 -56.2757 29.9496C-56.584 29.5989 -56.9949 29.3247 -57.5085 29.1271C-58.002 28.9302 -58.5786 28.8205 -59.2383 28.7981C-59.638 28.7844 -60.0292 28.8111 -60.4117 28.8782C-60.7735 28.9259 -61.0967 29.0149 -61.3813 29.1453C-61.6459 29.2764 -61.8723 29.4588 -62.0603 29.6925C-62.2277 29.9069 -62.3172 30.1841 -62.3288 30.5239C-62.341 30.8837 -62.2317 31.1976 -62.0007 31.4656C-61.769 31.7136 -61.4363 31.9351 -61.0027 32.1299C-60.5491 32.3255 -59.9955 32.5244 -59.342 32.7268C-58.8878 32.9024 -58.4225 33.0483 -57.9461 33.1646C-57.4491 33.2615 -56.9732 33.3878 -56.5182 33.5434C-55.6855 33.7719 -54.9241 34.0379 -54.234 34.3416C-53.5233 34.626 -52.9053 34.9872 -52.3799 35.4254C-51.8538 35.8435 -51.4524 36.3975 -51.1757 37.0873C-50.8784 37.7578 -50.7471 38.6028 -50.7818 39.6222C-50.824 40.8615 -51.0896 41.903 -51.5786 42.7469C-52.0669 43.5707 -52.7201 44.2389 -53.538 44.7513C-54.3559 45.2638 -55.2687 45.6229 -56.2762 45.8288C-57.2638 46.0353 -58.2873 46.1205 -59.3467 46.0844ZM-43.4375 46.3861L-42.8676 29.6558L-49.2539 29.4383L-49.1008 24.9409L-31.411 25.5434L-31.5642 30.0408L-38.0105 29.8212L-38.5803 46.5515L-43.4375 46.3861ZM-29.8392 46.8492L-29.1162 25.6215L-24.259 25.787L-24.8298 42.5473L-14.3659 42.9036L-14.5181 47.3711L-29.8392 46.8492ZM-11.8613 47.4615L-11.1383 26.2338L4.5126 26.7669L4.35942 31.2643L-6.43432 30.8967L-6.57116 34.9143L2.51357 35.2238L2.36653 39.5412L-6.71821 39.2318L-6.85198 43.1596L3.94176 43.5272L3.78961 47.9946L-11.8613 47.4615Z" fill="#D9F99D"/>
<path d="M29.5576 22.8572L29.4921 37.1544L36.9265 24.9419L30.2243 37.571L42.4825 30.2123L30.6789 38.2802L44.9528 37.4611L30.7519 39.1194L43.7715 45.0275L30.4266 39.8964L39.2092 51.1783L29.7774 40.4332L32.311 54.5043L28.9531 40.6069L24.6574 54.2436L28.1425 40.3775L18.0015 50.456L27.5314 39.7978L13.8683 44.009L27.2596 39.0004L13.2045 36.3798L27.3896 38.1681L16.1623 29.3159L27.8914 37.4915L22.064 24.4357L28.6502 37.1257L29.5576 22.8572Z" fill="#ECFCCB"/>
<path d="M53.7881 49.6975L54.5111 28.4698L59.3683 28.6352L59.0783 37.1503L67.5334 37.4383L67.8234 28.9232L72.6806 29.0886L71.9576 50.3163L67.1004 50.1509L67.3812 41.9057L58.9261 41.6177L58.6453 49.8629L53.7881 49.6975ZM85.2331 51.0086C83.1343 50.9371 81.4183 50.4984 80.0849 49.6926C78.7516 48.8867 77.7803 47.733 77.1711 46.2314C76.5818 44.7305 76.3233 42.9206 76.3954 40.8019L76.7896 29.2286L81.6468 29.394L81.2434 41.2371C81.2141 42.0966 81.3162 42.9206 81.5495 43.709C81.7828 44.4974 82.2107 45.1523 82.8333 45.6738C83.4566 46.1753 84.3279 46.4451 85.4473 46.4833C86.5866 46.5221 87.4546 46.3015 88.0513 45.8215C88.668 45.3422 89.0995 44.7166 89.346 43.9445C89.6124 43.1731 89.7599 42.3677 89.7885 41.5282L90.1918 29.685L95.049 29.8505L94.6548 41.4237C94.5834 43.5225 94.2026 45.3006 93.5126 46.758C92.8226 48.2153 91.7947 49.311 90.4289 50.0449C89.0638 50.7588 87.3319 51.0801 85.2331 51.0086ZM106.557 51.7349C105.038 51.6831 103.637 51.3953 102.354 50.8713C101.072 50.3273 100.019 49.521 99.1946 48.4524C98.3911 47.3644 97.9174 45.9975 97.7733 44.3516L102.69 44.5191C102.829 45.1442 103.102 45.6537 103.509 46.0478C103.936 46.4426 104.456 46.7404 105.069 46.9414C105.684 47.1225 106.34 47.2249 107.04 47.2487C107.52 47.265 108.001 47.2314 108.484 47.1478C108.968 47.0442 109.375 46.8579 109.704 46.589C110.033 46.3201 110.207 45.9357 110.224 45.436C110.237 45.0562 110.157 44.7534 109.984 44.5274C109.813 44.2814 109.559 44.0826 109.224 43.9311C108.91 43.7603 108.515 43.6068 108.039 43.4705C107.742 43.3804 107.435 43.2999 107.117 43.229C106.799 43.1581 106.492 43.0776 106.195 42.9875C105.898 42.8973 105.601 42.7971 105.304 42.687C104.412 42.4365 103.561 42.1573 102.751 41.8496C101.942 41.5219 101.225 41.1172 100.601 40.6357C99.9975 40.1549 99.5282 39.5385 99.1936 38.7867C98.859 38.0349 98.7104 37.1093 98.7478 36.0099C98.7839 34.9505 98.9944 34.0572 99.3794 33.3299C99.7851 32.5833 100.306 31.9906 100.941 31.552C101.597 31.0941 102.299 30.7578 103.046 30.5431C103.815 30.3091 104.57 30.1547 105.313 30.08C106.076 30.0059 106.778 29.9798 107.417 30.0016C108.837 30.0499 110.087 30.3526 111.169 30.9098C112.27 31.4676 113.144 32.2678 113.788 33.3103C114.454 34.3336 114.832 35.5872 114.921 37.0711L110.214 36.9107C110.152 36.3883 109.956 35.9514 109.628 35.6C109.32 35.2494 108.909 34.9752 108.395 34.7776C107.902 34.5807 107.325 34.471 106.666 34.4485C106.266 34.4349 105.875 34.4616 105.492 34.5286C105.13 34.5764 104.807 34.6654 104.522 34.7958C104.258 34.9269 104.032 35.1093 103.843 35.343C103.676 35.5574 103.587 35.8345 103.575 36.1743C103.563 36.5341 103.672 36.848 103.903 37.1161C104.135 37.3641 104.468 37.5855 104.901 37.7804C105.355 37.976 105.908 38.1749 106.562 38.3773C107.016 38.5528 107.481 38.6988 107.958 38.8151C108.455 38.912 108.931 39.0383 109.386 39.1939C110.218 39.4224 110.98 39.6884 111.67 39.9921C112.38 40.2764 112.999 40.6377 113.524 41.0758C114.05 41.494 114.451 42.048 114.728 42.7378C115.025 43.4083 115.157 44.2533 115.122 45.2727C115.08 46.5119 114.814 47.5535 114.325 48.3974C113.837 49.2212 113.184 49.8894 112.366 50.4018C111.548 50.9143 110.635 51.2734 109.628 51.4792C108.64 51.6857 107.616 51.7709 106.557 51.7349ZM122.466 52.0366L123.036 35.3063L116.65 35.0888L116.803 30.5914L134.493 31.1939L134.34 35.6913L127.893 35.4717L127.324 52.202L122.466 52.0366ZM136.065 52.4997L136.788 31.272L141.645 31.4375L141.074 48.1977L151.538 48.5541L151.386 53.0215L136.065 52.4997ZM154.042 53.112L154.765 31.8843L170.416 32.4174L170.263 36.9148L159.469 36.5471L159.333 40.5648L168.417 40.8742L168.27 45.1917L159.186 44.8823L159.052 48.81L169.846 49.1777L169.693 53.6451L154.042 53.112Z" fill="#D9F99D"/>
<path d="M195.461 28.5076L195.396 42.8048L202.83 30.5923L196.128 43.2214L208.386 35.8628L196.583 43.9306L210.857 43.1115L196.656 44.7698L209.675 50.678L196.33 45.5469L205.113 56.8287L195.681 46.0837L198.215 60.1547L194.857 46.2573L190.561 59.8941L194.046 46.028L183.905 56.1064L193.435 45.4482L179.772 49.6595L193.163 44.6509L179.108 42.0302L193.293 43.8186L182.066 34.9663L193.795 43.142L187.968 30.0861L194.554 42.7761L195.461 28.5076Z" fill="#ECFCCB"/>
<path d="M219.692 55.3479L220.415 34.1202L225.272 34.2857L224.982 42.8007L233.437 43.0887L233.727 34.5736L238.584 34.7391L237.861 55.9668L233.004 55.8013L233.285 47.5561L224.83 47.2681L224.549 55.5134L219.692 55.3479ZM251.137 56.6591C249.038 56.5876 247.322 56.1489 245.989 55.343C244.655 54.5372 243.684 53.3835 243.075 51.8819C242.486 50.3809 242.227 48.5711 242.299 46.4523L242.693 34.879L247.551 35.0444L247.147 46.8876C247.118 47.7471 247.22 48.571 247.453 49.3594C247.687 50.1478 248.115 50.8028 248.737 51.3243C249.36 51.8258 250.232 52.0956 251.351 52.1337C252.49 52.1725 253.358 51.9519 253.955 51.472C254.572 50.9927 255.003 50.367 255.25 49.595C255.516 48.8236 255.664 48.0181 255.692 47.1786L256.096 35.3355L260.953 35.5009L260.559 47.0742C260.487 49.173 260.106 50.9511 259.416 52.4084C258.726 53.8658 257.699 54.9614 256.333 55.6954C254.968 56.4093 253.236 56.7305 251.137 56.6591ZM272.461 57.3853C270.942 57.3336 269.541 57.0457 268.258 56.5218C266.976 55.9778 265.922 55.1715 265.098 54.1028C264.295 53.0148 263.821 51.6479 263.677 50.002L268.594 50.1695C268.733 50.7946 269.006 51.3042 269.413 51.6983C269.84 52.093 270.36 52.3909 270.973 52.5919C271.587 52.7729 272.244 52.8753 272.944 52.8992C273.424 52.9155 273.905 52.8819 274.388 52.7983C274.872 52.6947 275.279 52.5084 275.608 52.2395C275.937 51.9705 276.11 51.5862 276.127 51.0865C276.14 50.7067 276.061 50.4038 275.888 50.1778C275.716 49.9318 275.463 49.7331 275.128 49.5816C274.814 49.4108 274.419 49.2572 273.943 49.121C273.646 49.0308 273.339 48.9503 273.021 48.8794C272.703 48.8086 272.396 48.7281 272.098 48.6379C271.801 48.5477 271.505 48.4476 271.208 48.3374C270.316 48.0869 269.465 47.8078 268.655 47.5C267.846 47.1723 267.129 46.7677 266.505 46.2862C265.901 45.8053 265.432 45.189 265.097 44.4372C264.763 43.6853 264.614 42.7597 264.652 41.6604C264.688 40.601 264.898 39.7076 265.283 38.9803C265.689 38.2337 266.209 37.6411 266.845 37.2024C267.501 36.7445 268.202 36.4082 268.95 36.1935C269.719 35.9596 270.474 35.8052 271.217 35.7304C271.98 35.6564 272.682 35.6302 273.321 35.652C274.74 35.7003 275.991 36.0031 277.072 36.5602C278.174 37.118 279.047 37.9182 279.692 38.9608C280.358 39.984 280.735 41.2376 280.825 42.7215L276.118 42.5612C276.055 42.0388 275.86 41.6019 275.532 41.2505C275.224 40.8998 274.813 40.6257 274.299 40.4281C273.806 40.2311 273.229 40.1215 272.569 40.099C272.17 40.0854 271.778 40.1121 271.396 40.1791C271.034 40.2268 270.711 40.3159 270.426 40.4462C270.162 40.5773 269.935 40.7597 269.747 40.9934C269.58 41.2079 269.49 41.485 269.479 41.8248C269.467 42.1846 269.576 42.4985 269.807 42.7665C270.039 43.0145 270.371 43.236 270.805 43.4309C271.259 43.6264 271.812 43.8254 272.466 44.0277C272.92 44.2033 273.385 44.3492 273.861 44.4655C274.358 44.5625 274.834 44.6888 275.289 44.8443C276.122 45.0728 276.884 45.3389 277.574 45.6425C278.284 45.9269 278.902 46.2881 279.428 46.7263C279.954 47.1444 280.355 47.6984 280.632 48.3882C280.929 49.0587 281.061 49.9037 281.026 50.9231C280.984 52.1624 280.718 53.204 280.229 54.0478C279.741 54.8717 279.088 55.5398 278.27 56.0523C277.452 56.5647 276.539 56.9239 275.531 57.1297C274.544 57.3362 273.52 57.4214 272.461 57.3853ZM288.37 57.687L288.94 40.9567L282.554 40.7392L282.707 36.2418L300.397 36.8443L300.243 41.3417L293.797 41.1222L293.227 57.8525L288.37 57.687ZM301.968 58.1502L302.691 36.9225L307.549 37.0879L306.978 53.8482L317.442 54.2046L317.29 58.672L301.968 58.1502ZM319.946 58.7625L320.669 37.5348L336.32 38.0678L336.167 42.5652L325.373 42.1976L325.236 46.2153L334.321 46.5247L334.174 50.8422L325.089 50.5328L324.956 54.4605L335.749 54.8281L335.597 59.2955L319.946 58.7625Z" fill="#D9F99D"/>
<path d="M362.864 34.2091L362.812 48.5068L370.466 36.3018L363.568 48.9242L376.201 41.5783L364.037 49.6339L378.756 48.8299L364.113 50.4732L377.546 56.3954L363.779 51.2499L372.847 62.5415L363.11 51.7861L365.737 65.8603L362.26 51.9588L357.845 65.5915L361.424 51.7287L350.977 61.7967L360.793 51.1482L346.708 55.3451L360.512 50.3506L346.015 47.7148L360.645 49.5184L349.058 40.6539L361.162 48.8423L355.139 35.7798L361.944 48.4772L362.864 34.2091Z" fill="#ECFCCB"/>
<path d="M387.595 61.0665L388.318 39.8388L393.175 40.0042L392.885 48.5193L401.34 48.8073L401.63 40.2922L406.487 40.4576L405.764 61.6853L400.907 61.5199L401.188 53.2747L392.733 52.9867L392.452 61.2319L387.595 61.0665ZM419.04 62.3776C416.941 62.3061 415.225 61.8675 413.892 61.0616C412.558 60.2558 411.587 59.102 410.978 57.6004C410.388 56.0995 410.13 54.2896 410.202 52.1709L410.596 40.5976L415.453 40.763L415.05 52.6061C415.021 53.4657 415.123 54.2896 415.356 55.078C415.589 55.8664 416.017 56.5213 416.64 57.0428C417.263 57.5443 418.135 57.8142 419.254 57.8523C420.393 57.8911 421.261 57.6705 421.858 57.1905C422.475 56.7113 422.906 56.0856 423.153 55.3135C423.419 54.5421 423.567 53.7367 423.595 52.8972L423.998 41.054L428.856 41.2195L428.461 52.7928C428.39 54.8916 428.009 56.6696 427.319 58.127C426.629 59.5843 425.601 60.68 424.236 61.4139C422.87 62.1279 421.139 62.4491 419.04 62.3776ZM440.364 63.1039C438.845 63.0521 437.444 62.7643 436.161 62.2403C434.878 61.6964 433.825 60.89 433.001 59.8214C432.198 58.7334 431.724 57.3665 431.58 55.7206L436.497 55.8881C436.636 56.5132 436.909 57.0228 437.316 57.4168C437.742 57.8116 438.263 58.1095 438.876 58.3105C439.49 58.4915 440.147 58.5939 440.847 58.6177C441.326 58.6341 441.808 58.6004 442.291 58.5168C442.775 58.4132 443.181 58.227 443.511 57.958C443.84 57.6891 444.013 57.3047 444.03 56.805C444.043 56.4253 443.963 56.1224 443.791 55.8964C443.619 55.6504 443.366 55.4516 443.031 55.3001C442.717 55.1294 442.322 54.9758 441.846 54.8395C441.549 54.7494 441.241 54.6689 440.924 54.598C440.606 54.5272 440.298 54.4466 440.001 54.3565C439.704 54.2663 439.407 54.1662 439.111 54.056C438.219 53.8055 437.368 53.5264 436.558 53.2186C435.749 52.8909 435.032 52.4862 434.408 52.0047C433.804 51.5239 433.335 50.9076 433 50.1557C432.666 49.4039 432.517 48.4783 432.554 47.379C432.591 46.3196 432.801 45.4262 433.186 44.6989C433.592 43.9523 434.112 43.3596 434.747 42.921C435.403 42.4631 436.105 42.1268 436.853 41.9121C437.621 41.6781 438.377 41.5238 439.12 41.449C439.883 41.3749 440.584 41.3488 441.224 41.3706C442.643 41.4189 443.894 41.7216 444.975 42.2788C446.077 42.8366 446.95 43.6368 447.595 44.6794C448.261 45.7026 448.638 46.9562 448.728 48.4401L444.02 48.2798C443.958 47.7573 443.763 47.3204 443.435 46.9691C443.126 46.6184 442.716 46.3442 442.202 46.1466C441.708 45.9497 441.132 45.84 440.472 45.8176C440.072 45.8039 439.681 45.8306 439.299 45.8977C438.937 45.9454 438.614 46.0344 438.329 46.1648C438.065 46.2959 437.838 46.4783 437.65 46.712C437.483 46.9264 437.393 47.2036 437.382 47.5434C437.369 47.9032 437.479 48.2171 437.71 48.4851C437.941 48.7331 438.274 48.9546 438.708 49.1494C439.161 49.345 439.715 49.5439 440.368 49.7463C440.823 49.9219 441.288 50.0678 441.764 50.1841C442.261 50.281 442.737 50.4073 443.192 50.5629C444.025 50.7914 444.786 51.0574 445.476 51.3611C446.187 51.6455 446.805 52.0067 447.331 52.4449C447.857 52.863 448.258 53.417 448.535 54.1068C448.832 54.7773 448.963 55.6223 448.929 56.6417C448.886 57.881 448.621 58.9225 448.132 59.7664C447.644 60.5902 446.99 61.2584 446.172 61.7708C445.355 62.2833 444.442 62.6424 443.434 62.8483C442.447 63.0548 441.423 63.14 440.364 63.1039ZM456.273 63.4056L456.843 46.6753L450.457 46.4578L450.61 41.9604L468.299 42.5629L468.146 47.0603L461.7 46.8407L461.13 63.571L456.273 63.4056ZM469.871 63.8687L470.594 42.641L475.451 42.8065L474.881 59.5668L485.345 59.9231L485.192 64.3906L469.871 63.8687ZM487.849 64.481L488.572 43.2533L504.223 43.7864L504.07 48.2838L493.276 47.9162L493.139 51.9338L502.224 52.2433L502.077 56.5608L492.992 56.2513L492.858 60.1791L503.652 60.5467L503.5 65.0141L487.849 64.481Z" fill="#D9F99D"/>
<path d="M530.767 39.9277L530.715 54.2253L538.368 42.0204L531.47 54.6428L544.103 47.2969L531.94 55.3525L546.659 54.5485L532.016 56.1918L545.448 62.114L531.681 56.9685L540.75 68.2601L531.013 57.5046L533.64 71.5789L530.163 57.6774L525.747 71.3101L529.327 57.4472L518.88 67.5152L528.696 56.8668L514.611 61.0637L528.415 56.0691L513.918 53.4334L528.548 55.2369L516.961 46.3724L529.065 54.5608L523.041 41.4983L529.847 54.1958L530.767 39.9277Z" fill="#ECFCCB"/>
<path d="M555.497 66.785L556.22 45.5573L561.077 45.7228L560.787 54.2378L569.242 54.5258L569.532 46.0107L574.39 46.1762L573.667 67.4039L568.809 67.2384L569.09 58.9932L560.635 58.7052L560.354 66.9505L555.497 66.785ZM586.942 68.0962C584.843 68.0247 583.127 67.586 581.794 66.7802C580.461 65.9743 579.489 64.8206 578.88 63.319C578.291 61.818 578.032 60.0082 578.104 57.8894L578.499 46.3161L583.356 46.4816L582.952 58.3247C582.923 59.1842 583.025 60.0081 583.258 60.7965C583.492 61.5849 583.92 62.2399 584.542 62.7614C585.166 63.2629 586.037 63.5327 587.156 63.5708C588.296 63.6096 589.164 63.389 589.76 62.9091C590.377 62.4298 590.809 61.8041 591.055 61.0321C591.321 60.2607 591.469 59.4552 591.497 58.6157L591.901 46.7726L596.758 46.938L596.364 58.5113C596.292 60.6101 595.912 62.3882 595.222 63.8455C594.532 65.3029 593.504 66.3985 592.138 67.1325C590.773 67.8464 589.041 68.1676 586.942 68.0962ZM608.266 68.8224C606.747 68.7707 605.346 68.4828 604.063 67.9589C602.781 67.4149 601.728 66.6086 600.904 65.5399C600.1 64.4519 599.626 63.085 599.482 61.4392L604.399 61.6066C604.538 62.2317 604.811 62.7413 605.218 63.1354C605.645 63.5301 606.165 63.828 606.778 64.029C607.393 64.21 608.049 64.3124 608.749 64.3363C609.229 64.3526 609.71 64.319 610.193 64.2354C610.677 64.1318 611.084 63.9455 611.413 63.6766C611.742 63.4076 611.916 63.0233 611.933 62.5236C611.946 62.1438 611.866 61.8409 611.693 61.6149C611.522 61.3689 611.268 61.1702 610.933 61.0187C610.619 60.8479 610.224 60.6944 609.748 60.5581C609.451 60.4679 609.144 60.3874 608.826 60.3165C608.508 60.2457 608.201 60.1652 607.904 60.075C607.607 59.9848 607.31 59.8847 607.013 59.7745C606.121 59.524 605.27 59.2449 604.46 58.9371C603.651 58.6094 602.934 58.2048 602.31 57.7233C601.706 57.2424 601.237 56.6261 600.903 55.8743C600.568 55.1224 600.419 54.1969 600.457 53.0975C600.493 52.0381 600.703 51.1448 601.088 50.4174C601.494 49.6708 602.015 49.0782 602.65 48.6396C603.306 48.1816 604.008 47.8453 604.755 47.6306C605.524 47.3967 606.279 47.2423 607.022 47.1675C607.785 47.0935 608.487 47.0673 609.126 47.0891C610.546 47.1374 611.796 47.4402 612.878 47.9973C613.979 48.5551 614.853 49.3553 615.497 50.3979C616.163 51.4211 616.541 52.6747 616.63 54.1586L611.923 53.9983C611.861 53.4759 611.665 53.039 611.337 52.6876C611.029 52.3369 610.618 52.0628 610.104 51.8652C609.611 51.6683 609.034 51.5586 608.375 51.5361C607.975 51.5225 607.584 51.5492 607.201 51.6162C606.839 51.6639 606.516 51.753 606.231 51.8833C605.967 52.0144 605.741 52.1968 605.552 52.4306C605.385 52.645 605.296 52.9221 605.284 53.2619C605.272 53.6217 605.381 53.9356 605.612 54.2036C605.844 54.4516 606.176 54.6731 606.61 54.868C607.064 55.0635 607.617 55.2625 608.271 55.4648C608.725 55.6404 609.19 55.7863 609.667 55.9026C610.164 55.9996 610.64 56.1259 611.095 56.2814C611.927 56.5099 612.689 56.776 613.379 57.0796C614.089 57.364 614.708 57.7253 615.233 58.1634C615.759 58.5815 616.16 59.1355 616.437 59.8253C616.734 60.4958 616.866 61.3408 616.831 62.3602C616.789 63.5995 616.523 64.6411 616.034 65.4849C615.546 66.3088 614.893 66.9769 614.075 67.4894C613.257 68.0018 612.344 68.361 611.337 68.5668C610.349 68.7733 609.325 68.8585 608.266 68.8224ZM624.175 69.1241L624.745 52.3938L618.359 52.1763L618.512 47.6789L636.202 48.2814L636.049 52.7788L629.602 52.5593L629.033 69.2896L624.175 69.1241ZM637.774 69.5873L638.497 48.3596L643.354 48.525L642.783 65.2853L653.247 65.6417L653.095 70.1091L637.774 69.5873ZM655.751 70.1996L656.474 48.9719L672.125 49.5049L671.972 54.0023L661.178 53.6347L661.042 57.6524L670.126 57.9618L669.979 62.2793L660.895 61.9699L660.761 65.8976L671.555 66.2652L671.402 70.7326L655.751 70.1996Z" fill="#D9F99D"/>
<path d="M698.67 45.6462L698.617 59.9439L706.271 47.7389L699.373 60.3613L712.006 53.0154L699.842 61.071L714.561 60.267L699.919 61.9103L713.351 67.8325L699.584 62.687L708.653 73.9786L698.915 63.2232L701.543 77.2974L698.065 63.3959L693.65 77.0286L697.229 63.1658L686.782 73.2338L696.598 62.5853L682.513 66.7822L696.317 61.7877L681.82 59.1519L696.45 60.9555L684.863 52.091L696.967 60.2794L690.944 47.2169L697.749 59.9143L698.67 45.6462Z" fill="#ECFCCB"/>
<path d="M723.4 72.5036L724.123 51.2759L728.98 51.4413L728.69 59.9564L737.145 60.2444L737.435 51.7293L742.292 51.8947L741.569 73.1224L736.712 72.957L736.993 64.7118L728.538 64.4238L728.257 72.669L723.4 72.5036ZM754.845 73.8147C752.746 73.7432 751.03 73.3046 749.697 72.4987C748.363 71.6929 747.392 70.5391 746.783 69.0375C746.194 67.5366 745.935 65.7268 746.007 63.608L746.401 52.0347L751.259 52.2001L750.855 64.0433C750.826 64.9028 750.928 65.7267 751.161 66.5151C751.395 67.3035 751.823 67.9584 752.445 68.4799C753.068 68.9814 753.94 69.2513 755.059 69.2894C756.198 69.3282 757.066 69.1076 757.663 68.6276C758.28 68.1484 758.711 67.5227 758.958 66.7506C759.224 65.9792 759.372 65.1738 759.4 64.3343L759.804 52.4912L764.661 52.6566L764.267 64.2299C764.195 66.3287 763.814 68.1067 763.124 69.5641C762.434 71.0214 761.407 72.1171 760.041 72.851C758.676 73.565 756.944 73.8862 754.845 73.8147ZM776.169 74.541C774.65 74.4892 773.249 74.2014 771.966 73.6774C770.684 73.1335 769.63 72.3271 768.806 71.2585C768.003 70.1705 767.529 68.8036 767.385 67.1577L772.302 67.3252C772.441 67.9503 772.714 68.4599 773.121 68.8539C773.548 69.2487 774.068 69.5466 774.681 69.7476C775.295 69.9286 775.952 70.031 776.652 70.0548C777.132 70.0712 777.613 70.0375 778.096 69.9539C778.58 69.8503 778.987 69.6641 779.316 69.3951C779.645 69.1262 779.818 68.7419 779.835 68.2421C779.848 67.8624 779.769 67.5595 779.596 67.3335C779.424 67.0875 779.171 66.8887 778.836 66.7373C778.522 66.5665 778.127 66.4129 777.651 66.2766C777.354 66.1865 777.047 66.106 776.729 66.0351C776.411 65.9643 776.104 65.8837 775.806 65.7936C775.509 65.7034 775.213 65.6033 774.916 65.4931C774.024 65.2426 773.173 64.9635 772.363 64.6557C771.554 64.328 770.837 63.9233 770.213 63.4418C769.609 62.961 769.14 62.3447 768.805 61.5928C768.471 60.841 768.322 59.9154 768.36 58.8161C768.396 57.7567 768.606 56.8633 768.991 56.136C769.397 55.3894 769.917 54.7967 770.553 54.3581C771.209 53.9002 771.91 53.5639 772.658 53.3492C773.427 53.1152 774.182 52.9609 774.925 52.8861C775.688 52.812 776.39 52.7859 777.029 52.8077C778.448 52.856 779.699 53.1587 780.78 53.7159C781.882 54.2737 782.755 55.0739 783.4 56.1165C784.066 57.1397 784.443 58.3933 784.533 59.8772L779.826 59.7169C779.763 59.1944 779.568 58.7575 779.24 58.4062C778.932 58.0555 778.521 57.7813 778.007 57.5837C777.514 57.3868 776.937 57.2771 776.277 57.2547C775.878 57.241 775.486 57.2677 775.104 57.3348C774.742 57.3825 774.419 57.4715 774.134 57.6019C773.87 57.733 773.643 57.9154 773.455 58.1491C773.288 58.3635 773.198 58.6407 773.187 58.9805C773.175 59.3403 773.284 59.6542 773.515 59.9222C773.747 60.1702 774.079 60.3917 774.513 60.5865C774.967 60.7821 775.52 60.981 776.174 61.1834C776.628 61.359 777.093 61.5049 777.569 61.6212C778.066 61.7181 778.542 61.8444 778.997 62C779.83 62.2285 780.592 62.4945 781.282 62.7982C781.992 63.0826 782.61 63.4438 783.136 63.882C783.662 64.3001 784.063 64.8541 784.34 65.5439C784.637 66.2144 784.769 67.0594 784.734 68.0788C784.692 69.3181 784.426 70.3596 783.937 71.2035C783.449 72.0273 782.796 72.6955 781.978 73.2079C781.16 73.7204 780.247 74.0795 779.239 74.2854C778.252 74.4919 777.228 74.5771 776.169 74.541ZM792.078 74.8427L792.648 58.1124L786.262 57.8949L786.415 53.3975L804.105 54L803.951 58.4974L797.505 58.2778L796.935 75.0081L792.078 74.8427ZM805.676 75.3058L806.399 54.0781L811.257 54.2436L810.686 71.0039L821.15 71.3602L820.998 75.8277L805.676 75.3058ZM823.654 75.9181L824.377 54.6904L840.028 55.2235L839.875 59.7209L829.081 59.3533L828.944 63.3709L838.029 63.6804L837.882 67.9979L828.797 67.6884L828.664 71.6162L839.457 71.9838L839.305 76.4512L823.654 75.9181Z" fill="#D9F99D"/>
<path d="M866.572 51.3648L866.52 65.6625L874.174 53.4575L867.276 66.0799L879.909 58.734L867.745 66.7896L882.464 65.9856L867.821 67.6289L881.254 73.5511L867.487 68.4056L876.555 79.6972L866.818 68.9417L869.445 83.016L865.968 69.1145L861.553 82.7472L865.132 68.8843L854.685 78.9523L864.501 68.3039L850.416 72.5008L864.22 67.5062L849.723 64.8705L864.353 66.674L852.766 57.8095L864.87 65.9979L858.847 52.9354L865.652 65.6329L866.572 51.3648Z" fill="#ECFCCB"/>
<path d="M891.302 78.2221L892.025 56.9944L896.882 57.1599L896.592 65.6749L905.048 65.9629L905.338 57.4478L910.195 57.6133L909.472 78.841L904.615 78.6755L904.895 70.4303L896.44 70.1424L896.159 78.3876L891.302 78.2221ZM922.747 79.5333C920.648 79.4618 918.932 79.0231 917.599 78.2173C916.266 77.4114 915.294 76.2577 914.685 74.7561C914.096 73.2551 913.837 71.4453 913.91 69.3265L914.304 57.7532L919.161 57.9187L918.758 69.7618C918.728 70.6213 918.83 71.4452 919.064 72.2336C919.297 73.022 919.725 73.677 920.347 74.1985C920.971 74.7 921.842 74.9698 922.961 75.0079C924.101 75.0467 924.969 74.8261 925.565 74.3462C926.182 73.8669 926.614 73.2412 926.86 72.4692C927.127 71.6978 927.274 70.8923 927.303 70.0528L927.706 58.2097L932.563 58.3751L932.169 69.9484C932.098 72.0472 931.717 73.8253 931.027 75.2826C930.337 76.74 929.309 77.8356 927.943 78.5696C926.578 79.2835 924.846 79.6047 922.747 79.5333ZM944.071 80.2595C942.552 80.2078 941.151 79.9199 939.868 79.396C938.586 78.852 937.533 78.0457 936.709 76.977C935.905 75.889 935.432 74.5221 935.287 72.8763L940.205 73.0437C940.343 73.6688 940.616 74.1784 941.023 74.5725C941.45 74.9672 941.97 75.2651 942.584 75.4661C943.198 75.6471 943.855 75.7495 944.554 75.7734C945.034 75.7897 945.515 75.7561 945.998 75.6725C946.482 75.5689 946.889 75.3826 947.218 75.1137C947.548 74.8447 947.721 74.4604 947.738 73.9607C947.751 73.5809 947.671 73.278 947.499 73.052C947.327 72.806 947.073 72.6073 946.738 72.4558C946.424 72.285 946.029 72.1315 945.553 71.9952C945.256 71.905 944.949 71.8245 944.631 71.7537C944.313 71.6828 944.006 71.6023 943.709 71.5121C943.412 71.422 943.115 71.3218 942.818 71.2116C941.927 70.9611 941.076 70.682 940.266 70.3743C939.456 70.0465 938.74 69.6419 938.116 69.1604C937.512 68.6795 937.042 68.0632 936.708 67.3114C936.373 66.5595 936.225 65.634 936.262 64.5346C936.298 63.4752 936.509 62.5819 936.894 61.8545C937.299 61.1079 937.82 60.5153 938.455 60.0767C939.111 59.6187 939.813 59.2824 940.561 59.0677C941.329 58.8338 942.085 58.6794 942.828 58.6046C943.591 58.5306 944.292 58.5044 944.932 58.5262C946.351 58.5745 947.601 58.8773 948.683 59.4344C949.784 59.9922 950.658 60.7924 951.303 61.835C951.968 62.8582 952.346 64.1118 952.435 65.5957L947.728 65.4354C947.666 64.913 947.47 64.4761 947.142 64.1247C946.834 63.774 946.423 63.4999 945.91 63.3023C945.416 63.1054 944.839 62.9957 944.18 62.9732C943.78 62.9596 943.389 62.9863 943.006 63.0533C942.644 63.101 942.321 63.1901 942.037 63.3205C941.772 63.4515 941.546 63.6339 941.358 63.8677C941.19 64.0821 941.101 64.3592 941.089 64.699C941.077 65.0588 941.186 65.3727 941.417 65.6407C941.649 65.8887 941.982 66.1102 942.415 66.3051C942.869 66.5006 943.422 66.6996 944.076 66.9019C944.53 67.0775 944.996 67.2234 945.472 67.3397C945.969 67.4367 946.445 67.563 946.9 67.7185C947.732 67.947 948.494 68.2131 949.184 68.5167C949.895 68.8011 950.513 69.1624 951.038 69.6005C951.564 70.0186 951.966 70.5726 952.242 71.2624C952.54 71.933 952.671 72.7779 952.636 73.7973C952.594 75.0366 952.328 76.0782 951.839 76.922C951.351 77.7459 950.698 78.414 949.88 78.9265C949.062 79.4389 948.149 79.7981 947.142 80.0039C946.154 80.2104 945.131 80.2956 944.071 80.2595ZM959.981 80.5612L960.55 63.8309L954.164 63.6134L954.317 59.116L972.007 59.7185L971.854 64.2159L965.408 63.9964L964.838 80.7267L959.981 80.5612ZM973.579 81.0244L974.302 59.7967L979.159 59.9621L978.588 76.7224L989.052 77.0788L988.9 81.5462L973.579 81.0244ZM991.557 81.6367L992.28 60.409L1007.93 60.942L1007.78 65.4394L996.984 65.0718L996.847 69.0895L1005.93 69.3989L1005.78 73.7164L996.7 73.407L996.566 77.3347L1007.36 77.7023L1007.21 82.1697L991.557 81.6367Z" fill="#D9F99D"/>
<path d="M1034.47 57.0833L1034.42 71.381L1042.08 59.176L1035.18 71.7984L1047.81 64.4525L1035.65 72.5081L1050.37 71.7041L1035.72 73.3474L1049.16 79.2696L1035.39 74.1241L1044.46 85.4157L1034.72 74.6603L1037.35 88.7345L1033.87 74.8331L1029.45 88.4657L1033.03 74.6029L1022.59 84.6709L1032.4 74.0224L1018.32 78.2193L1032.12 73.2248L1017.63 70.5891L1032.26 72.3926L1020.67 63.5281L1032.77 71.7165L1026.75 58.654L1033.55 71.3514L1034.47 57.0833Z" fill="#ECFCCB"/>
<path d="M1059.21 83.9407L1059.93 62.713L1064.79 62.8784L1064.5 71.3935L1072.95 71.6815L1073.24 63.1664L1078.1 63.3318L1077.37 84.5595L1072.52 84.3941L1072.8 76.1489L1064.34 75.8609L1064.06 84.1061L1059.21 83.9407ZM1090.65 85.2518C1088.55 85.1803 1086.84 84.7417 1085.5 83.9358C1084.17 83.13 1083.2 81.9762 1082.59 80.4746C1082 78.9737 1081.74 77.1639 1081.81 75.0451L1082.21 63.4718L1087.06 63.6372L1086.66 75.4804C1086.63 76.3399 1086.73 77.1638 1086.97 77.9522C1087.2 78.7406 1087.63 79.3956 1088.25 79.917C1088.87 80.4186 1089.74 80.6884 1090.86 80.7265C1092 80.7653 1092.87 80.5447 1093.47 80.0647C1094.08 79.5855 1094.52 78.9598 1094.76 78.1877C1095.03 77.4163 1095.18 76.6109 1095.21 75.7714L1095.61 63.9283L1100.47 64.0937L1100.07 75.667C1100 77.7658 1099.62 79.5438 1098.93 81.0012C1098.24 82.4585 1097.21 83.5542 1095.85 84.2881C1094.48 85.0021 1092.75 85.3233 1090.65 85.2518ZM1111.97 85.9781C1110.45 85.9264 1109.05 85.6385 1107.77 85.1145C1106.49 84.5706 1105.44 83.7642 1104.61 82.6956C1103.81 81.6076 1103.33 80.2407 1103.19 78.5948L1108.11 78.7623C1108.25 79.3874 1108.52 79.897 1108.93 80.291C1109.35 80.6858 1109.87 80.9837 1110.49 81.1847C1111.1 81.3657 1111.76 81.4681 1112.46 81.4919C1112.94 81.5083 1113.42 81.4746 1113.9 81.391C1114.39 81.2874 1114.79 81.1012 1115.12 80.8322C1115.45 80.5633 1115.62 80.179 1115.64 79.6792C1115.65 79.2995 1115.57 78.9966 1115.4 78.7706C1115.23 78.5246 1114.98 78.3258 1114.64 78.1744C1114.33 78.0036 1113.93 77.85 1113.46 77.7138C1113.16 77.6236 1112.85 77.5431 1112.53 77.4722C1112.22 77.4014 1111.91 77.3208 1111.61 77.2307C1111.31 77.1405 1111.02 77.0404 1110.72 76.9302C1109.83 76.6797 1108.98 76.4006 1108.17 76.0928C1107.36 75.7651 1106.64 75.3605 1106.02 74.8789C1105.41 74.3981 1104.95 73.7818 1104.61 73.0299C1104.28 72.2781 1104.13 71.3525 1104.16 70.2532C1104.2 69.1938 1104.41 68.3004 1104.8 67.5731C1105.2 66.8265 1105.72 66.2339 1106.36 65.7952C1107.01 65.3373 1107.72 65.001 1108.46 64.7863C1109.23 64.5523 1109.99 64.398 1110.73 64.3232C1111.49 64.2491 1112.19 64.223 1112.83 64.2448C1114.25 64.2931 1115.5 64.5959 1116.59 65.153C1117.69 65.7108 1118.56 66.511 1119.21 67.5536C1119.87 68.5768 1120.25 69.8304 1120.34 71.3143L1115.63 71.154C1115.57 70.6315 1115.37 70.1946 1115.05 69.8433C1114.74 69.4926 1114.33 69.2184 1113.81 69.0208C1113.32 68.8239 1112.74 68.7142 1112.08 68.6918C1111.68 68.6781 1111.29 68.7049 1110.91 68.7719C1110.55 68.8196 1110.22 68.9086 1109.94 69.039C1109.67 69.1701 1109.45 69.3525 1109.26 69.5862C1109.09 69.8006 1109 70.0778 1108.99 70.4176C1108.98 70.7774 1109.09 71.0913 1109.32 71.3593C1109.55 71.6073 1109.88 71.8288 1110.32 72.0236C1110.77 72.2192 1111.33 72.4181 1111.98 72.6205C1112.43 72.7961 1112.9 72.942 1113.37 73.0583C1113.87 73.1553 1114.35 73.2815 1114.8 73.4371C1115.64 73.6656 1116.4 73.9317 1117.09 74.2353C1117.8 74.5197 1118.42 74.8809 1118.94 75.3191C1119.47 75.7372 1119.87 76.2912 1120.15 76.981C1120.44 77.6515 1120.57 78.4965 1120.54 79.5159C1120.5 80.7552 1120.23 81.7967 1119.74 82.6406C1119.25 83.4644 1118.6 84.1326 1117.78 84.645C1116.96 85.1575 1116.05 85.5166 1115.04 85.7225C1114.06 85.929 1113.03 86.0142 1111.97 85.9781ZM1127.88 86.2798L1128.45 69.5495L1122.07 69.332L1122.22 64.8346L1139.91 65.4371L1139.76 69.9345L1133.31 69.7149L1132.74 86.4452L1127.88 86.2798ZM1141.48 86.7429L1142.2 65.5152L1147.06 65.6807L1146.49 82.441L1156.95 82.7973L1156.8 87.2648L1141.48 86.7429ZM1159.46 87.3552L1160.18 66.1276L1175.83 66.6606L1175.68 71.158L1164.89 70.7904L1164.75 74.808L1173.83 75.1175L1173.69 79.435L1164.6 79.1255L1164.47 83.0533L1175.26 83.4209L1175.11 87.8883L1159.46 87.3552Z" fill="#D9F99D"/>
<path d="M1202.38 62.8019L1202.33 77.0996L1209.98 64.8946L1203.08 77.517L1215.71 70.1711L1203.55 78.2267L1218.27 77.4227L1203.63 79.066L1217.06 84.9882L1203.29 79.8427L1212.36 91.1343L1202.62 80.3788L1205.25 94.4531L1201.77 80.5516L1197.36 94.1843L1200.94 80.3214L1190.49 90.3894L1200.31 79.741L1186.22 83.9379L1200.03 78.9433L1185.53 76.3076L1200.16 78.1111L1188.57 69.2466L1200.68 77.4351L1194.65 64.3725L1201.46 77.07L1202.38 62.8019Z" fill="#ECFCCB"/>
<path d="M1227.11 89.6592L1227.83 68.4316L1232.69 68.597L1232.4 77.112L1240.85 77.4L1241.14 68.885L1246 69.0504L1245.28 90.2781L1240.42 90.1126L1240.7 81.8674L1232.25 81.5795L1231.96 89.8247L1227.11 89.6592ZM1258.55 90.9704C1256.45 90.8989 1254.74 90.4602 1253.4 89.6544C1252.07 88.8485 1251.1 87.6948 1250.49 86.1932C1249.9 84.6922 1249.64 82.8824 1249.71 80.7636L1250.11 69.1903L1254.97 69.3558L1254.56 81.1989C1254.53 82.0584 1254.64 82.8823 1254.87 83.6707C1255.1 84.4591 1255.53 85.1141 1256.15 85.6356C1256.78 86.1371 1257.65 86.4069 1258.77 86.445C1259.91 86.4838 1260.77 86.2633 1261.37 85.7833C1261.99 85.304 1262.42 84.6783 1262.67 83.9063C1262.93 83.1349 1263.08 82.3294 1263.11 81.4899L1263.51 69.6468L1268.37 69.8122L1267.97 81.3855C1267.9 83.4843 1267.52 85.2624 1266.83 86.7197C1266.14 88.1771 1265.11 89.2727 1263.75 90.0067C1262.38 90.7206 1260.65 91.0418 1258.55 90.9704ZM1279.88 91.6966C1278.36 91.6449 1276.96 91.357 1275.67 90.8331C1274.39 90.2891 1273.34 89.4828 1272.51 88.4141C1271.71 87.3261 1271.24 85.9592 1271.09 84.3134L1276.01 84.4808C1276.15 85.1059 1276.42 85.6155 1276.83 86.0096C1277.26 86.4043 1277.78 86.7022 1278.39 86.9032C1279 87.0842 1279.66 87.1866 1280.36 87.2105C1280.84 87.2268 1281.32 87.1932 1281.8 87.1096C1282.29 87.006 1282.69 86.8197 1283.02 86.5508C1283.35 86.2818 1283.53 85.8975 1283.54 85.3978C1283.56 85.018 1283.48 84.7151 1283.3 84.4891C1283.13 84.2431 1282.88 84.0444 1282.54 83.8929C1282.23 83.7221 1281.83 83.5686 1281.36 83.4323C1281.06 83.3421 1280.75 83.2616 1280.44 83.1908C1280.12 83.1199 1279.81 83.0394 1279.51 82.9492C1279.22 82.8591 1278.92 82.7589 1278.62 82.6487C1277.73 82.3982 1276.88 82.1191 1276.07 81.8114C1275.26 81.4836 1274.54 81.079 1273.92 80.5975C1273.32 80.1166 1272.85 79.5003 1272.51 78.7485C1272.18 77.9967 1272.03 77.0711 1272.07 75.9717C1272.1 74.9123 1272.31 74.019 1272.7 73.2916C1273.1 72.545 1273.62 71.9524 1274.26 71.5138C1274.92 71.0558 1275.62 70.7195 1276.37 70.5048C1277.13 70.2709 1277.89 70.1165 1278.63 70.0417C1279.4 69.9677 1280.1 69.9415 1280.74 69.9633C1282.16 70.0117 1283.41 70.3144 1284.49 70.8715C1285.59 71.4294 1286.46 72.2295 1287.11 73.2721C1287.77 74.2953 1288.15 75.5489 1288.24 77.0328L1283.53 76.8725C1283.47 76.3501 1283.28 75.9132 1282.95 75.5618C1282.64 75.2111 1282.23 74.937 1281.71 74.7394C1281.22 74.5425 1280.64 74.4328 1279.98 74.4103C1279.59 74.3967 1279.19 74.4234 1278.81 74.4904C1278.45 74.5381 1278.13 74.6272 1277.84 74.7576C1277.58 74.8886 1277.35 75.071 1277.16 75.3048C1277 75.5192 1276.91 75.7963 1276.89 76.1361C1276.88 76.4959 1276.99 76.8098 1277.22 77.0778C1277.45 77.3258 1277.79 77.5473 1278.22 77.7422C1278.67 77.9377 1279.23 78.1367 1279.88 78.339C1280.34 78.5146 1280.8 78.6605 1281.28 78.7768C1281.77 78.8738 1282.25 79.0001 1282.7 79.1556C1283.54 79.3841 1284.3 79.6502 1284.99 79.9539C1285.7 80.2382 1286.32 80.5995 1286.84 81.0376C1287.37 81.4557 1287.77 82.0097 1288.05 82.6995C1288.34 83.3701 1288.48 84.215 1288.44 85.2344C1288.4 86.4737 1288.13 87.5153 1287.64 88.3591C1287.16 89.183 1286.5 89.8511 1285.69 90.3636C1284.87 90.876 1283.95 91.2352 1282.95 91.441C1281.96 91.6475 1280.94 91.7327 1279.88 91.6966ZM1295.79 91.9983L1296.36 75.268L1289.97 75.0505L1290.12 70.5531L1307.81 71.1556L1307.66 75.653L1301.21 75.4335L1300.64 92.1638L1295.79 91.9983ZM1309.38 92.4615L1310.11 71.2338L1314.96 71.3992L1314.39 88.1595L1324.86 88.5159L1324.71 92.9833L1309.38 92.4615ZM1327.36 93.0738L1328.08 71.8461L1343.74 72.3791L1343.58 76.8765L1332.79 76.5089L1332.65 80.5266L1341.74 80.836L1341.59 85.1535L1332.5 84.8441L1332.37 88.7718L1343.16 89.1394L1343.01 93.6068L1327.36 93.0738Z" fill="#D9F99D"/>
<path d="M1370.28 68.5204L1370.23 82.8181L1377.88 70.6131L1370.98 83.2355L1383.62 75.8896L1371.45 83.9452L1386.17 83.1413L1371.53 84.7845L1384.96 90.7067L1371.19 85.5612L1380.26 96.8528L1370.53 86.0974L1373.15 100.172L1369.68 86.2702L1365.26 99.9028L1368.84 86.04L1358.39 96.108L1368.21 85.4595L1354.12 89.6564L1367.93 84.6619L1353.43 82.0262L1368.06 83.8297L1356.47 74.9652L1368.58 83.1536L1362.55 70.0911L1369.36 82.7885L1370.28 68.5204Z" fill="#ECFCCB"/>
<path d="M1395.01 95.3778L1395.73 74.1501L1400.59 74.3155L1400.3 82.8306L1408.76 83.1186L1409.05 74.6035L1413.9 74.7689L1413.18 95.9966L1408.32 95.8312L1408.6 87.586L1400.15 87.298L1399.87 95.5432L1395.01 95.3778ZM1426.46 96.6889C1424.36 96.6174 1422.64 96.1788 1421.31 95.3729C1419.97 94.5671 1419 93.4133 1418.39 91.9117C1417.8 90.4108 1417.55 88.601 1417.62 86.4822L1418.01 74.9089L1422.87 75.0743L1422.47 86.9175C1422.44 87.777 1422.54 88.6009 1422.77 89.3893C1423.01 90.1777 1423.43 90.8327 1424.06 91.3541C1424.68 91.8557 1425.55 92.1255 1426.67 92.1636C1427.81 92.2024 1428.68 91.9818 1429.27 91.5018C1429.89 91.0226 1430.32 90.3969 1430.57 89.6248C1430.84 88.8535 1430.98 88.048 1431.01 87.2085L1431.41 75.3654L1436.27 75.5308L1435.88 87.1041C1435.81 89.2029 1435.43 90.9809 1434.74 92.4383C1434.05 93.8956 1433.02 94.9913 1431.65 95.7252C1430.29 96.4392 1428.55 96.7604 1426.46 96.6889ZM1447.78 97.4152C1446.26 97.3635 1444.86 97.0756 1443.58 96.5516C1442.29 96.0077 1441.24 95.2013 1440.42 94.1327C1439.61 93.0447 1439.14 91.6778 1439 90.0319L1443.91 90.1994C1444.05 90.8245 1444.32 91.3341 1444.73 91.7281C1445.16 92.1229 1445.68 92.4208 1446.29 92.6218C1446.91 92.8028 1447.56 92.9052 1448.26 92.929C1448.74 92.9454 1449.22 92.9117 1449.71 92.8281C1450.19 92.7245 1450.6 92.5383 1450.93 92.2693C1451.26 92.0004 1451.43 91.6161 1451.45 91.1163C1451.46 90.7366 1451.38 90.4337 1451.21 90.2077C1451.04 89.9617 1450.78 89.763 1450.45 89.6115C1450.13 89.4407 1449.74 89.2871 1449.26 89.1509C1448.96 89.0607 1448.66 88.9802 1448.34 88.9093C1448.02 88.8385 1447.71 88.758 1447.42 88.6678C1447.12 88.5776 1446.82 88.4775 1446.53 88.3673C1445.64 88.1168 1444.78 87.8377 1443.97 87.5299C1443.16 87.2022 1442.45 86.7976 1441.82 86.316C1441.22 85.8352 1440.75 85.2189 1440.42 84.467C1440.08 83.7152 1439.93 82.7896 1439.97 81.6903C1440.01 80.6309 1440.22 79.7375 1440.6 79.0102C1441.01 78.2636 1441.53 77.671 1442.16 77.2323C1442.82 76.7744 1443.52 76.4381 1444.27 76.2234C1445.04 75.9894 1445.79 75.8351 1446.54 75.7603C1447.3 75.6862 1448 75.6601 1448.64 75.6819C1450.06 75.7302 1451.31 76.033 1452.39 76.5901C1453.49 77.1479 1454.37 77.9481 1455.01 78.9907C1455.68 80.0139 1456.05 81.2675 1456.14 82.7514L1451.44 82.5911C1451.37 82.0687 1451.18 81.6318 1450.85 81.2804C1450.54 80.9297 1450.13 80.6555 1449.62 80.4579C1449.12 80.261 1448.55 80.1513 1447.89 80.1289C1447.49 80.1153 1447.1 80.142 1446.71 80.209C1446.35 80.2567 1446.03 80.3457 1445.75 80.4761C1445.48 80.6072 1445.25 80.7896 1445.07 81.0233C1444.9 81.2378 1444.81 81.5149 1444.8 81.8547C1444.79 82.2145 1444.89 82.5284 1445.13 82.7964C1445.36 83.0444 1445.69 83.2659 1446.12 83.4607C1446.58 83.6563 1447.13 83.8553 1447.78 84.0576C1448.24 84.2332 1448.7 84.3791 1449.18 84.4954C1449.68 84.5924 1450.15 84.7186 1450.61 84.8742C1451.44 85.1027 1452.2 85.3688 1452.89 85.6724C1453.6 85.9568 1454.22 86.318 1454.75 86.7562C1455.27 87.1743 1455.67 87.7283 1455.95 88.4181C1456.25 89.0886 1456.38 89.9336 1456.34 90.953C1456.3 92.1923 1456.04 93.2338 1455.55 94.0777C1455.06 94.9015 1454.41 95.5697 1453.59 96.0821C1452.77 96.5946 1451.86 96.9537 1450.85 97.1596C1449.86 97.3661 1448.84 97.4513 1447.78 97.4152ZM1463.69 97.7169L1464.26 80.9866L1457.87 80.7691L1458.03 76.2717L1475.72 76.8742L1475.56 81.3716L1469.12 81.152L1468.55 97.8823L1463.69 97.7169ZM1477.29 98.18L1478.01 76.9524L1482.87 77.1178L1482.3 93.8781L1492.76 94.2345L1492.61 98.7019L1477.29 98.18ZM1495.27 98.7923L1495.99 77.5647L1511.64 78.0977L1511.49 82.5951L1500.69 82.2275L1500.56 86.2451L1509.64 86.5546L1509.49 90.8721L1500.41 90.5626L1500.27 94.4904L1511.07 94.858L1510.92 99.3254L1495.27 98.7923Z" fill="#D9F99D"/>
<rect x="-22.2861" y="80.9191" width="1483.08" height="67" transform="rotate(-2.3 -22.2861 80.9191)" fill="#1E1E1E"/>
<path d="M-91.7943 127.746L-92.6467 106.523L-87.7906 106.328L-87.4487 114.842L-78.9955 114.502L-79.3374 105.989L-74.4814 105.794L-73.629 127.017L-78.485 127.212L-78.8161 118.968L-87.2693 119.308L-86.9382 127.551L-91.7943 127.746ZM-60.3386 126.723C-62.4369 126.807 -64.1808 126.497 -65.5702 125.792C-66.9596 125.088 -68.0137 124.009 -68.7326 122.557C-69.4315 121.104 -69.8235 119.318 -69.9085 117.2L-70.3733 105.629L-65.5172 105.434L-65.0416 117.274C-65.0071 118.134 -64.8443 118.948 -64.5532 119.717C-64.2621 120.486 -63.7868 121.107 -63.1272 121.581C-62.4685 122.035 -61.5796 122.239 -60.4605 122.194C-59.3214 122.149 -58.4721 121.864 -57.9127 121.341C-57.3332 120.818 -56.9492 120.162 -56.7607 119.374C-56.5522 118.585 -56.4648 117.77 -56.4985 116.931L-56.9741 105.091L-52.118 104.896L-51.6533 116.466C-51.569 118.565 -51.8169 120.366 -52.397 121.871C-52.9771 123.375 -53.9209 124.544 -55.2285 125.377C-56.537 126.19 -58.2403 126.639 -60.3386 126.723ZM-39.0195 125.867C-40.5383 125.928 -41.9568 125.745 -43.275 125.317C-44.594 124.87 -45.704 124.144 -46.6051 123.139C-47.4869 122.114 -48.0607 120.786 -48.3264 119.155L-43.4103 118.958C-43.2256 119.571 -42.9157 120.059 -42.4808 120.421C-42.0259 120.783 -41.4851 121.042 -40.8584 121.197C-40.2325 121.332 -39.5698 121.385 -38.8704 121.357C-38.3907 121.338 -37.9131 121.269 -37.4375 121.15C-36.9627 121.01 -36.5711 120.795 -36.2626 120.502C-35.9541 120.209 -35.8099 119.813 -35.8299 119.314C-35.8452 118.934 -35.9471 118.638 -36.1358 118.425C-36.3253 118.193 -36.5927 118.013 -36.9381 117.887C-37.2642 117.74 -37.6695 117.616 -38.154 117.515C-38.4569 117.447 -38.7695 117.39 -39.0916 117.343C-39.4138 117.296 -39.7263 117.238 -40.0293 117.17C-40.3323 117.102 -40.6357 117.025 -40.9394 116.937C-41.8475 116.753 -42.7169 116.538 -43.5474 116.291C-44.3788 116.024 -45.1235 115.674 -45.7814 115.24C-46.4194 114.805 -46.9331 114.225 -47.3225 113.5C-47.7119 112.775 -47.9287 111.863 -47.9728 110.764C-48.0154 109.705 -47.8716 108.798 -47.5416 108.045C-47.1924 107.27 -46.7173 106.64 -46.1163 106.156C-45.496 105.65 -44.821 105.263 -44.0913 104.994C-43.3423 104.703 -42.6001 104.493 -41.8647 104.364C-41.1094 104.233 -40.4119 104.155 -39.7725 104.13C-38.3536 104.073 -37.0842 104.282 -35.9642 104.757C-34.8242 105.232 -33.8941 105.965 -33.1737 106.957C-32.4341 107.928 -31.9647 109.15 -31.7654 110.623L-36.4716 110.812C-36.5724 110.296 -36.7995 109.875 -37.1529 109.549C-37.4863 109.222 -37.9163 108.979 -38.4432 108.82C-38.95 108.66 -39.5331 108.594 -40.1926 108.62C-40.5923 108.636 -40.9803 108.692 -41.3568 108.787C-41.7141 108.861 -42.0299 108.974 -42.304 109.125C-42.5582 109.276 -42.7704 109.474 -42.9406 109.721C-43.0917 109.947 -43.1603 110.23 -43.1467 110.57C-43.1323 110.93 -42.9999 111.235 -42.7497 111.485C-42.5002 111.715 -42.1521 111.911 -41.7052 112.074C-41.2384 112.235 -40.6716 112.392 -40.0049 112.546C-39.5388 112.687 -39.064 112.798 -38.5804 112.879C-38.0776 112.939 -37.5935 113.029 -37.1283 113.151C-36.2809 113.317 -35.5019 113.526 -34.7913 113.777C-34.0614 114.008 -33.4183 114.323 -32.8618 114.721C-32.3062 115.099 -31.8649 115.621 -31.5378 116.289C-31.1916 116.936 -30.998 117.768 -30.9571 118.788C-30.9073 120.027 -31.095 121.085 -31.5201 121.963C-31.9461 122.821 -32.5479 123.535 -33.3255 124.107C-34.1032 124.679 -34.9868 125.104 -35.9764 125.384C-36.946 125.663 -37.9604 125.824 -39.0195 125.867ZM-23.1316 124.989L-23.8034 108.262L-30.1883 108.518L-30.3689 104.022L-12.6831 103.312L-12.5026 107.808L-18.9474 108.067L-18.2755 124.794L-23.1316 124.989ZM-9.53642 124.443L-10.3888 103.22L-5.53274 103.025L-4.85973 119.781L5.60184 119.361L5.78123 123.827L-9.53642 124.443ZM8.43737 123.721L7.58497 102.498L23.2324 101.869L23.4129 106.366L12.6216 106.799L12.783 110.816L21.8657 110.451L22.039 114.768L12.9563 115.132L13.1141 119.059L23.9054 118.626L24.0848 123.092L8.43737 123.721Z" fill="#D9F99D"/>
<path d="M47.9188 96.1139L48.9131 110.377L55.4219 97.6467L49.6741 110.738L61.3532 102.491L50.1801 111.411L64.354 109.537L50.3151 112.243L63.7368 117.17L50.0483 113.042L59.6429 123.642L49.4407 113.625L53.0103 127.47L48.6315 113.86L45.3583 127.777L47.8061 113.691L38.4401 124.493L47.1537 113.158L33.8403 118.371L46.8236 112.383L32.6129 110.811L46.8915 111.543L35.039 103.548L47.3418 110.832L40.5627 98.2435L48.0714 110.41L47.9188 96.1139Z" fill="#ECFCCB"/>
<path d="M74.0719 121.084L73.2195 99.8616L78.0756 99.6665L78.4175 108.18L86.8707 107.84L86.5288 99.327L91.3848 99.132L92.2372 120.355L87.3812 120.55L87.0501 112.307L78.5969 112.646L78.928 120.889L74.0719 121.084ZM105.528 120.061C103.429 120.146 101.685 119.835 100.296 119.13C98.9066 118.426 97.8525 117.347 97.1336 115.895C96.4347 114.442 96.0427 112.656 95.9577 110.538L95.4929 98.967L100.349 98.7719L100.825 110.612C100.859 111.472 101.022 112.286 101.313 113.055C101.604 113.824 102.079 114.445 102.739 114.919C103.398 115.373 104.287 115.577 105.406 115.532C106.545 115.487 107.394 115.202 107.954 114.68C108.533 114.156 108.917 113.5 109.106 112.712C109.314 111.923 109.401 111.109 109.368 110.269L108.892 98.4288L113.748 98.2338L114.213 109.804C114.297 111.903 114.049 113.704 113.469 115.209C112.889 116.713 111.945 117.882 110.638 118.715C109.329 119.528 107.626 119.977 105.528 120.061ZM126.847 119.205C125.328 119.266 123.909 119.083 122.591 118.655C121.272 118.208 120.162 117.482 119.261 116.477C118.379 115.452 117.806 114.124 117.54 112.493L122.456 112.296C122.641 112.909 122.95 113.397 123.385 113.76C123.84 114.122 124.381 114.38 125.008 114.535C125.634 114.67 126.296 114.723 126.996 114.695C127.475 114.676 127.953 114.607 128.429 114.488C128.903 114.349 129.295 114.133 129.604 113.84C129.912 113.547 130.056 113.151 130.036 112.652C130.021 112.272 129.919 111.976 129.73 111.763C129.541 111.531 129.273 111.351 128.928 111.225C128.602 111.078 128.197 110.954 127.712 110.854C127.409 110.786 127.097 110.728 126.775 110.681C126.452 110.634 126.14 110.576 125.837 110.509C125.534 110.441 125.231 110.363 124.927 110.275C124.019 110.091 123.149 109.876 122.319 109.629C121.487 109.362 120.743 109.012 120.085 108.578C119.447 108.143 118.933 107.563 118.544 106.838C118.154 106.113 117.938 105.201 117.893 104.102C117.851 103.043 117.995 102.136 118.325 101.383C118.674 100.608 119.149 99.9784 119.75 99.4939C120.37 98.9886 121.045 98.6012 121.775 98.3317C122.524 98.0414 123.266 97.8315 124.001 97.7019C124.757 97.5714 125.454 97.4934 126.094 97.4677C127.513 97.4107 128.782 97.6199 129.902 98.0954C131.042 98.57 131.972 99.3033 132.693 100.295C133.432 101.266 133.902 102.488 134.101 103.962L129.395 104.151C129.294 103.634 129.067 103.213 128.713 102.887C128.38 102.56 127.95 102.317 127.423 102.158C126.916 101.998 126.333 101.932 125.674 101.958C125.274 101.974 124.886 102.03 124.509 102.125C124.152 102.199 123.836 102.312 123.562 102.463C123.308 102.614 123.096 102.812 122.926 103.059C122.775 103.286 122.706 103.569 122.72 103.908C122.734 104.268 122.866 104.573 123.117 104.823C123.366 105.053 123.714 105.249 124.161 105.412C124.628 105.573 125.195 105.73 125.861 105.884C126.327 106.025 126.802 106.136 127.286 106.217C127.789 106.277 128.273 106.367 128.738 106.489C129.585 106.655 130.364 106.864 131.075 107.116C131.805 107.346 132.448 107.661 133.004 108.059C133.56 108.437 134.001 108.96 134.328 109.627C134.675 110.274 134.868 111.107 134.909 112.126C134.959 113.365 134.771 114.423 134.346 115.301C133.92 116.159 133.318 116.873 132.541 117.445C131.763 118.017 130.879 118.443 129.89 118.722C128.92 119.002 127.906 119.162 126.847 119.205ZM142.735 118.327L142.063 101.6L135.678 101.857L135.497 97.3602L153.183 96.6499L153.364 101.146L146.919 101.405L147.591 118.132L142.735 118.327ZM156.33 117.781L155.477 96.5577L160.333 96.3627L161.006 113.119L171.468 112.699L171.647 117.165L156.33 117.781ZM174.304 117.059L173.451 95.8358L189.099 95.2074L189.279 99.7038L178.488 100.137L178.649 104.154L187.732 103.789L187.905 108.106L178.823 108.47L178.98 112.397L189.772 111.964L189.951 116.43L174.304 117.059Z" fill="#D9F99D"/>
<path d="M213.785 89.452L214.779 103.715L221.288 90.9849L215.54 104.076L227.219 95.829L216.046 104.75L230.22 102.875L216.181 105.581L229.603 110.508L215.914 106.38L225.509 116.98L215.307 106.963L218.876 120.808L214.498 107.198L211.225 121.115L213.672 107.029L204.306 117.831L213.02 106.496L199.707 111.709L212.69 105.721L198.479 104.15L212.758 104.882L200.905 96.8859L213.208 104.17L206.429 91.5817L213.938 103.749L213.785 89.452Z" fill="#ECFCCB"/>
<path d="M239.938 114.423L239.086 93.1997L243.942 93.0046L244.284 101.518L252.737 101.178L252.395 92.6651L257.251 92.4701L258.103 113.693L253.247 113.888L252.916 105.645L244.463 105.984L244.794 114.228L239.938 114.423ZM271.394 113.399C269.295 113.484 267.552 113.173 266.162 112.469C264.773 111.764 263.719 110.685 263 109.233C262.301 107.78 261.909 105.994 261.824 103.876L261.359 92.3051L266.215 92.11L266.691 103.95C266.725 104.81 266.888 105.624 267.179 106.393C267.47 107.162 267.946 107.783 268.605 108.257C269.264 108.711 270.153 108.916 271.272 108.871C272.411 108.825 273.26 108.541 273.82 108.018C274.399 107.494 274.783 106.838 274.972 106.05C275.18 105.261 275.268 104.447 275.234 103.607L274.758 91.7669L279.614 91.5719L280.079 103.143C280.163 105.241 279.916 107.042 279.335 108.547C278.755 110.051 277.811 111.22 276.504 112.053C275.195 112.866 273.492 113.315 271.394 113.399ZM292.713 112.543C291.194 112.604 289.776 112.421 288.457 111.993C287.138 111.546 286.028 110.82 285.127 109.815C284.245 108.79 283.672 107.462 283.406 105.831L288.322 105.634C288.507 106.247 288.817 106.735 289.252 107.098C289.706 107.46 290.247 107.718 290.874 107.873C291.5 108.008 292.163 108.062 292.862 108.033C293.342 108.014 293.819 107.945 294.295 107.826C294.77 107.687 295.161 107.471 295.47 107.178C295.778 106.886 295.923 106.489 295.903 105.99C295.887 105.61 295.785 105.314 295.597 105.101C295.407 104.869 295.14 104.689 294.794 104.563C294.468 104.416 294.063 104.292 293.578 104.192C293.275 104.124 292.963 104.066 292.641 104.019C292.319 103.972 292.006 103.915 291.703 103.847C291.4 103.779 291.097 103.701 290.793 103.613C289.885 103.429 289.016 103.214 288.185 102.967C287.354 102.7 286.609 102.35 285.951 101.916C285.313 101.481 284.799 100.901 284.41 100.176C284.021 99.4514 283.804 98.5394 283.76 97.4402C283.717 96.3811 283.861 95.4746 284.191 94.7207C284.54 93.9461 285.015 93.3165 285.616 92.832C286.236 92.3267 286.911 91.9393 287.641 91.6698C288.39 91.3795 289.132 91.1696 289.868 91.04C290.623 90.9095 291.32 90.8315 291.96 90.8058C293.379 90.7488 294.648 90.958 295.768 91.4335C296.908 91.9081 297.838 92.6414 298.559 93.6333C299.298 94.6044 299.768 95.8265 299.967 97.2997L295.261 97.4887C295.16 96.9723 294.933 96.5511 294.58 96.225C294.246 95.8982 293.816 95.6552 293.289 95.4962C292.782 95.3364 292.199 95.2698 291.54 95.2963C291.14 95.3123 290.752 95.368 290.376 95.4631C290.018 95.5375 289.703 95.6503 289.428 95.8014C289.174 95.9517 288.962 96.1504 288.792 96.3975C288.641 96.6237 288.572 96.9067 288.586 97.2464C288.6 97.6061 288.733 97.9111 288.983 98.1612C289.232 98.3914 289.58 98.5876 290.027 98.7498C290.494 98.9112 291.061 99.0685 291.728 99.2219C292.194 99.3633 292.668 99.4744 293.152 99.555C293.655 99.6149 294.139 99.7055 294.604 99.827C295.451 99.9931 296.23 100.202 296.941 100.454C297.671 100.685 298.314 100.999 298.871 101.397C299.426 101.775 299.868 102.298 300.195 102.965C300.541 103.612 300.734 104.445 300.775 105.464C300.825 106.703 300.637 107.761 300.212 108.639C299.786 109.497 299.185 110.211 298.407 110.783C297.629 111.355 296.746 111.781 295.756 112.061C294.786 112.34 293.772 112.501 292.713 112.543ZM308.601 111.665L307.929 94.9383L301.544 95.1947L301.364 90.6983L319.049 89.988L319.23 94.4844L312.785 94.7432L313.457 111.47L308.601 111.665ZM322.196 111.119L321.344 89.8959L326.2 89.7008L326.873 106.457L337.334 106.037L337.514 110.504L322.196 111.119ZM340.17 110.397L339.317 89.174L354.965 88.5455L355.145 93.0419L344.354 93.4753L344.515 97.492L353.598 97.1272L353.771 101.444L344.689 101.809L344.846 105.735L355.638 105.302L355.817 109.768L340.17 110.397Z" fill="#D9F99D"/>
<path d="M381.15 82.7299L382.158 96.9921L388.886 84.2534L382.942 97.3524L394.996 89.0904L383.463 98.0253L398.081 96.1327L383.601 98.8567L397.435 103.767L383.325 99.6561L393.206 110.244L382.698 100.24L386.361 114.081L381.863 100.476L378.47 114.398L381.012 100.308L371.34 111.123L380.34 99.776L366.605 105.005L380.001 99.0013L365.348 97.4474L380.072 98.1616L367.859 90.1803L380.537 97.449L373.562 84.8689L381.29 97.027L381.15 82.7299Z" fill="#ECFCCB"/>
<path d="M407.803 107.68L406.95 86.4575L411.807 86.2625L412.148 94.7756L420.602 94.4361L420.26 85.923L425.116 85.7279L425.968 106.951L421.112 107.146L420.781 98.9025L412.328 99.242L412.659 107.485L407.803 107.68ZM439.259 106.657C437.16 106.742 435.416 106.431 434.027 105.726C432.638 105.022 431.583 103.943 430.865 102.491C430.166 101.038 429.774 99.2519 429.689 97.1336L429.224 85.5629L434.08 85.3679L434.556 97.2084C434.59 98.0677 434.753 98.8818 435.044 99.6507C435.335 100.42 435.81 101.041 436.47 101.515C437.129 101.969 438.018 102.173 439.137 102.128C440.276 102.083 441.125 101.798 441.685 101.276C442.264 100.752 442.648 100.096 442.836 99.3077C443.045 98.5187 443.132 97.7046 443.099 96.8652L442.623 85.0248L447.479 84.8297L447.944 96.4004C448.028 98.4987 447.78 100.3 447.2 101.805C446.62 103.309 445.676 104.478 444.369 105.311C443.06 106.124 441.357 106.573 439.259 106.657ZM460.578 105.801C459.059 105.862 457.64 105.679 456.322 105.251C455.003 104.804 453.893 104.078 452.992 103.073C452.11 102.048 451.536 100.72 451.271 99.0891L456.187 98.8916C456.372 99.5047 456.681 99.9927 457.116 100.355C457.571 100.718 458.112 100.976 458.739 101.131C459.365 101.266 460.027 101.319 460.727 101.291C461.206 101.272 461.684 101.203 462.16 101.084C462.634 100.945 463.026 100.729 463.335 100.436C463.643 100.143 463.787 99.7473 463.767 99.2477C463.752 98.868 463.65 98.5718 463.461 98.3592C463.272 98.1267 463.004 97.9473 462.659 97.821C462.333 97.674 461.928 97.5501 461.443 97.4495C461.14 97.3816 460.828 97.3241 460.506 97.277C460.183 97.2299 459.871 97.1724 459.568 97.1045C459.265 97.0366 458.962 96.9587 458.658 96.8708C457.75 96.6871 456.88 96.4718 456.05 96.225C455.218 95.9581 454.474 95.6077 453.816 95.1738C453.178 94.739 452.664 94.1592 452.275 93.4342C451.885 92.7093 451.668 91.7972 451.624 90.6981C451.582 89.639 451.726 88.7325 452.056 87.9786C452.405 87.204 452.88 86.5744 453.481 86.0899C454.101 85.5846 454.776 85.1972 455.506 84.9277C456.255 84.6374 456.997 84.4274 457.732 84.2978C458.488 84.1674 459.185 84.0894 459.825 84.0637C461.244 84.0067 462.513 84.2159 463.633 84.6913C464.773 85.166 465.703 85.8992 466.423 86.8911C467.163 87.8622 467.632 89.0844 467.832 90.5576L463.126 90.7466C463.025 90.2302 462.798 89.809 462.444 89.4829C462.111 89.156 461.681 88.9131 461.154 88.7541C460.647 88.5943 460.064 88.5277 459.405 88.5542C459.005 88.5702 458.617 88.6258 458.24 88.721C457.883 88.7954 457.567 88.9082 457.293 89.0593C457.039 89.2096 456.827 89.4083 456.657 89.6553C456.506 89.8816 456.437 90.1646 456.45 90.5043C456.465 90.864 456.597 91.1689 456.847 91.4191C457.097 91.6493 457.445 91.8454 457.892 92.0076C458.359 92.169 458.926 92.3264 459.592 92.4798C460.058 92.6212 460.533 92.7322 461.017 92.8129C461.52 92.8728 462.004 92.9634 462.469 93.0848C463.316 93.251 464.095 93.4599 464.806 93.7115C465.536 93.9424 466.179 94.2569 466.735 94.6549C467.291 95.0329 467.732 95.5556 468.059 96.223C468.406 96.8696 468.599 97.7025 468.64 98.7217C468.69 99.9607 468.502 101.019 468.077 101.897C467.651 102.755 467.049 103.469 466.272 104.041C465.494 104.613 464.61 105.039 463.621 105.318C462.651 105.598 461.637 105.758 460.578 105.801ZM476.466 104.923L475.794 88.1961L469.409 88.4526L469.228 83.9562L486.914 83.2459L487.095 87.7422L480.65 88.0011L481.322 104.728L476.466 104.923ZM490.061 104.377L489.208 83.1537L494.064 82.9587L494.737 99.7152L505.199 99.295L505.378 103.761L490.061 104.377ZM508.035 103.655L507.182 82.4318L522.83 81.8034L523.01 86.2997L512.219 86.7332L512.38 90.7499L521.463 90.3851L521.636 94.7016L512.554 95.0664L512.711 98.9933L523.503 98.5598L523.682 103.026L508.035 103.655Z" fill="#D9F99D"/>
<path d="M549.015 75.9878L550.022 90.25L556.75 77.5113L550.806 90.6103L562.86 82.3483L551.327 91.2832L565.946 89.3905L551.465 92.1146L565.3 97.0249L551.189 92.914L561.07 103.502L550.562 93.4982L554.226 107.339L549.727 93.7335L546.335 107.656L548.876 93.5659L539.205 104.381L548.204 93.0339L534.469 98.2632L547.865 92.2592L533.213 90.7052L547.936 91.4194L535.724 83.4382L548.401 90.7069L541.426 78.1268L549.154 90.2849L549.015 75.9878Z" fill="#ECFCCB"/>
<path d="M575.668 100.938L574.815 79.7154L579.671 79.5203L580.013 88.0335L588.466 87.694L588.124 79.1808L592.981 78.9858L593.833 100.209L588.977 100.404L588.646 92.1604L580.193 92.4999L580.524 100.743L575.668 100.938ZM607.123 99.9151C605.025 99.9994 603.281 99.6891 601.892 98.9843C600.502 98.2795 599.448 97.2009 598.729 95.7486C598.03 94.2955 597.638 92.5098 597.553 90.3915L597.089 78.8208L601.945 78.6258L602.42 90.4662C602.455 91.3255 602.618 92.1396 602.909 92.9086C603.2 93.6775 603.675 94.2989 604.335 94.7728C604.993 95.2268 605.882 95.4313 607.001 95.3863C608.141 95.3406 608.99 95.0563 609.549 94.5334C610.129 94.0097 610.513 93.3538 610.701 92.5656C610.91 91.7766 610.997 90.9624 610.963 90.1231L610.488 78.2826L615.344 78.0876L615.809 89.6583C615.893 91.7566 615.645 93.558 615.065 95.0625C614.485 96.5669 613.541 97.7358 612.233 98.5689C610.925 99.3821 609.222 99.8308 607.123 99.9151ZM628.442 99.0588C626.924 99.1198 625.505 98.9366 624.187 98.5092C622.868 98.0617 621.758 97.3357 620.857 96.331C619.975 95.3056 619.401 93.9776 619.136 92.3469L624.052 92.1495C624.236 92.7625 624.546 93.2505 624.981 93.6133C625.436 93.9754 625.977 94.2339 626.604 94.3888C627.229 94.5238 627.892 94.5773 628.592 94.5492C629.071 94.5299 629.549 94.4607 630.024 94.3415C630.499 94.2024 630.891 93.9865 631.199 93.6939C631.508 93.4012 631.652 93.0051 631.632 92.5055C631.617 92.1258 631.515 91.8297 631.326 91.6171C631.137 91.3845 630.869 91.2051 630.524 91.0789C630.198 90.9318 629.792 90.808 629.308 90.7073C629.005 90.6395 628.692 90.582 628.37 90.5348C628.048 90.4877 627.736 90.4302 627.433 90.3623C627.13 90.2944 626.826 90.2165 626.522 90.1287C625.614 89.945 624.745 89.7297 623.914 89.4828C623.083 89.216 622.338 88.8656 621.68 88.4316C621.043 87.9969 620.529 87.417 620.139 86.6921C619.75 85.9671 619.533 85.0551 619.489 83.956C619.447 82.8968 619.59 81.9903 619.92 81.2365C620.27 80.4618 620.745 79.8322 621.346 79.3477C621.966 78.8424 622.641 78.455 623.371 78.1855C624.12 77.8952 624.862 77.6853 625.597 77.5557C626.353 77.4253 627.05 77.3472 627.689 77.3215C629.108 77.2645 630.378 77.4738 631.498 77.9492C632.638 78.4238 633.568 79.1571 634.288 80.149C635.028 81.1201 635.497 82.3422 635.697 83.8154L630.99 84.0044C630.89 83.4881 630.662 83.0668 630.309 82.7408C629.976 82.4139 629.546 82.1709 629.019 82.012C628.512 81.8522 627.929 81.7855 627.269 81.812C626.87 81.828 626.482 81.8837 626.105 81.9789C625.748 82.0533 625.432 82.166 625.158 82.3171C624.904 82.4675 624.692 82.6661 624.521 82.9132C624.37 83.1394 624.302 83.4224 624.315 83.7621C624.33 84.1218 624.462 84.4268 624.712 84.6769C624.962 84.9071 625.31 85.1033 625.757 85.2655C626.224 85.4269 626.79 85.5843 627.457 85.7376C627.923 85.879 628.398 85.9901 628.882 86.0707C629.384 86.1306 629.868 86.2212 630.334 86.3427C631.181 86.5088 631.96 86.7177 632.671 86.9694C633.401 87.2003 634.044 87.5147 634.6 87.9127C635.156 88.2907 635.597 88.8134 635.924 89.4808C636.27 90.1275 636.464 90.9604 636.505 91.9796C636.555 93.2186 636.367 94.2769 635.942 95.1547C635.516 96.0125 634.914 96.7272 634.136 97.2989C633.359 97.8706 632.475 98.2964 631.486 98.5763C630.516 98.8554 629.502 99.0163 628.442 99.0588ZM644.33 98.1805L643.658 81.454L637.274 81.7104L637.093 77.2141L654.779 76.5037L654.959 81.0001L648.515 81.2589L649.186 97.9855L644.33 98.1805ZM657.925 97.6345L657.073 76.4116L661.929 76.2165L662.602 92.973L673.064 92.5528L673.243 97.0192L657.925 97.6345ZM675.899 96.9126L675.047 75.6897L690.694 75.0612L690.875 79.5576L680.084 79.991L680.245 84.0078L689.328 83.643L689.501 87.9595L680.418 88.3243L680.576 92.2511L691.367 91.8177L691.547 96.2841L675.899 96.9126Z" fill="#D9F99D"/>
<path d="M716.879 69.2457L717.887 83.5079L724.615 70.7692L718.671 83.8682L730.725 75.6061L719.192 84.5411L733.81 82.6484L719.33 85.3724L733.164 90.2827L719.054 86.1718L728.935 96.7602L718.427 86.7561L722.09 100.597L717.592 86.9914L714.199 100.914L716.741 86.8238L707.069 97.6384L716.069 86.2917L702.334 91.521L715.73 85.5171L701.077 83.9631L715.801 84.6773L703.588 76.696L716.266 83.9648L709.291 71.3846L717.019 83.5427L716.879 69.2457Z" fill="#ECFCCB"/>
<path d="M743.532 94.1961L742.68 72.9733L747.536 72.7782L747.878 81.2914L756.331 80.9518L755.989 72.4387L760.845 72.2437L761.698 93.4666L756.842 93.6616L756.511 85.4182L748.057 85.7578L748.388 94.0011L743.532 94.1961ZM774.988 93.173C772.89 93.2572 771.146 92.947 769.756 92.2422C768.367 91.5373 767.313 90.4588 766.594 89.0065C765.895 87.5533 765.503 85.7676 765.418 83.6493L764.953 72.0787L769.809 71.8836L770.285 83.7241C770.32 84.5834 770.482 85.3975 770.773 86.1664C771.065 86.9354 771.54 87.5568 772.199 88.0307C772.858 88.4847 773.747 88.6891 774.866 88.6442C776.005 88.5984 776.855 88.3141 777.414 87.7913C777.993 87.2676 778.377 86.6116 778.566 85.8234C778.774 85.0344 778.862 84.2203 778.828 83.381L778.353 71.5405L783.209 71.3455L783.673 82.9161C783.758 85.0144 783.51 86.8158 782.93 88.3203C782.35 89.8248 781.406 90.9936 780.098 91.8268C778.79 92.64 777.086 93.0887 774.988 93.173ZM796.307 92.3167C794.788 92.3777 793.37 92.1945 792.052 91.767C790.733 91.3196 789.623 90.5936 788.722 89.5889C787.84 88.5635 787.266 87.2354 787 85.6048L791.916 85.4073C792.101 86.0204 792.411 86.5084 792.846 86.8712C793.301 87.2332 793.842 87.4917 794.468 87.6467C795.094 87.7817 795.757 87.8352 796.456 87.8071C796.936 87.7878 797.414 87.7186 797.889 87.5994C798.364 87.4602 798.756 87.2443 799.064 86.9517C799.373 86.6591 799.517 86.263 799.497 85.7634C799.481 85.3837 799.38 85.0876 799.191 84.875C799.001 84.6424 798.734 84.463 798.389 84.3367C798.062 84.1897 797.657 84.0659 797.173 83.9652C796.87 83.8973 796.557 83.8398 796.235 83.7927C795.913 83.7456 795.6 83.6881 795.297 83.6202C794.994 83.5523 794.691 83.4744 794.387 83.3865C793.479 83.2028 792.61 82.9876 791.779 82.7407C790.948 82.4738 790.203 82.1234 789.545 81.6895C788.907 81.2547 788.394 80.6749 788.004 79.9499C787.615 79.225 787.398 78.3129 787.354 77.2138C787.311 76.1547 787.455 75.2482 787.785 74.4943C788.134 73.7197 788.609 73.0901 789.21 72.6056C789.831 72.1003 790.506 71.7129 791.235 71.4434C791.984 71.1531 792.727 70.9432 793.462 70.8135C794.217 70.6831 794.915 70.6051 795.554 70.5794C796.973 70.5224 798.242 70.7316 799.362 71.2071C800.502 71.6817 801.433 72.415 802.153 73.4068C802.893 74.378 803.362 75.6001 803.561 77.0733L798.855 77.2623C798.754 76.7459 798.527 76.3247 798.174 75.9986C797.84 75.6717 797.41 75.4288 796.884 75.2698C796.377 75.11 795.794 75.0434 795.134 75.0699C794.734 75.0859 794.346 75.1415 793.97 75.2367C793.613 75.3111 793.297 75.4239 793.023 75.575C792.768 75.7253 792.556 75.924 792.386 76.171C792.235 76.3973 792.166 76.6803 792.18 77.02C792.194 77.3797 792.327 77.6846 792.577 77.9348C792.826 78.165 793.175 78.3612 793.621 78.5234C794.088 78.6848 794.655 78.8421 795.322 78.9955C795.788 79.1369 796.263 79.2479 796.746 79.3286C797.249 79.3885 797.733 79.4791 798.198 79.6005C799.046 79.7667 799.825 79.9756 800.535 80.2273C801.265 80.4582 801.908 80.7726 802.465 81.1706C803.02 81.5486 803.462 82.0713 803.789 82.7387C804.135 83.3853 804.329 84.2182 804.37 85.2374C804.419 86.4764 804.232 87.5348 803.807 88.4126C803.381 89.2704 802.779 89.9851 802.001 90.5568C801.223 91.1284 800.34 91.5542 799.35 91.8342C798.381 92.1133 797.366 92.2741 796.307 92.3167ZM812.195 91.4384L811.523 74.7119L805.138 74.9683L804.958 70.4719L822.644 69.7616L822.824 74.258L816.379 74.5168L817.051 91.2433L812.195 91.4384ZM825.79 90.8923L824.938 69.6694L829.794 69.4744L830.467 86.2309L840.928 85.8107L841.108 90.2771L825.79 90.8923ZM843.764 90.1704L842.912 68.9475L858.559 68.3191L858.74 72.8155L847.948 73.2489L848.11 77.2656L857.192 76.9008L857.366 81.2174L848.283 81.5822L848.441 85.509L859.232 85.0756L859.411 89.542L843.764 90.1704Z" fill="#D9F99D"/>
<path d="M884.744 62.5035L885.752 76.7657L892.479 64.027L886.536 77.126L898.59 68.864L887.057 77.7989L901.675 75.9063L887.195 78.6303L901.029 83.5406L886.919 79.4297L896.799 90.0181L886.291 80.0139L889.955 93.8547L885.457 80.2492L882.064 94.1717L884.606 80.0816L874.934 90.8963L883.934 79.5496L870.198 84.7789L883.594 78.7749L868.942 77.221L883.665 77.9352L871.453 69.9539L884.131 77.2226L877.156 64.6425L884.884 76.8006L884.744 62.5035Z" fill="#ECFCCB"/>
<path d="M911.397 87.454L910.544 66.2311L915.4 66.0361L915.742 74.5492L924.195 74.2097L923.853 65.6965L928.71 65.5015L929.562 86.7244L924.706 86.9194L924.375 78.6761L915.922 79.0156L916.253 87.259L911.397 87.454ZM942.852 86.4308C940.754 86.5151 939.01 86.2048 937.621 85.5C936.231 84.7952 935.177 83.7166 934.458 82.2643C933.759 80.8112 933.367 79.0255 933.282 76.9072L932.818 65.3365L937.674 65.1415L938.149 76.9819C938.184 77.8412 938.347 78.6554 938.638 79.4243C938.929 80.1932 939.404 80.8147 940.064 81.2886C940.722 81.7425 941.611 81.947 942.73 81.902C943.87 81.8563 944.719 81.572 945.278 81.0491C945.858 80.5254 946.242 79.8695 946.43 79.0813C946.639 78.2923 946.726 77.4781 946.692 76.6388L946.217 64.7983L951.073 64.6033L951.538 76.174C951.622 78.2723 951.374 80.0737 950.794 81.5782C950.214 83.0827 949.27 84.2515 947.962 85.0846C946.654 85.8978 944.951 86.3465 942.852 86.4308ZM964.171 85.5745C962.653 85.6355 961.234 85.4523 959.916 85.0249C958.597 84.5774 957.487 83.8514 956.586 82.8468C955.704 81.8213 955.13 80.4933 954.865 78.8626L959.781 78.6652C959.965 79.2783 960.275 79.7662 960.71 80.1291C961.165 80.4911 961.706 80.7496 962.333 80.9046C962.958 81.0396 963.621 81.093 964.321 81.0649C964.8 81.0456 965.278 80.9764 965.753 80.8572C966.228 80.7181 966.62 80.5022 966.928 80.2096C967.237 79.917 967.381 79.5208 967.361 79.0212C967.346 78.6416 967.244 78.3454 967.055 78.1328C966.866 77.9002 966.598 77.7208 966.253 77.5946C965.927 77.4475 965.521 77.3237 965.037 77.2231C964.734 77.1552 964.421 77.0977 964.099 77.0506C963.777 77.0034 963.465 76.9459 963.162 76.878C962.859 76.8102 962.555 76.7323 962.251 76.6444C961.343 76.4607 960.474 76.2454 959.643 75.9985C958.812 75.7317 958.067 75.3813 957.409 74.9473C956.772 74.5126 956.258 73.9327 955.868 73.2078C955.479 72.4828 955.262 71.5708 955.218 70.4717C955.176 69.4125 955.319 68.506 955.649 67.7522C955.999 66.9775 956.474 66.348 957.075 65.8635C957.695 65.3582 958.37 64.9708 959.1 64.7013C959.849 64.411 960.591 64.201 961.326 64.0714C962.082 63.941 962.779 63.8629 963.418 63.8372C964.837 63.7802 966.107 63.9895 967.227 64.4649C968.367 64.9395 969.297 65.6728 970.017 66.6647C970.757 67.6358 971.226 68.8579 971.426 70.3311L966.719 70.5202C966.619 70.0038 966.391 69.5826 966.038 69.2565C965.705 68.9296 965.275 68.6867 964.748 68.5277C964.241 68.3679 963.658 68.3012 962.998 68.3277C962.599 68.3438 962.211 68.3994 961.834 68.4946C961.477 68.569 961.161 68.6817 960.887 68.8329C960.633 68.9832 960.421 69.1819 960.25 69.4289C960.099 69.6551 960.031 69.9381 960.044 70.2778C960.059 70.6375 960.191 70.9425 960.441 71.1926C960.691 71.4228 961.039 71.619 961.486 71.7812C961.953 71.9426 962.519 72.1 963.186 72.2533C963.652 72.3948 964.127 72.5058 964.611 72.5864C965.113 72.6463 965.597 72.737 966.063 72.8584C966.91 73.0245 967.689 73.2334 968.4 73.4851C969.13 73.716 969.773 74.0304 970.329 74.4284C970.885 74.8064 971.326 75.3291 971.653 75.9966C971.999 76.6432 972.193 77.4761 972.234 78.4953C972.284 79.7343 972.096 80.7927 971.671 81.6704C971.245 82.5282 970.643 83.2429 969.865 83.8146C969.088 84.3863 968.204 84.8121 967.215 85.092C966.245 85.3712 965.231 85.532 964.171 85.5745ZM980.059 84.6962L979.387 67.9697L973.003 68.2261L972.822 63.7298L990.508 63.0194L990.688 67.5158L984.244 67.7747L984.915 84.5012L980.059 84.6962ZM993.654 84.1502L992.802 62.9273L997.658 62.7322L998.331 79.4887L1008.79 79.0686L1008.97 83.535L993.654 84.1502ZM1011.63 83.4283L1010.78 62.2054L1026.42 61.5769L1026.6 66.0733L1015.81 66.5067L1015.97 70.5235L1025.06 70.1587L1025.23 74.4752L1016.15 74.84L1016.3 78.7668L1027.1 78.3334L1027.28 82.7998L1011.63 83.4283Z" fill="#D9F99D"/>
<path d="M1052.61 55.7614L1053.62 70.0236L1060.34 57.2849L1054.4 70.3839L1066.45 62.1218L1054.92 71.0568L1069.54 69.1641L1055.06 71.8882L1068.89 76.7985L1054.78 72.6875L1064.66 83.2759L1054.16 73.2718L1057.82 87.1126L1053.32 73.5071L1049.93 87.4295L1052.47 73.3395L1042.8 84.1541L1051.8 72.8074L1038.06 78.0367L1051.46 72.0328L1036.81 70.4788L1051.53 71.193L1039.32 63.2117L1052 70.4805L1045.02 57.9003L1052.75 70.0584L1052.61 55.7614Z" fill="#ECFCCB"/>
<path d="M1079.26 80.7119L1078.41 59.489L1083.27 59.2939L1083.61 67.8071L1092.06 67.4676L1091.72 58.9544L1096.57 58.7594L1097.43 79.9823L1092.57 80.1773L1092.24 71.934L1083.79 72.2735L1084.12 80.5168L1079.26 80.7119ZM1110.72 79.6887C1108.62 79.7729 1106.87 79.4627 1105.49 78.7579C1104.1 78.0531 1103.04 76.9745 1102.32 75.5222C1101.62 74.0691 1101.23 72.2833 1101.15 70.1651L1100.68 58.5944L1105.54 58.3993L1106.01 70.2398C1106.05 71.0991 1106.21 71.9132 1106.5 72.6822C1106.79 73.4511 1107.27 74.0725 1107.93 74.5464C1108.59 75.0004 1109.48 75.2049 1110.6 75.1599C1111.73 75.1142 1112.58 74.8298 1113.14 74.307C1113.72 73.7833 1114.11 73.1274 1114.29 72.3392C1114.5 71.5502 1114.59 70.736 1114.56 69.8967L1114.08 58.0562L1118.94 57.8612L1119.4 69.4318C1119.49 71.5302 1119.24 73.3316 1118.66 74.836C1118.08 76.3405 1117.13 77.5094 1115.83 78.3425C1114.52 79.1557 1112.82 79.6044 1110.72 79.6887ZM1132.04 78.8324C1130.52 78.8934 1129.1 78.7102 1127.78 78.2827C1126.46 77.8353 1125.35 77.1093 1124.45 76.1046C1123.57 75.0792 1122.99 73.7511 1122.73 72.1205L1127.65 71.923C1127.83 72.5361 1128.14 73.0241 1128.57 73.3869C1129.03 73.749 1129.57 74.0075 1130.2 74.1624C1130.82 74.2974 1131.49 74.3509 1132.19 74.3228C1132.66 74.3035 1133.14 74.2343 1133.62 74.1151C1134.09 73.9759 1134.48 73.7601 1134.79 73.4674C1135.1 73.1748 1135.25 72.7787 1135.23 72.2791C1135.21 71.8994 1135.11 71.6033 1134.92 71.3907C1134.73 71.1581 1134.46 70.9787 1134.12 70.8524C1133.79 70.7054 1133.39 70.5816 1132.9 70.4809C1132.6 70.413 1132.29 70.3555 1131.96 70.3084C1131.64 70.2613 1131.33 70.2038 1131.03 70.1359C1130.72 70.068 1130.42 69.9901 1130.12 69.9023C1129.21 69.7186 1128.34 69.5033 1127.51 69.2564C1126.68 68.9896 1125.93 68.6392 1125.27 68.2052C1124.64 67.7705 1124.12 67.1906 1123.73 66.4657C1123.34 65.7407 1123.13 64.8287 1123.08 63.7295C1123.04 62.6704 1123.18 61.7639 1123.51 61.0101C1123.86 60.2354 1124.34 59.6058 1124.94 59.1213C1125.56 58.616 1126.23 58.2286 1126.96 57.9591C1127.71 57.6688 1128.46 57.4589 1129.19 57.3293C1129.95 57.1988 1130.64 57.1208 1131.28 57.0951C1132.7 57.0381 1133.97 57.2473 1135.09 57.7228C1136.23 58.1974 1137.16 58.9307 1137.88 59.9226C1138.62 60.8937 1139.09 62.1158 1139.29 63.589L1134.58 63.778C1134.48 63.2617 1134.26 62.8404 1133.9 62.5143C1133.57 62.1875 1133.14 61.9445 1132.61 61.7855C1132.11 61.6258 1131.52 61.5591 1130.86 61.5856C1130.46 61.6016 1130.08 61.6573 1129.7 61.7524C1129.34 61.8268 1129.03 61.9396 1128.75 62.0907C1128.5 62.2411 1128.29 62.4397 1128.12 62.6868C1127.96 62.913 1127.9 63.196 1127.91 63.5357C1127.92 63.8954 1128.06 64.2004 1128.31 64.4505C1128.56 64.6807 1128.9 64.8769 1129.35 65.0391C1129.82 65.2005 1130.38 65.3578 1131.05 65.5112C1131.52 65.6526 1131.99 65.7637 1132.48 65.8443C1132.98 65.9042 1133.46 65.9948 1133.93 66.1163C1134.77 66.2824 1135.55 66.4913 1136.26 66.743C1136.99 66.9739 1137.64 67.2883 1138.19 67.6863C1138.75 68.0643 1139.19 68.587 1139.52 69.2544C1139.86 69.9011 1140.06 70.734 1140.1 71.7531C1140.15 72.9921 1139.96 74.0505 1139.54 74.9283C1139.11 75.7861 1138.51 76.5008 1137.73 77.0725C1136.95 77.6441 1136.07 78.07 1135.08 78.3499C1134.11 78.629 1133.1 78.7899 1132.04 78.8324ZM1147.92 77.9541L1147.25 61.2276L1140.87 61.484L1140.69 56.9876L1158.37 56.2773L1158.55 60.7737L1152.11 61.0325L1152.78 77.759L1147.92 77.9541ZM1161.52 77.408L1160.67 56.1852L1165.52 55.9901L1166.2 72.7466L1176.66 72.3264L1176.84 76.7928L1161.52 77.408ZM1179.49 76.6861L1178.64 55.4633L1194.29 54.8348L1194.47 59.3312L1183.68 59.7646L1183.84 63.7814L1192.92 63.4166L1193.09 67.7331L1184.01 68.0979L1184.17 72.0247L1194.96 71.5913L1195.14 76.0577L1179.49 76.6861Z" fill="#D9F99D"/>
<path d="M1220.47 49.0193L1221.48 63.2815L1228.21 50.5428L1222.26 63.6417L1234.32 55.3797L1222.79 64.3147L1237.4 62.422L1222.92 65.146L1236.76 70.0563L1222.65 65.9454L1232.53 76.5338L1222.02 66.5297L1225.68 80.3704L1221.19 66.7649L1217.79 80.6874L1220.33 66.5974L1210.66 77.412L1219.66 66.0653L1205.93 71.2946L1219.32 65.2906L1204.67 63.7367L1219.39 64.4509L1207.18 56.4696L1219.86 63.7383L1212.88 51.1582L1220.61 63.3163L1220.47 49.0193Z" fill="#ECFCCB"/>
<path d="M1247.13 73.9697L1246.27 52.7468L1251.13 52.5518L1251.47 61.0649L1259.92 60.7254L1259.58 52.2123L1264.44 52.0172L1265.29 73.2401L1260.44 73.4352L1260.1 65.1918L1251.65 65.5313L1251.98 73.7747L1247.13 73.9697ZM1278.58 72.9465C1276.48 73.0308 1274.74 72.7205 1273.35 72.0157C1271.96 71.3109 1270.91 70.2323 1270.19 68.78C1269.49 67.3269 1269.1 65.5412 1269.01 63.4229L1268.55 51.8522L1273.4 51.6572L1273.88 63.4976C1273.91 64.3569 1274.08 65.1711 1274.37 65.94C1274.66 66.7089 1275.13 67.3304 1275.79 67.8043C1276.45 68.2582 1277.34 68.4627 1278.46 68.4178C1279.6 68.372 1280.45 68.0877 1281.01 67.5648C1281.59 67.0411 1281.97 66.3852 1282.16 65.597C1282.37 64.808 1282.46 63.9938 1282.42 63.1545L1281.95 51.3141L1286.8 51.119L1287.27 62.6897C1287.35 64.788 1287.1 66.5894 1286.52 68.0939C1285.94 69.5984 1285 70.7672 1283.69 71.6003C1282.38 72.4135 1280.68 72.8622 1278.58 72.9465ZM1299.9 72.0902C1298.38 72.1512 1296.96 71.968 1295.65 71.5406C1294.33 71.0932 1293.22 70.3671 1292.32 69.3625C1291.43 68.337 1290.86 67.009 1290.59 65.3783L1295.51 65.1809C1295.69 65.794 1296 66.2819 1296.44 66.6448C1296.89 67.0068 1297.44 67.2653 1298.06 67.4203C1298.69 67.5553 1299.35 67.6087 1300.05 67.5806C1300.53 67.5614 1301.01 67.4921 1301.48 67.373C1301.96 67.2338 1302.35 67.0179 1302.66 66.7253C1302.97 66.4327 1303.11 66.0366 1303.09 65.537C1303.08 65.1573 1302.97 64.8611 1302.78 64.6485C1302.6 64.4159 1302.33 64.2365 1301.98 64.1103C1301.66 63.9633 1301.25 63.8394 1300.77 63.7388C1300.46 63.6709 1300.15 63.6134 1299.83 63.5663C1299.51 63.5192 1299.19 63.4617 1298.89 63.3938C1298.59 63.3259 1298.28 63.248 1297.98 63.1601C1297.07 62.9764 1296.2 62.7611 1295.37 62.5142C1294.54 62.2474 1293.8 61.897 1293.14 61.4631C1292.5 61.0283 1291.99 60.4485 1291.6 59.7235C1291.21 58.9985 1290.99 58.0865 1290.95 56.9874C1290.91 55.9282 1291.05 55.0217 1291.38 54.2679C1291.73 53.4933 1292.2 52.8637 1292.8 52.3792C1293.42 51.8739 1294.1 51.4865 1294.83 51.217C1295.58 50.9267 1296.32 50.7167 1297.06 50.5871C1297.81 50.4567 1298.51 50.3786 1299.15 50.353C1300.57 50.296 1301.84 50.5052 1302.96 50.9806C1304.1 51.4553 1305.03 52.1885 1305.75 53.1804C1306.49 54.1515 1306.96 55.3737 1307.16 56.8468L1302.45 57.0359C1302.35 56.5195 1302.12 56.0983 1301.77 55.7722C1301.43 55.4453 1301 55.2024 1300.48 55.0434C1299.97 54.8836 1299.39 54.8169 1298.73 54.8434C1298.33 54.8595 1297.94 54.9151 1297.56 55.0103C1297.21 55.0847 1296.89 55.1974 1296.62 55.3486C1296.36 55.4989 1296.15 55.6976 1295.98 55.9446C1295.83 56.1708 1295.76 56.4538 1295.77 56.7936C1295.79 57.1533 1295.92 57.4582 1296.17 57.7084C1296.42 57.9385 1296.77 58.1347 1297.22 58.2969C1297.68 58.4583 1298.25 58.6157 1298.92 58.7691C1299.38 58.9105 1299.86 59.0215 1300.34 59.1022C1300.84 59.162 1301.33 59.2527 1301.79 59.3741C1302.64 59.5402 1303.42 59.7491 1304.13 60.0008C1304.86 60.2317 1305.5 60.5462 1306.06 60.9441C1306.61 61.3222 1307.06 61.8449 1307.38 62.5123C1307.73 63.1589 1307.92 63.9918 1307.96 65.011C1308.01 66.25 1307.83 67.3084 1307.4 68.1861C1306.97 69.0439 1306.37 69.7586 1305.59 70.3303C1304.82 70.902 1303.93 71.3278 1302.94 71.6077C1301.97 71.8869 1300.96 72.0477 1299.9 72.0902ZM1315.79 71.2119L1315.12 54.4854L1308.73 54.7419L1308.55 50.2455L1326.24 49.5352L1326.42 54.0315L1319.97 54.2904L1320.64 71.0169L1315.79 71.2119ZM1329.38 70.6659L1328.53 49.443L1333.39 49.248L1334.06 66.0045L1344.52 65.5843L1344.7 70.0507L1329.38 70.6659ZM1347.36 69.944L1346.51 48.7211L1362.15 48.0926L1362.33 52.589L1351.54 53.0224L1351.7 57.0392L1360.79 56.6744L1360.96 60.9909L1351.88 61.3557L1352.03 65.2825L1362.83 64.8491L1363.01 69.3155L1347.36 69.944Z" fill="#D9F99D"/>
<path d="M1388.34 42.2771L1389.35 56.5393L1396.07 43.8006L1390.13 56.8996L1402.18 48.6375L1390.65 57.5725L1405.27 55.6798L1390.79 58.4039L1404.62 63.3142L1390.51 59.2032L1400.39 69.7916L1389.89 59.7875L1393.55 73.6283L1389.05 60.0228L1385.66 73.9452L1388.2 59.8552L1378.53 70.6698L1387.53 59.3231L1373.79 64.5525L1387.19 58.5485L1372.54 56.9945L1387.26 57.7087L1375.05 49.7275L1387.72 56.9962L1380.75 44.4161L1388.48 56.5742L1388.34 42.2771Z" fill="#ECFCCB"/>
<path d="M1414.99 67.2276L1414.14 46.0047L1418.99 45.8097L1419.34 54.3228L1427.79 53.9833L1427.45 45.4701L1432.3 45.2751L1433.16 66.498L1428.3 66.693L1427.97 58.4497L1419.52 58.7892L1419.85 67.0325L1414.99 67.2276ZM1446.45 66.2044C1444.35 66.2887 1442.6 65.9784 1441.21 65.2736C1439.83 64.5688 1438.77 63.4902 1438.05 62.0379C1437.35 60.5848 1436.96 58.7991 1436.88 56.6808L1436.41 45.1101L1441.27 44.9151L1441.74 56.7555C1441.78 57.6148 1441.94 58.4289 1442.23 59.1979C1442.52 59.9668 1443 60.5882 1443.66 61.0622C1444.32 61.5161 1445.21 61.7206 1446.32 61.6756C1447.46 61.6299 1448.31 61.3456 1448.87 60.8227C1449.45 60.299 1449.84 59.6431 1450.02 58.8549C1450.23 58.0659 1450.32 57.2517 1450.29 56.4124L1449.81 44.5719L1454.67 44.3769L1455.13 55.9476C1455.22 58.0459 1454.97 59.8473 1454.39 61.3518C1453.81 62.8563 1452.86 64.0251 1451.56 64.8582C1450.25 65.6714 1448.54 66.1201 1446.45 66.2044ZM1467.77 65.3481C1466.25 65.4091 1464.83 65.2259 1463.51 64.7985C1462.19 64.351 1461.08 63.625 1460.18 62.6203C1459.3 61.5949 1458.72 60.2669 1458.46 58.6362L1463.37 58.4388C1463.56 59.0518 1463.87 59.5398 1464.3 59.9026C1464.76 60.2647 1465.3 60.5232 1465.93 60.6782C1466.55 60.8131 1467.21 60.8666 1467.91 60.8385C1468.39 60.8192 1468.87 60.75 1469.35 60.6308C1469.82 60.4917 1470.21 60.2758 1470.52 59.9832C1470.83 59.6905 1470.97 59.2944 1470.95 58.7948C1470.94 58.4151 1470.84 58.119 1470.65 57.9064C1470.46 57.6738 1470.19 57.4944 1469.85 57.3682C1469.52 57.2211 1469.12 57.0973 1468.63 56.9967C1468.33 56.9288 1468.02 56.8713 1467.69 56.8241C1467.37 56.777 1467.06 56.7195 1466.76 56.6516C1466.45 56.5837 1466.15 56.5059 1465.85 56.418C1464.94 56.2343 1464.07 56.019 1463.24 55.7721C1462.41 55.5053 1461.66 55.1549 1461 54.7209C1460.37 54.2862 1459.85 53.7063 1459.46 52.9814C1459.07 52.2564 1458.86 51.3444 1458.81 50.2453C1458.77 49.1861 1458.91 48.2796 1459.24 47.5258C1459.59 46.7511 1460.07 46.1216 1460.67 45.637C1461.29 45.1317 1461.96 44.7443 1462.69 44.4748C1463.44 44.1846 1464.18 43.9746 1464.92 43.845C1465.68 43.7146 1466.37 43.6365 1467.01 43.6108C1468.43 43.5538 1469.7 43.7631 1470.82 44.2385C1471.96 44.7131 1472.89 45.4464 1473.61 46.4383C1474.35 47.4094 1474.82 48.6315 1475.02 50.1047L1470.31 50.2937C1470.21 49.7774 1469.99 49.3561 1469.63 49.0301C1469.3 48.7032 1468.87 48.4602 1468.34 48.3013C1467.83 48.1415 1467.25 48.0748 1466.59 48.1013C1466.19 48.1174 1465.8 48.173 1465.43 48.2682C1465.07 48.3426 1464.75 48.4553 1464.48 48.6064C1464.23 48.7568 1464.01 48.9554 1463.84 49.2025C1463.69 49.4287 1463.62 49.7117 1463.64 50.0514C1463.65 50.4111 1463.78 50.7161 1464.03 50.9662C1464.28 51.1964 1464.63 51.3926 1465.08 51.5548C1465.55 51.7162 1466.11 51.8736 1466.78 52.0269C1467.25 52.1683 1467.72 52.2794 1468.2 52.36C1468.71 52.4199 1469.19 52.5106 1469.66 52.632C1470.5 52.7981 1471.28 53.007 1471.99 53.2587C1472.72 53.4896 1473.37 53.804 1473.92 54.202C1474.48 54.58 1474.92 55.1027 1475.25 55.7702C1475.59 56.4168 1475.79 57.2497 1475.83 58.2689C1475.88 59.5079 1475.69 60.5662 1475.26 61.444C1474.84 62.3018 1474.24 63.0165 1473.46 63.5882C1472.68 64.1599 1471.8 64.5857 1470.81 64.8656C1469.84 65.1447 1468.82 65.3056 1467.77 65.3481ZM1483.65 64.4698L1482.98 47.7433L1476.6 47.9997L1476.42 43.5034L1494.1 42.793L1494.28 47.2894L1487.84 47.5482L1488.51 64.2748L1483.65 64.4698ZM1497.25 63.9238L1496.4 42.7009L1501.25 42.5058L1501.92 59.2623L1512.39 58.8421L1512.57 63.3085L1497.25 63.9238ZM1515.22 63.2019L1514.37 41.979L1530.02 41.3505L1530.2 45.8469L1519.41 46.2803L1519.57 50.2971L1528.65 49.9323L1528.82 54.2488L1519.74 54.6136L1519.9 58.5404L1530.69 58.107L1530.87 62.5734L1515.22 63.2019Z" fill="#D9F99D"/>
</svg>
