<svg width="21" height="20" viewBox="0 0 21 20" fill="none" xmlns="http://www.w3.org/2000/svg">
<g clip-path="url(#clip0_31_45)">
<path fill-rule="evenodd" clip-rule="evenodd" d="M4.80305 10C4.80305 9.36489 4.90853 8.756 5.0968 8.18489L1.80145 5.66844C1.15921 6.97244 0.797363 8.44178 0.797363 10C0.797363 11.5569 1.15876 13.0253 1.80012 14.3284L5.09368 11.8071C4.90719 11.2387 4.80305 10.632 4.80305 10Z" fill="#FBBC05"/>
<path fill-rule="evenodd" clip-rule="evenodd" d="M10.5888 4.22221C11.9686 4.22221 13.2148 4.7111 14.194 5.5111L17.0424 2.66666C15.3067 1.15555 13.0813 0.222214 10.5888 0.222214C6.71936 0.222214 3.39375 2.4351 1.80127 5.66844L5.09661 8.18488C5.85591 5.87999 8.02031 4.22221 10.5888 4.22221Z" fill="#EB4335"/>
<path fill-rule="evenodd" clip-rule="evenodd" d="M10.5888 15.7778C8.02031 15.7778 5.85591 14.12 5.09661 11.8151L1.80127 14.3311C3.39375 17.5649 6.71936 19.7778 10.5888 19.7778C12.9771 19.7778 15.2572 18.9298 16.9686 17.3409L13.8406 14.9227C12.958 15.4787 11.8466 15.7778 10.5888 15.7778Z" fill="#34A853"/>
<path fill-rule="evenodd" clip-rule="evenodd" d="M19.9355 9.99999C19.9355 9.42221 19.8464 8.79999 19.7129 8.22221H10.5889V12H15.8408C15.5782 13.288 14.8634 14.2782 13.8406 14.9227L16.9686 17.3409C18.7662 15.6724 19.9355 13.1871 19.9355 9.99999Z" fill="#4285F4"/>
</g>
<defs>
<clipPath id="clip0_31_45">
<rect width="20" height="20" fill="white" transform="translate(0.5)"/>
</clipPath>
</defs>
</svg>
