<svg width="21" height="20" viewBox="0 0 21 20" fill="none" xmlns="http://www.w3.org/2000/svg">
<path d="M10.4998 19.2308C15.5978 19.2308 19.7306 15.098 19.7306 10C19.7306 4.90198 15.5978 0.769226 10.4998 0.769226C5.4018 0.769226 1.26904 4.90198 1.26904 10C1.26904 15.098 5.4018 19.2308 10.4998 19.2308Z" fill="url(#paint0_linear_31_55)"/>
<path d="M13.8421 12.7745L14.2407 10.1494H11.7469V8.44661C11.7469 7.72826 12.0946 7.02766 13.2116 7.02766H14.3461V4.79276C14.3461 4.79276 13.3169 4.61539 12.3335 4.61539C10.2787 4.61539 8.93695 5.87293 8.93695 8.14859V10.1494H6.65381V12.7745H8.93695V19.1208C9.39528 19.1936 9.86419 19.2308 10.3419 19.2308C10.8196 19.2308 11.2886 19.1936 11.7469 19.1208V12.7745H13.8421Z" fill="white"/>
<defs>
<linearGradient id="paint0_linear_31_55" x1="10.4998" y1="0.769226" x2="10.4998" y2="19.176" gradientUnits="userSpaceOnUse">
<stop stop-color="#18ACFE"/>
<stop offset="1" stop-color="#0163E0"/>
</linearGradient>
</defs>
</svg>
