<?xml version="1.0" encoding="UTF-8"?>
<svg id="Layer_1" data-name="Layer 1" xmlns="http://www.w3.org/2000/svg" viewBox="0 0 1254.66 258.48">
  <defs>
    <style>
      .cls-1 {
        fill: #f2873a;
      }

      .cls-1, .cls-2 {
        stroke-width: 0px;
      }

      .cls-2 {
        fill: #1e1e1e;
      }
    </style>
  </defs>
  <g>
    <polygon class="cls-2" points="100.41 0 1.43 98.97 22.11 119.65 100.41 41.36 178.7 119.65 199.38 98.97 100.41 0"/>
    <path class="cls-1" d="m100.23,171.07l-2.83.02-26.96,26.96,29.83-.11h.28l48.96.2h37.99l13.32-13.3-100.4-100.42v-.02h-.02v.02L0,184.84l54.03,54.03c12.82,12.8,29.55,19.35,46.39,19.58.33.02.7.02,1.04.02,17.19,0,34.38-6.55,47.46-19.61l24.09-24.07h-38.02l-5.07,5.07c-8.12,8.09-18.87,12.01-29.51,11.73-9.94-.24-19.85-4.18-27.4-11.73l-21.74-21.74-13.23-13.38,13.49-13.49,48.85-48.85,48.85,48.85-48.66-.2h-.37Z"/>
  </g>
  <g>
    <g>
      <path class="cls-2" d="m264.64,80.26v-21.99h119.58v21.99h-119.58Zm47.75,124.6V62.46h24.08v142.4h-24.08Z"/>
      <path class="cls-2" d="m422.12,206.96c-9.77,0-18.64-2.34-26.6-7.02-7.96-4.68-14.28-11-18.95-18.95-4.68-7.96-7.02-16.82-7.02-26.6s2.34-18.57,7.02-26.39c4.68-7.82,10.99-14.06,18.95-18.74,7.96-4.68,16.82-7.02,26.6-7.02s18.85,2.3,26.81,6.91c7.96,4.61,14.27,10.86,18.95,18.74,4.68,7.89,7.02,16.72,7.02,26.49s-2.34,18.64-7.02,26.6c-4.68,7.96-10.99,14.28-18.95,18.95-7.96,4.68-16.89,7.02-26.81,7.02Zm0-22.2c5.72,0,10.79-1.29,15.18-3.87,4.4-2.58,7.82-6.18,10.26-10.79,2.44-4.61,3.67-9.84,3.67-15.71s-1.26-11.03-3.77-15.5c-2.51-4.47-5.94-7.99-10.26-10.58-4.33-2.58-9.36-3.87-15.08-3.87s-10.58,1.29-14.97,3.87c-4.4,2.59-7.82,6.11-10.26,10.58-2.44,4.47-3.66,9.63-3.66,15.5s1.22,11.1,3.66,15.71c2.44,4.61,5.86,8.2,10.26,10.79,4.4,2.58,9.39,3.87,14.97,3.87Z"/>
      <path class="cls-2" d="m493.95,246.75V104.35h23.04v27.02l-3.98,24.5,3.98,24.29v66.59h-23.04Zm53.82-39.79c-7.68,0-14.52-1.64-20.52-4.92-6-3.28-10.72-7.78-14.14-13.51-3.42-5.72-5.13-12.21-5.13-19.48v-28.9c0-7.26,1.74-13.75,5.23-19.48,3.49-5.72,8.24-10.23,14.24-13.51,6-3.28,12.77-4.92,20.31-4.92,9.07,0,17.28,2.34,24.61,7.02,7.33,4.68,13.12,10.96,17.38,18.85,4.26,7.89,6.39,16.79,6.39,26.7s-2.13,18.6-6.39,26.49c-4.26,7.89-10.05,14.14-17.38,18.74-7.33,4.61-15.53,6.91-24.61,6.91Zm-3.77-21.78c5.58,0,10.5-1.29,14.76-3.87,4.26-2.58,7.61-6.18,10.05-10.78,2.44-4.61,3.67-9.91,3.67-15.92s-1.22-11.31-3.67-15.92c-2.44-4.61-5.79-8.2-10.05-10.78-4.26-2.58-9.18-3.87-14.76-3.87s-10.54,1.29-14.87,3.87c-4.33,2.58-7.68,6.18-10.05,10.78-2.38,4.61-3.56,9.91-3.56,15.92s1.18,11.31,3.56,15.92c2.37,4.61,5.72,8.2,10.05,10.78,4.33,2.59,9.28,3.87,14.87,3.87Z"/>
      <path class="cls-2" d="m662.11,206.96c-10.05,0-19.09-2.27-27.12-6.81-8.03-4.53-14.38-10.78-19.06-18.74-4.68-7.96-7.02-16.89-7.02-26.81s2.3-18.81,6.91-26.7c4.61-7.89,10.85-14.14,18.74-18.74,7.89-4.61,16.65-6.91,26.28-6.91s17.62,2.17,24.82,6.49c7.19,4.33,12.84,10.26,16.96,17.8,4.12,7.54,6.18,16.12,6.18,25.76,0,1.68-.11,3.39-.32,5.13-.21,1.75-.52,3.66-.94,5.76h-82.51v-18.85h70.57l-8.59,7.54c-.28-6.14-1.47-11.31-3.56-15.5-2.09-4.19-5.06-7.4-8.9-9.63-3.84-2.23-8.55-3.35-14.14-3.35-5.86,0-10.96,1.26-15.29,3.77-4.33,2.51-7.68,6.04-10.05,10.58-2.38,4.54-3.56,9.95-3.56,16.23s1.26,11.8,3.77,16.54c2.51,4.75,6.07,8.41,10.68,10.99,4.61,2.59,9.91,3.87,15.92,3.87,5.16,0,9.95-.91,14.35-2.72,4.4-1.81,8.13-4.47,11.2-7.96l14.66,14.87c-4.89,5.73-10.82,10.05-17.8,12.98-6.98,2.93-14.38,4.4-22.2,4.4Z"/>
      <path class="cls-2" d="m714.05,204.87l40.63-56.33,13.4,16.54-27.22,39.79h-26.8Zm73.92,0l-28.9-42.51-4.19-3.77-38.95-54.24h27.85l25.76,37.28,3.98,3.56,42.09,59.68h-27.64Zm-12.36-46.7l-13.61-16.33,25.13-37.49h26.6l-38.11,53.82Z"/>
      <path class="cls-2" d="m830.9,246.75V104.35h23.04v27.02l-3.98,24.5,3.98,24.29v66.59h-23.04Zm53.82-39.79c-7.68,0-14.52-1.64-20.52-4.92-6.01-3.28-10.72-7.78-14.14-13.51-3.42-5.72-5.13-12.21-5.13-19.48v-28.9c0-7.26,1.75-13.75,5.24-19.48,3.49-5.72,8.24-10.23,14.24-13.51,6-3.28,12.77-4.92,20.31-4.92,9.07,0,17.28,2.34,24.61,7.02,7.33,4.68,13.12,10.96,17.38,18.85,4.26,7.89,6.39,16.79,6.39,26.7s-2.13,18.6-6.39,26.49c-4.26,7.89-10.05,14.14-17.38,18.74-7.33,4.61-15.53,6.91-24.61,6.91Zm-3.77-21.78c5.58,0,10.5-1.29,14.76-3.87,4.26-2.58,7.61-6.18,10.05-10.78,2.44-4.61,3.67-9.91,3.67-15.92s-1.22-11.31-3.67-15.92c-2.44-4.61-5.8-8.2-10.05-10.78-4.26-2.58-9.18-3.87-14.76-3.87s-10.54,1.29-14.87,3.87c-4.33,2.58-7.68,6.18-10.05,10.78-2.38,4.61-3.56,9.91-3.56,15.92s1.18,11.31,3.56,15.92c2.37,4.61,5.72,8.2,10.05,10.78,4.33,2.59,9.28,3.87,14.87,3.87Z"/>
      <path class="cls-2" d="m999.06,206.96c-10.05,0-19.09-2.27-27.12-6.81-8.03-4.53-14.38-10.78-19.06-18.74-4.68-7.96-7.01-16.89-7.01-26.81s2.3-18.81,6.91-26.7c4.61-7.89,10.85-14.14,18.74-18.74,7.88-4.61,16.65-6.91,26.28-6.91s17.62,2.17,24.82,6.49c7.19,4.33,12.84,10.26,16.96,17.8,4.12,7.54,6.18,16.12,6.18,25.76,0,1.68-.11,3.39-.32,5.13-.21,1.75-.52,3.66-.94,5.76h-82.51v-18.85h70.57l-8.59,7.54c-.28-6.14-1.47-11.31-3.56-15.5-2.09-4.19-5.06-7.4-8.9-9.63-3.84-2.23-8.55-3.35-14.14-3.35-5.86,0-10.96,1.26-15.29,3.77-4.33,2.51-7.68,6.04-10.05,10.58-2.38,4.54-3.56,9.95-3.56,16.23s1.26,11.8,3.77,16.54c2.51,4.75,6.07,8.41,10.68,10.99,4.61,2.59,9.91,3.87,15.92,3.87,5.16,0,9.95-.91,14.35-2.72,4.4-1.81,8.13-4.47,11.2-7.96l14.66,14.87c-4.89,5.73-10.82,10.05-17.8,12.98-6.98,2.93-14.38,4.4-22.2,4.4Z"/>
      <path class="cls-2" d="m1064.19,204.87v-100.52h23.04v100.52h-23.04Zm23.04-55.91l-7.96-3.98c0-12.7,2.83-23,8.48-30.89,5.65-7.89,14.2-11.83,25.65-11.83,5.03,0,9.56.91,13.61,2.72,4.05,1.82,7.82,4.75,11.31,8.8l-15.08,15.5c-1.82-1.95-3.84-3.35-6.07-4.19-2.24-.84-4.82-1.26-7.75-1.26-6.42,0-11.73,2.03-15.92,6.07-4.19,4.05-6.28,10.4-6.28,19.06Z"/>
      <path class="cls-2" d="m1141.04,125.29v-20.94h71.2v20.94h-71.2Zm24.08,79.58V62.46h23.04v142.4h-23.04Z"/>
    </g>
    <circle class="cls-1" cx="1236.68" cy="188.98" r="17.98"/>
  </g>
</svg>