<svg width="29" height="29" viewBox="0 0 29 29" fill="none" xmlns="http://www.w3.org/2000/svg">
<g clip-path="url(#clip0_57_1239)">
<path d="M17.23 24.9219H28.1504C28.6197 24.9219 29 24.5415 29 24.0723V13.1519C29 12.6826 28.6197 12.3023 28.1504 12.3023H23.5399V4.96159C23.5399 4.49253 23.1596 4.11198 22.6903 4.11198H19.9601C19.5943 4.11198 19.2698 4.34606 19.1543 4.69299L16.4242 12.8833C16.3952 12.9698 16.3804 13.0605 16.3804 13.1519V24.0723C16.3804 24.5415 16.7608 24.9219 17.23 24.9219Z" fill="#FFEDD5"/>
<path d="M0.849174 24.9219H11.7695C12.2388 24.9219 12.6191 24.5415 12.6191 24.0723V13.1519C12.6191 12.6826 12.2388 12.3023 11.7695 12.3023H7.15885V4.96159C7.15885 4.49253 6.77852 4.11198 6.30924 4.11198H3.57921C3.21348 4.11198 2.8889 4.34606 2.77319 4.69299L0.0431519 12.8833C0.014389 12.9698 -0.000434875 13.0605 -0.000434875 13.1519V24.0723C-0.000434875 24.5415 0.379898 24.9219 0.849174 24.9219Z" fill="#FFEDD5"/>
</g>
<defs>
<clipPath id="clip0_57_1239">
<rect width="29" height="29" fill="white" transform="matrix(-1 0 0 -1 29 29)"/>
</clipPath>
</defs>
</svg>
