<svg width="17" height="17" viewBox="0 0 17 17" fill="none" xmlns="http://www.w3.org/2000/svg">
<path d="M7.6143 1.73542C8.10305 1.3175 8.90346 1.3175 9.3993 1.73542L10.5185 2.69875C10.731 2.88292 11.1276 3.03167 11.411 3.03167H12.6151C13.366 3.03167 13.9822 3.64792 13.9822 4.39875V5.60292C13.9822 5.87917 14.131 6.28292 14.3151 6.49542L15.2785 7.61459C15.6964 8.10334 15.6964 8.90375 15.2785 9.39959L14.3151 10.5188C14.131 10.7313 13.9822 11.1279 13.9822 11.4113V12.6154C13.9822 13.3663 13.366 13.9825 12.6151 13.9825H11.411C11.1347 13.9825 10.731 14.1313 10.5185 14.3154L9.3993 15.2788C8.91055 15.6967 8.11013 15.6967 7.6143 15.2788L6.49513 14.3154C6.28263 14.1313 5.88596 13.9825 5.60263 13.9825H4.37721C3.62638 13.9825 3.01013 13.3663 3.01013 12.6154V11.4042C3.01013 11.1279 2.86138 10.7313 2.6843 10.5188L1.72805 9.3925C1.31721 8.90375 1.31721 8.11042 1.72805 7.62167L2.6843 6.49542C2.86138 6.28292 3.01013 5.88625 3.01013 5.61V4.39167C3.01013 3.64084 3.62638 3.02459 4.37721 3.02459H5.60263C5.87888 3.02459 6.28263 2.87584 6.49513 2.69167L7.6143 1.73542Z" fill="white"/>
<path d="M5.93555 8.49999L7.64263 10.2142L11.0639 6.78583" stroke="#10B981" stroke-width="1.5" stroke-linecap="round" stroke-linejoin="round"/>
</svg>
