<svg width="321" height="341" viewBox="0 0 321 341" fill="none" xmlns="http://www.w3.org/2000/svg">
<ellipse cx="172.66" cy="166.318" rx="68.8353" ry="68.2711" fill="#3B82F6"/>
<path d="M157.984 163.89C157.133 168.051 156.281 172.211 155.929 176.474L154.972 176.279C150.202 176.636 145.503 177.643 141.006 179.272C138.318 180.219 135.732 181.433 133.285 182.894C130.091 175.098 129.288 166.529 130.977 158.275C132.667 150.021 136.773 142.456 142.773 136.543C144.449 138.848 146.35 140.98 148.45 142.907C151.91 146.225 155.809 149.051 160.04 151.305L161.039 151.509C159.854 155.602 158.836 159.729 157.984 163.89ZM145.943 133.767C147.601 136.096 149.501 138.243 151.611 140.172C154.752 143.035 158.266 145.461 162.057 147.383C163.548 142.502 165.393 137.736 167.577 133.123C168.991 129.972 170.751 126.988 172.823 124.226C163.034 124.23 153.544 127.598 145.943 133.767ZM188.858 127.638C189.678 130.993 190.123 134.428 190.186 137.881C190.385 142.939 190.217 148.004 189.685 153.038C193.949 152.737 198.152 151.863 202.182 150.437C204.913 149.534 207.54 148.342 210.019 146.883C205.389 138.225 197.915 131.428 188.858 127.638ZM159.717 180.415C159.063 186.316 158.919 192.262 159.287 198.187C159.424 201.497 160.055 204.768 161.159 207.891L164.03 208.479L166.901 209.067C169.131 206.653 170.991 203.922 172.419 200.962C175.085 195.658 177.29 190.133 179.007 184.45C172.911 181.829 166.352 180.457 159.717 180.415ZM184.858 157.556C181.437 157.52 178.028 157.156 174.676 156.469C171.325 155.783 168.046 154.778 164.886 153.468C163.871 156.945 162.963 160.747 162.145 164.741C161.328 168.736 160.544 172.564 160.228 176.227C167.084 176.308 173.863 177.696 180.2 180.315C181.215 176.838 182.123 173.036 182.941 169.041C183.758 165.047 184.426 161.152 184.858 157.556ZM185.807 135.554C185.671 132.244 185.04 128.973 183.935 125.85L181.064 125.262L178.193 124.675C175.963 127.088 174.104 129.82 172.676 132.779C170.009 138.084 167.805 143.608 166.088 149.292C172.195 151.886 178.759 153.229 185.394 153.243C186.038 147.37 186.176 141.451 185.807 135.554ZM211.826 150.764C209.38 152.226 206.793 153.439 204.105 154.386C199.607 156.045 194.902 157.08 190.123 157.463L189.166 157.267C188.647 161.496 187.962 165.691 187.11 169.852C186.258 174.012 185.407 178.173 184.056 182.232L185.003 182.686C189.236 184.886 193.147 187.655 196.627 190.918C198.727 192.844 200.629 194.976 202.304 197.282C208.305 191.368 212.411 183.803 214.1 175.55C215.79 167.296 214.986 158.726 211.792 150.93L211.826 150.764ZM193.483 193.569C190.342 190.706 186.828 188.281 183.038 186.359C181.547 191.24 179.702 196.006 177.518 200.619C176.103 203.769 174.344 206.753 172.272 209.516C182.09 209.589 191.633 206.276 199.293 200.134C197.599 197.742 195.651 195.541 193.483 193.569ZM154.908 195.861C154.71 190.803 154.877 185.737 155.41 180.703C151.146 181.004 146.942 181.879 142.912 183.304C140.181 184.208 137.554 185.399 135.075 186.859C139.706 195.516 147.179 202.313 156.237 206.103C155.417 202.749 154.971 199.313 154.908 195.861Z" fill="black"/>
<path d="M163.592 220.281L162.223 226.972L160.808 226.682L161.939 221.158L159.071 220.571L159.31 219.405L163.592 220.281Z" fill="white"/>
<path d="M158.292 218.961L156.207 225.464L151.825 224.059L152.188 222.926L155.195 223.89L155.692 222.34L152.91 221.448L153.274 220.315L156.055 221.206L156.553 219.654L153.533 218.686L153.897 217.552L158.292 218.961Z" fill="white"/>
<path d="M150.653 222.35L150.169 223.438L145.044 221.158L145.528 220.07L147.438 220.92L149.73 215.768L151.034 216.348L148.742 221.5L150.653 222.35Z" fill="white"/>
<path d="M141.434 219.081L141.796 218.458C141.899 218.281 142.038 218.121 142.215 217.976C142.388 217.833 142.579 217.713 142.788 217.615C142.995 217.52 143.199 217.455 143.399 217.419L143.755 218.055C143.571 218.15 143.388 218.269 143.208 218.411C143.026 218.552 142.863 218.745 142.722 218.989L142.356 219.617L141.434 219.081Z" fill="white"/>
<path d="M136.712 213.51C136.573 213.742 136.542 213.978 136.616 214.218C136.69 214.458 136.867 214.681 137.146 214.887C137.336 215.026 137.516 215.118 137.686 215.16C137.855 215.205 138.009 215.206 138.147 215.164C138.284 215.122 138.396 215.041 138.483 214.923C138.559 214.827 138.601 214.726 138.611 214.62C138.618 214.512 138.602 214.402 138.561 214.289C138.518 214.177 138.459 214.063 138.382 213.946C138.305 213.831 138.216 213.715 138.115 213.6L137.709 213.118C137.508 212.888 137.341 212.654 137.207 212.417C137.072 212.179 136.98 211.941 136.929 211.703C136.879 211.464 136.879 211.226 136.929 210.99C136.977 210.752 137.085 210.518 137.252 210.287C137.502 209.952 137.802 209.724 138.154 209.602C138.503 209.481 138.887 209.47 139.306 209.569C139.722 209.668 140.153 209.882 140.6 210.212C141.044 210.539 141.381 210.892 141.61 211.271C141.837 211.648 141.944 212.038 141.932 212.441C141.917 212.844 141.768 213.246 141.485 213.648L140.361 212.819C140.484 212.626 140.545 212.433 140.543 212.241C140.537 212.049 140.479 211.864 140.368 211.685C140.253 211.507 140.096 211.344 139.896 211.196C139.699 211.051 139.507 210.954 139.32 210.904C139.131 210.854 138.958 210.849 138.803 210.892C138.647 210.935 138.52 211.022 138.423 211.155C138.332 211.278 138.292 211.409 138.303 211.547C138.313 211.684 138.366 211.833 138.462 211.995C138.556 212.156 138.685 212.334 138.85 212.53L139.338 213.122C139.718 213.576 139.954 214.022 140.046 214.46C140.138 214.897 140.033 215.319 139.732 215.724C139.488 216.058 139.185 216.283 138.823 216.4C138.459 216.516 138.068 216.527 137.65 216.434C137.232 216.342 136.823 216.148 136.422 215.852C136.014 215.552 135.71 215.219 135.508 214.856C135.305 214.49 135.21 214.121 135.224 213.747C135.237 213.373 135.362 213.02 135.598 212.689L136.712 213.51Z" fill="white"/>
<path d="M133.712 204.383L128.573 208.881L127.622 207.794L129.743 205.939L127.812 203.733L125.692 205.589L124.743 204.505L129.882 200.007L130.831 201.091L128.708 202.949L130.639 205.155L132.761 203.297L133.712 204.383Z" fill="white"/>
<path d="M129.218 199.004L130.105 200.272L123.159 202.256L122.092 200.731L126.337 194.887L127.224 196.155L123.888 200.577L123.919 200.62L129.218 199.004ZM127.074 200.622L124.979 197.628L125.903 196.982L127.998 199.976L127.074 200.622Z" fill="white"/>
<path d="M119.989 197.365L123.742 193.421L123.712 193.365L118.368 194.413L117.597 193.01L124.716 191.786L125.612 193.417L120.761 198.771L119.989 197.365Z" fill="white"/>
<path d="M123.656 189.712L117.35 192.333L115.584 188.084L116.683 187.627L117.895 190.543L119.398 189.918L118.277 187.221L119.376 186.764L120.497 189.461L122.003 188.835L120.786 185.907L121.885 185.45L123.656 189.712Z" fill="white"/>
<path d="M119.748 177.828L120.021 179.351L112.883 178.235L112.555 176.404L118.862 172.882L119.135 174.405L114.251 177.018L114.26 177.07L119.748 177.828ZM117.123 178.397L116.479 174.8L117.588 174.601L118.232 178.198L117.123 178.397Z" fill="white"/>
<path d="M114.391 161.214L114.333 162.673C114.144 162.692 113.974 162.74 113.824 162.817C113.672 162.893 113.541 162.993 113.432 163.118C113.322 163.243 113.236 163.389 113.174 163.555C113.112 163.72 113.077 163.9 113.069 164.095C113.055 164.448 113.131 164.759 113.296 165.028C113.459 165.297 113.704 165.51 114.032 165.668C114.357 165.825 114.756 165.913 115.229 165.932C115.716 165.951 116.127 165.895 116.464 165.764C116.801 165.63 117.059 165.436 117.238 165.18C117.417 164.925 117.513 164.625 117.527 164.281C117.535 164.087 117.516 163.908 117.472 163.741C117.427 163.573 117.358 163.422 117.266 163.289C117.171 163.157 117.054 163.045 116.915 162.955C116.776 162.863 116.617 162.797 116.436 162.756L116.5 161.297C116.812 161.347 117.11 161.453 117.395 161.616C117.678 161.776 117.929 161.987 118.148 162.25C118.364 162.509 118.532 162.816 118.652 163.17C118.769 163.522 118.819 163.917 118.802 164.354C118.778 164.963 118.619 165.502 118.325 165.971C118.03 166.437 117.617 166.799 117.084 167.056C116.551 167.311 115.914 167.424 115.172 167.395C114.428 167.365 113.8 167.201 113.289 166.9C112.778 166.6 112.395 166.204 112.141 165.714C111.885 165.223 111.768 164.678 111.792 164.078C111.807 163.683 111.877 163.318 112.002 162.985C112.126 162.65 112.3 162.355 112.524 162.101C112.745 161.847 113.012 161.644 113.325 161.492C113.639 161.338 113.994 161.245 114.391 161.214Z" fill="white"/>
<path d="M118.809 161.843L112.054 160.838L112.267 159.41L115.054 159.825L115.485 156.926L112.698 156.511L112.911 155.086L119.665 156.091L119.453 157.516L116.663 157.101L116.231 160L119.022 160.415L118.809 161.843Z" fill="white"/>
<path d="M120.045 154.634L119.653 156.13L113.644 152.12L114.115 150.32L121.318 149.772L120.926 151.269L115.396 151.589L115.382 151.641L120.045 154.634ZM117.424 154.047L118.349 150.512L119.44 150.797L118.514 154.333L117.424 154.047Z" fill="white"/>
<path d="M116.033 148.007L114.921 147.583L116.92 142.342L118.032 142.767L117.287 144.72L122.555 146.73L122.047 148.063L116.778 146.054L116.033 148.007Z" fill="white"/>
<path d="M126.621 136.357C126.474 136.581 126.284 136.751 126.052 136.865C125.819 136.977 125.572 137.028 125.313 137.018C125.056 137.005 124.814 136.925 124.589 136.778C124.363 136.629 124.193 136.439 124.081 136.209C123.969 135.975 123.919 135.729 123.931 135.472C123.942 135.213 124.021 134.971 124.168 134.746C124.317 134.519 124.508 134.35 124.74 134.24C124.972 134.126 125.217 134.075 125.474 134.088C125.731 134.097 125.973 134.176 126.2 134.325C126.425 134.472 126.594 134.663 126.706 134.897C126.82 135.128 126.872 135.374 126.861 135.633C126.85 135.889 126.77 136.13 126.621 136.357Z" fill="white"/>
<path d="M133.657 129.533L128.888 124.645L129.921 123.637L133.859 127.673L135.954 125.628L136.786 126.48L133.657 129.533Z" fill="white"/>
<path d="M137.519 125.862L133.306 120.487L136.928 117.648L137.662 118.585L135.177 120.533L136.181 121.814L138.48 120.012L139.214 120.949L136.915 122.751L137.921 124.034L140.417 122.078L141.151 123.015L137.519 125.862Z" fill="white"/>
<path d="M139.001 117.637L138.372 116.626L143.135 113.664L143.763 114.675L141.988 115.779L144.966 120.567L143.754 121.321L140.776 116.533L139.001 117.637Z" fill="white"/>
<path d="M146.88 111.842L147.192 112.491C147.281 112.675 147.335 112.881 147.356 113.108C147.377 113.332 147.37 113.557 147.333 113.784C147.296 114.01 147.236 114.215 147.152 114.401L146.427 114.339C146.451 114.132 146.455 113.914 146.438 113.686C146.424 113.456 146.356 113.213 146.234 112.959L145.919 112.304L146.88 111.842Z" fill="white"/>
<path d="M154.141 111.06C154.026 110.815 153.849 110.656 153.608 110.583C153.368 110.51 153.084 110.531 152.757 110.647C152.535 110.725 152.359 110.823 152.228 110.94C152.096 111.055 152.009 111.181 151.966 111.319C151.925 111.456 151.929 111.594 151.978 111.732C152.014 111.849 152.074 111.941 152.157 112.009C152.241 112.075 152.342 112.123 152.459 112.153C152.574 112.18 152.702 112.195 152.842 112.198C152.981 112.198 153.127 112.189 153.278 112.171L153.906 112.105C154.209 112.068 154.496 112.061 154.768 112.083C155.04 112.105 155.289 112.162 155.515 112.254C155.741 112.346 155.937 112.479 156.105 112.654C156.275 112.827 156.408 113.048 156.505 113.315C156.642 113.71 156.662 114.087 156.566 114.447C156.47 114.803 156.264 115.127 155.947 115.419C155.632 115.707 155.212 115.944 154.688 116.129C154.168 116.313 153.687 116.393 153.245 116.37C152.806 116.346 152.422 116.216 152.096 115.98C151.771 115.742 151.522 115.392 151.348 114.933L152.665 114.467C152.756 114.678 152.881 114.836 153.041 114.942C153.203 115.046 153.389 115.101 153.599 115.11C153.811 115.115 154.034 115.076 154.269 114.993C154.499 114.912 154.688 114.807 154.834 114.68C154.982 114.552 155.082 114.412 155.134 114.259C155.186 114.107 155.185 113.953 155.13 113.798C155.079 113.653 154.993 113.547 154.872 113.478C154.754 113.409 154.6 113.369 154.412 113.358C154.227 113.346 154.006 113.353 153.752 113.379L152.988 113.451C152.399 113.511 151.897 113.456 151.483 113.286C151.07 113.117 150.78 112.793 150.614 112.317C150.474 111.928 150.457 111.551 150.564 111.185C150.673 110.819 150.883 110.489 151.194 110.195C151.505 109.901 151.895 109.671 152.365 109.505C152.842 109.336 153.288 109.271 153.703 109.308C154.119 109.345 154.478 109.474 154.78 109.695C155.082 109.916 155.304 110.217 155.446 110.598L154.141 111.06Z" fill="white"/>
<path d="M163.378 113.698L162.54 106.921L163.973 106.744L164.319 109.54L167.227 109.18L166.881 106.384L168.311 106.207L169.15 112.984L167.72 113.161L167.374 110.362L164.465 110.721L164.811 113.521L163.378 113.698Z" fill="white"/>
<path d="M170.352 112.998L168.805 113.02L171.062 106.157L172.922 106.13L175.377 112.923L173.83 112.946L172.042 107.704L171.988 107.704L170.352 112.998ZM170.216 110.315L173.87 110.261L173.887 111.388L170.233 111.442L170.216 110.315Z" fill="white"/>
<path d="M176.888 106.278L178.047 111.598L178.11 111.604L180.242 106.593L181.835 106.743L178.853 113.322L177.001 113.148L175.292 106.129L176.888 106.278Z" fill="white"/>
<path d="M181.19 113.449L182.56 106.759L187.068 107.682L186.829 108.848L183.735 108.215L183.409 109.809L186.271 110.395L186.032 111.561L183.17 110.975L182.843 112.573L185.95 113.209L185.711 114.375L181.19 113.449Z" fill="white"/>
<path d="M193.194 117.043L191.78 116.414L196.71 111.133L198.41 111.889L197.785 119.085L196.371 118.457L196.95 112.948L196.901 112.926L193.194 117.043ZM194.196 114.551L197.535 116.036L197.077 117.066L193.738 115.581L194.196 114.551Z" fill="white"/>
<path d="M209.952 121.933L208.777 121.066C208.867 120.898 208.923 120.731 208.944 120.564C208.966 120.395 208.956 120.23 208.914 120.07C208.873 119.909 208.8 119.756 208.697 119.611C208.596 119.468 208.467 119.338 208.309 119.222C208.025 119.012 207.725 118.9 207.409 118.886C207.095 118.87 206.781 118.953 206.467 119.136C206.154 119.316 205.857 119.597 205.576 119.979C205.287 120.371 205.103 120.743 205.023 121.095C204.944 121.449 204.96 121.771 205.071 122.063C205.182 122.355 205.376 122.603 205.654 122.807C205.809 122.922 205.969 123.007 206.131 123.064C206.296 123.122 206.459 123.149 206.621 123.147C206.784 123.143 206.942 123.109 207.094 123.045C207.248 122.982 207.393 122.887 207.528 122.76L208.7 123.632C208.483 123.861 208.228 124.049 207.933 124.193C207.642 124.338 207.326 124.427 206.987 124.461C206.65 124.494 206.301 124.461 205.941 124.361C205.584 124.261 205.23 124.081 204.877 123.821C204.387 123.46 204.03 123.026 203.807 122.519C203.586 122.013 203.519 121.468 203.605 120.883C203.693 120.299 203.957 119.708 204.398 119.11C204.84 118.511 205.329 118.084 205.864 117.829C206.399 117.575 206.941 117.48 207.49 117.545C208.04 117.608 208.557 117.818 209.04 118.174C209.359 118.409 209.621 118.671 209.827 118.961C210.035 119.252 210.181 119.562 210.265 119.889C210.351 120.215 210.369 120.55 210.32 120.894C210.272 121.24 210.149 121.586 209.952 121.933Z" fill="white"/>
<path d="M206.951 125.236L211.574 120.21L212.637 121.187L210.73 123.261L212.887 125.245L214.794 123.171L215.855 124.146L211.232 129.173L210.172 128.198L212.081 126.121L209.924 124.137L208.014 126.214L206.951 125.236Z" fill="white"/>
<path d="M212.225 130.305L211.206 129.141L217.898 126.417L219.123 127.818L215.535 134.087L214.516 132.922L217.354 128.165L217.319 128.125L212.225 130.305ZM214.182 128.465L216.588 131.215L215.74 131.957L213.333 129.207L214.182 128.465Z" fill="white"/>
<path d="M219.962 130.703L220.937 130.021L224.153 134.616L223.177 135.299L221.979 133.586L217.359 136.818L216.54 135.649L221.16 132.416L219.962 130.703Z" fill="white"/>
<path d="M223.663 146.005C223.559 145.757 223.526 145.505 223.562 145.249C223.599 144.992 223.695 144.76 223.849 144.552C224.004 144.345 224.206 144.19 224.454 144.087C224.705 143.983 224.957 143.949 225.21 143.986C225.467 144.024 225.698 144.12 225.905 144.275C226.113 144.429 226.269 144.63 226.372 144.879C226.476 145.129 226.509 145.382 226.47 145.636C226.435 145.892 226.339 146.123 226.184 146.329C226.032 146.537 225.831 146.693 225.581 146.797C225.332 146.9 225.08 146.933 224.823 146.895C224.568 146.859 224.336 146.764 224.127 146.61C223.922 146.457 223.767 146.255 223.663 146.005Z" fill="white"/>
<path d="M225.362 155.658L232.084 154.453L232.339 155.875L226.789 156.869L227.305 159.751L226.133 159.961L225.362 155.658Z" fill="white"/>
<path d="M226.233 160.915L233.046 160.444L233.363 165.035L232.176 165.117L231.958 161.967L230.335 162.079L230.536 164.993L229.348 165.075L229.147 162.161L227.52 162.273L227.739 165.437L226.551 165.519L226.233 160.915Z" fill="white"/>
<path d="M232.209 166.757L233.399 166.803L233.178 172.408L231.988 172.361L232.071 170.272L226.436 170.05L226.493 168.624L232.127 168.846L232.209 166.757Z" fill="white"/>
<path d="M232.584 176.531L231.872 176.425C231.67 176.395 231.469 176.324 231.27 176.214C231.072 176.106 230.89 175.973 230.722 175.815C230.557 175.658 230.421 175.493 230.314 175.32L230.772 174.754C230.929 174.89 231.107 175.015 231.306 175.13C231.504 175.247 231.743 175.327 232.022 175.368L232.741 175.475L232.584 176.531Z" fill="white"/>
<path d="M229.157 182.979C229.424 183.022 229.655 182.964 229.85 182.806C230.046 182.648 230.187 182.401 230.275 182.066C230.335 181.838 230.353 181.637 230.329 181.463C230.308 181.29 230.253 181.146 230.163 181.033C230.072 180.922 229.956 180.848 229.814 180.811C229.697 180.776 229.587 180.773 229.485 180.804C229.382 180.837 229.286 180.893 229.196 180.973C229.108 181.054 229.024 181.151 228.944 181.266C228.865 181.381 228.791 181.506 228.721 181.642L228.424 182.198C228.284 182.469 228.129 182.711 227.958 182.924C227.787 183.137 227.601 183.311 227.397 183.446C227.194 183.581 226.974 183.669 226.735 183.71C226.496 183.753 226.239 183.74 225.963 183.67C225.56 183.562 225.236 183.367 224.993 183.085C224.751 182.806 224.599 182.453 224.535 182.028C224.474 181.605 224.513 181.125 224.654 180.587C224.794 180.054 224.997 179.611 225.264 179.258C225.531 178.907 225.853 178.663 226.231 178.525C226.611 178.39 227.041 178.38 227.519 178.493L227.165 179.845C226.939 179.802 226.738 179.817 226.56 179.89C226.384 179.966 226.234 180.088 226.109 180.258C225.986 180.43 225.892 180.637 225.829 180.878C225.767 181.114 225.748 181.329 225.771 181.521C225.794 181.715 225.854 181.877 225.951 182.006C226.048 182.134 226.176 182.22 226.336 182.261C226.484 182.3 226.62 182.289 226.744 182.227C226.868 182.168 226.987 182.063 227.102 181.914C227.216 181.767 227.334 181.581 227.455 181.355L227.824 180.683C228.106 180.161 228.433 179.777 228.805 179.53C229.178 179.283 229.608 179.224 230.096 179.354C230.496 179.457 230.818 179.655 231.06 179.948C231.302 180.244 231.458 180.602 231.526 181.025C231.595 181.447 231.566 181.899 231.44 182.381C231.312 182.871 231.116 183.277 230.852 183.599C230.588 183.923 230.28 184.148 229.928 184.274C229.575 184.4 229.202 184.415 228.806 184.318L229.157 182.979Z" fill="white"/>
<path d="M221.789 189.144L227.869 192.253L227.212 193.539L224.703 192.256L223.369 194.865L225.877 196.148L225.221 197.431L219.141 194.321L219.797 193.039L222.309 194.323L223.643 191.714L221.132 190.429L221.789 189.144Z" fill="white"/>
<path d="M218.455 195.31L219.304 194.016L223.718 199.735L222.697 201.291L215.697 199.51L216.546 198.217L221.889 199.679L221.918 199.634L218.455 195.31ZM220.752 196.702L218.746 199.757L217.804 199.138L219.81 196.084L220.752 196.702Z" fill="white"/>
<path d="M220.349 204.49L215.295 202.464L215.255 202.512L218.206 207.089L217.188 208.324L213.416 202.164L214.6 200.728L221.369 203.253L220.349 204.49Z" fill="white"/>
<path d="M211.881 203.916L216.65 208.804L213.357 212.018L212.525 211.166L214.786 208.96L213.649 207.796L211.559 209.835L210.727 208.983L212.818 206.944L211.679 205.776L209.41 207.991L208.578 207.139L211.881 203.916Z" fill="white"/>
<path d="M202.289 211.945L203.602 211.128L205.207 218.172L203.627 219.155L198.022 214.599L199.335 213.782L203.57 217.352L203.616 217.324L202.289 211.945ZM203.788 214.173L200.685 216.103L200.09 215.146L203.193 213.216L203.788 214.173Z" fill="white"/>
<path d="M188.837 223.072L190.214 222.585C190.302 222.754 190.409 222.894 190.536 223.005C190.663 223.118 190.805 223.203 190.961 223.258C191.118 223.314 191.285 223.339 191.462 223.336C191.638 223.332 191.818 223.298 192.003 223.233C192.336 223.115 192.597 222.93 192.786 222.677C192.975 222.426 193.083 222.119 193.108 221.757C193.134 221.396 193.068 220.993 192.91 220.546C192.748 220.087 192.543 219.726 192.297 219.462C192.048 219.198 191.772 219.031 191.468 218.959C191.164 218.887 190.85 218.908 190.525 219.023C190.343 219.088 190.183 219.171 190.045 219.274C189.905 219.378 189.79 219.498 189.701 219.633C189.613 219.77 189.553 219.92 189.52 220.082C189.486 220.245 189.483 220.418 189.513 220.601L188.134 221.082C188.065 220.773 188.053 220.457 188.099 220.132C188.143 219.81 188.246 219.499 188.409 219.198C188.57 218.901 188.793 218.631 189.077 218.389C189.361 218.15 189.709 217.957 190.122 217.811C190.696 217.608 191.255 217.557 191.8 217.657C192.343 217.757 192.832 218.007 193.268 218.407C193.702 218.808 194.043 219.358 194.29 220.058C194.538 220.761 194.617 221.405 194.527 221.991C194.437 222.576 194.212 223.078 193.85 223.496C193.489 223.916 193.026 224.226 192.46 224.426C192.087 224.558 191.722 224.628 191.367 224.635C191.009 224.644 190.671 224.591 190.352 224.478C190.035 224.366 189.747 224.193 189.49 223.958C189.231 223.725 189.013 223.429 188.837 223.072Z" fill="white"/>
<path d="M187.787 218.734L189.353 225.381L187.948 225.712L187.301 222.97L184.448 223.642L185.095 226.385L183.693 226.715L182.126 220.068L183.528 219.738L184.175 222.483L187.028 221.811L186.381 219.065L187.787 218.734Z" fill="white"/>
<path d="M180.631 220.255L182.167 220.065L180.666 227.132L178.819 227.36L175.644 220.872L177.18 220.682L179.524 225.7L179.577 225.694L180.631 220.255ZM181.057 222.907L177.43 223.356L177.292 222.237L180.919 221.788L181.057 222.907Z" fill="white"/>
<path d="M175.96 226.434L175.978 227.625L170.37 227.707L170.352 226.517L172.443 226.486L172.36 220.848L173.787 220.827L173.87 226.465L175.96 226.434Z" fill="white"/>
<path d="M279.274 282.278C279.347 281.592 279.406 280.465 279.357 279.066C279.308 277.666 279.128 275.995 278.793 274.233C278.46 272.475 277.967 270.624 277.411 268.857C276.867 267.086 276.214 265.416 275.598 263.977C272.719 257.33 268.39 251.325 262.658 246.89C256.947 242.478 249.808 239.647 242.245 239.16C241.064 239.067 239.458 239.087 238.154 239.072C237.828 239.058 237.519 239.061 237.242 239.052C236.965 239.042 236.717 239.022 236.506 238.989C236.092 238.922 235.838 238.798 235.846 238.6C235.864 238.184 236.57 237.773 237.846 237.42C239.121 237.125 240.977 236.89 243.162 237.069C248.463 237.444 253.53 238.962 258.053 241.291C262.59 243.613 266.563 246.784 269.892 250.448C274.779 255.819 278.157 262.389 280.175 269.357C281.19 272.836 281.891 276.482 281.849 280.272C281.823 282.162 281.588 284.084 281.102 285.983C280.609 287.87 279.821 289.76 278.72 291.479C277.738 293.024 276.506 294.43 275.089 295.646C273.671 296.86 272.051 297.878 270.28 298.567C268.515 299.265 266.592 299.562 264.733 299.446C262.868 299.334 261.082 298.717 259.589 297.757C258.846 297.27 258.17 296.707 257.563 296.085C256.959 295.461 256.436 294.775 255.97 294.059C255.052 292.615 254.404 291.02 254.003 289.363C253.214 286.047 253.364 282.42 254.715 279.02C255.046 278.22 255.418 277.463 255.84 276.718C256.265 275.979 256.735 275.259 257.251 274.563C257.773 273.875 258.338 273.211 258.948 272.58C259.567 271.955 260.23 271.371 260.935 270.829C262.351 269.762 263.971 268.887 265.681 268.37C267.385 267.832 269.159 267.617 270.868 267.664C274.309 267.764 277.459 268.813 280.312 270.175C281.74 270.865 283.111 271.639 284.404 272.493L286.319 273.794L287.272 274.45L288.181 275.16C296.633 281.613 303.04 290.281 307.16 299.919C308.154 302.178 309.3 304.936 310.057 307.558C310.236 308.093 310.379 308.736 310.546 309.423C310.709 310.11 310.885 310.845 311.06 311.577C311.353 313.057 311.582 314.552 311.748 315.664C311.831 316.638 311.91 317.648 312.056 318.588C312.095 318.858 312.132 319.118 312.168 319.361C312.192 319.609 312.206 319.847 312.223 320.07C312.251 320.52 312.269 320.92 312.277 321.273C312.294 321.978 312.269 322.497 312.2 322.835C312.06 323.508 311.743 323.459 311.23 322.787C311.003 322.493 310.752 322.89 310.55 321.872C310.54 321.829 310.524 321.745 310.518 321.708C309.831 318.648 309.583 315.475 308.962 312.323C305.566 297.001 296.353 283.318 283.199 274.708C282.213 274.017 281.178 273.424 280.119 272.855C279.066 272.287 277.979 271.777 276.863 271.353C275.746 270.921 274.604 270.56 273.433 270.325C272.264 270.092 271.073 269.936 269.88 269.967C268.688 269.992 267.503 270.165 266.351 270.494L265.5 270.783C265.215 270.877 264.947 271.01 264.671 271.123C264.132 271.386 263.595 271.664 263.093 272.002C262.074 272.654 261.139 273.455 260.312 274.35C259.478 275.241 258.744 276.227 258.128 277.27C257.782 277.836 257.489 278.434 257.215 279.028C256.968 279.62 256.734 280.22 256.57 280.835C256.215 282.067 256.026 283.332 255.951 284.613L255.954 284.569C255.916 285.904 256.065 287.229 256.376 288.5C256.676 289.775 257.164 290.986 257.78 292.104C258.371 293.157 259.127 294.112 260.018 294.904C260.92 295.679 261.956 296.309 263.11 296.654C263.681 296.848 264.286 296.944 264.892 297.015C265.507 297.064 266.131 297.053 266.754 296.993C268.004 296.864 269.254 296.491 270.432 295.922C272.799 294.792 274.838 292.903 276.324 290.772C277.07 289.701 277.67 288.566 278.121 287.39C278.575 286.199 278.907 284.979 279.112 283.752C279.152 283.561 279.165 283.33 279.189 283.08C279.231 282.838 279.257 282.565 279.274 282.278Z" fill="#2B2B2B"/>
<path d="M236.953 235.408C237.141 235.229 237.844 234.644 238.306 234.287C239.363 233.446 240.572 232.746 241.893 232.466C242.099 232.424 242.431 232.299 242.661 233.047C242.903 233.825 242.864 234.345 242.577 234.428C241.881 234.643 241.116 234.83 240.562 235.354C239.765 236.105 238.877 236.703 238.173 237.512C238.054 237.645 237.938 237.783 237.826 237.92L237.752 238.005L237.736 238.029L237.705 238.07C237.663 238.122 237.614 238.192 237.643 238.255C237.664 238.294 237.712 238.312 237.757 238.319C237.777 238.322 237.804 238.321 237.825 238.319L237.858 238.314C237.866 238.313 237.864 238.31 237.874 238.311L238.649 238.501C239.11 238.611 239.567 238.727 240.004 238.89C240.757 239.168 241.423 239.635 242.147 239.978C242.317 240.058 242.597 239.997 242.785 240.077C242.943 240.145 243.21 240.248 243.341 240.371C243.399 240.423 243.454 240.486 243.533 240.482C243.902 240.468 243.858 240.769 243.36 241.589C243.25 241.769 243.165 242.028 243.029 242.13C243.023 242.134 243.012 242.145 243.006 242.149C242.539 242.587 242.417 242.26 242.176 242.19C240.993 241.835 239.837 241.425 238.668 241.036L237.599 240.663C237.419 240.602 237.24 240.543 237.057 240.492L236.694 240.387C236.526 240.338 236.355 240.291 236.19 240.232C235.831 240.112 235.427 239.981 235.284 239.669L235.287 239.674C235.162 239.54 235.054 239.385 234.975 239.211C234.905 239.044 234.856 238.862 234.858 238.675C234.856 238.318 234.955 237.957 235.141 237.598C235.225 237.419 235.362 237.246 235.491 237.073C235.619 236.906 235.759 236.715 235.877 236.567C236.197 236.186 236.522 235.834 236.882 235.533C236.905 235.506 236.914 235.446 236.953 235.408Z" fill="#2B2B2B"/>
<path d="M41.0256 57.8765C40.9532 58.5626 40.8934 59.6889 40.9429 61.0885C40.9923 62.4881 41.1723 64.1591 41.5072 65.9208C41.8402 67.6796 42.3331 69.5299 42.8884 71.2975C43.4325 73.0685 44.0854 74.7384 44.7021 76.1772C47.5805 82.8239 51.9094 88.8289 57.6415 93.2645C63.3533 97.6765 70.492 100.507 78.0552 100.994C79.2357 101.087 80.8415 101.067 82.146 101.082C82.4714 101.096 82.7804 101.093 83.0574 101.103C83.3344 101.112 83.5826 101.133 83.7938 101.165C84.2079 101.232 84.4616 101.356 84.4536 101.555C84.436 101.97 83.73 102.381 82.4534 102.734C81.1785 103.029 79.3231 103.265 77.1379 103.085C71.8369 102.71 66.7695 101.192 62.2468 98.8637C57.7098 96.5409 53.7374 93.3699 50.4078 89.7063C45.5208 84.3352 42.1429 77.7649 40.1254 70.7978C39.1104 67.3184 38.4087 63.6721 38.4506 59.8822C38.4769 57.9919 38.7122 56.0699 39.1975 54.1712C39.6905 52.284 40.4792 50.3938 41.5803 48.6751C42.5621 47.1302 43.7938 45.724 45.2104 44.5079C46.6289 43.2946 48.2492 42.2767 50.0198 41.5871C51.7847 40.8889 53.7077 40.592 55.5666 40.7082C57.4318 40.8202 59.2175 41.4377 60.7114 42.3971C61.454 42.8838 62.1303 43.4474 62.7372 44.0695C63.341 44.6936 63.864 45.3796 64.33 46.0952C65.2482 47.5396 65.8964 49.1345 66.2968 50.791C67.0862 54.1073 66.9362 57.7344 65.5844 61.1343C65.2538 61.9342 64.8815 62.6917 64.4602 63.4365C64.0351 64.1755 63.5653 64.8949 63.0489 65.5916C62.5269 66.2798 61.9614 66.9433 61.3518 67.5743C60.7334 68.1988 60.0702 68.7831 59.3654 69.3251C57.9494 70.3926 56.3284 71.2669 54.6193 71.784C52.9152 72.3224 51.1407 72.5372 49.4316 72.4904C45.9913 72.3907 42.8409 71.3414 39.988 69.9792C38.56 69.289 37.1894 68.5153 35.8963 67.6613L33.9813 66.3599L33.0276 65.7046L32.1189 64.9948C23.6668 58.5409 17.2594 49.8735 13.1395 40.2352C12.1455 37.9767 10.9999 35.2179 10.243 32.5962C10.0635 32.0608 9.92131 31.4185 9.75376 30.7312C9.59125 30.0446 9.41471 29.3098 9.24007 28.5778C8.94723 27.0969 8.71776 25.6028 8.55213 24.4902C8.46938 23.5161 8.39024 22.5067 8.24421 21.5664C8.20472 21.2962 8.1678 21.0367 8.13219 20.7928C8.10788 20.5455 8.09427 20.3076 8.07697 20.0844C8.04863 19.634 8.03119 19.234 8.02275 18.8815C8.00586 18.1765 8.03123 17.6575 8.10009 17.3195C8.23973 16.6464 8.55648 16.6955 9.07001 17.3672C9.29676 17.6612 9.54749 17.2643 9.74976 18.2825C9.76 18.3251 9.77544 18.4095 9.78189 18.4464C10.4685 21.5058 10.7166 24.6793 11.3383 27.8312C14.7336 43.1532 23.947 56.836 37.1006 65.4459C38.0872 66.137 39.1216 66.7305 40.1805 67.2995C41.2343 67.8678 42.3211 68.377 43.4371 68.8011C44.5538 69.233 45.6959 69.5944 46.867 69.8296C48.0361 70.062 49.227 70.2182 50.4201 70.1877C51.6121 70.1621 52.7964 69.9893 53.9493 69.6603L54.7997 69.3716C55.0844 69.2772 55.3527 69.1445 55.6291 69.0309C56.1675 68.7682 56.7045 68.49 57.2067 68.1525C58.2263 67.5004 59.1605 66.6992 59.9875 65.8044C60.8214 64.9134 61.5563 63.9275 62.1723 62.8847C62.5178 62.3179 62.811 61.7199 63.0847 61.1265C63.3321 60.5343 63.5657 59.9347 63.73 59.3193C64.0852 58.0875 64.2737 56.8221 64.3485 55.5418L64.3456 55.5849C64.3844 54.2502 64.2354 52.9249 63.924 51.6539C63.6239 50.3796 63.1356 49.1683 62.5197 48.0501C61.9291 46.9974 61.1732 46.0421 60.2823 45.2504C59.3796 44.4748 58.3437 43.8453 57.1897 43.4999C56.6192 43.3065 56.014 43.2102 55.4077 43.1393C54.7932 43.0903 54.169 43.1013 53.5456 43.1611C52.2964 43.2906 51.0463 43.6635 49.8674 44.232C47.5008 45.3625 45.4617 47.2512 43.9756 49.3819C43.2297 50.4533 42.6298 51.5883 42.179 52.7643C41.7245 53.9551 41.3932 55.1752 41.1881 56.4021C41.1481 56.5933 41.1347 56.8245 41.1113 57.0746C41.069 57.3167 41.0425 57.5895 41.0256 57.8765Z" fill="#2B2B2B"/>
<path d="M83.3473 104.746C83.1591 104.925 82.4563 105.511 81.9937 105.867C80.9373 106.708 79.7282 107.408 78.4074 107.688C78.2009 107.73 77.8693 107.856 77.6387 107.107C77.3972 106.329 77.4358 105.81 77.7231 105.726C78.4193 105.511 79.184 105.324 79.7382 104.8C80.5344 104.049 81.423 103.451 82.1267 102.642C82.246 102.51 82.3616 102.371 82.4741 102.235L82.5478 102.149L82.564 102.126L82.5953 102.084C82.6371 102.032 82.6858 101.963 82.6573 101.899C82.6357 101.86 82.5879 101.842 82.5427 101.835C82.5226 101.832 82.4962 101.833 82.4749 101.835L82.4422 101.84C82.4341 101.842 82.436 101.844 82.4259 101.843L81.6507 101.654C81.1899 101.544 80.7334 101.427 80.2962 101.264C79.5432 100.986 78.8767 100.519 78.1529 100.176C77.9824 100.096 77.7032 100.158 77.5144 100.077C77.3565 100.009 77.0898 99.9064 76.9586 99.7835C76.9012 99.731 76.8463 99.6687 76.7672 99.6718C76.398 99.6864 76.4419 99.3856 76.9395 98.5655C77.0498 98.3852 77.1354 98.1267 77.2706 98.0246C77.2769 98.0204 77.2875 98.0093 77.2938 98.0051C77.761 97.5674 77.883 97.8939 78.1238 97.9645C79.3067 98.3195 80.4629 98.7292 81.6321 99.118L82.7008 99.4911C82.8813 99.5524 83.0599 99.6108 83.2429 99.6623L83.6057 99.7672C83.7736 99.8162 83.9447 99.8632 84.1101 99.9222C84.4693 100.042 84.8724 100.174 85.0163 100.486L85.0125 100.48C85.1381 100.615 85.2455 100.77 85.3248 100.943C85.3952 101.111 85.4438 101.293 85.4414 101.479C85.4436 101.836 85.3453 102.198 85.1591 102.556C85.0751 102.735 84.9377 102.909 84.8085 103.081C84.6804 103.248 84.5412 103.439 84.4231 103.588C84.1032 103.969 83.7776 104.321 83.4178 104.621C83.3953 104.649 83.3855 104.709 83.3473 104.746Z" fill="#2B2B2B"/>
</svg>
